<?xml version="1.0" encoding="UTF-8" standalone="no"?>
<!-- Created with Inkscape (http://www.inkscape.org/) -->

<svg
   xmlns:dc="http://purl.org/dc/elements/1.1/"
   xmlns:cc="http://creativecommons.org/ns#"
   xmlns:rdf="http://www.w3.org/1999/02/22-rdf-syntax-ns#"
   xmlns:svg="http://www.w3.org/2000/svg"
   xmlns="http://www.w3.org/2000/svg"
   xmlns:sodipodi="http://sodipodi.sourceforge.net/DTD/sodipodi-0.dtd"
   xmlns:inkscape="http://www.inkscape.org/namespaces/inkscape"
   width="210mm"
   height="297mm"
   id="svg3391"
   version="1.1"
   inkscape:version="0.48.1 r9760"
   inkscape:export-filename="/home/phosphor/Pictures/work/hackeriet/hax_fos_a4show.png"
   inkscape:export-xdpi="72"
   inkscape:export-ydpi="72"
   sodipodi:docname="hax_fos_ny.svg">
  <defs
     id="defs3" />
  <sodipodi:namedview
     inkscape:document-units="mm"
     id="base"
     pagecolor="#ffffff"
     bordercolor="#666666"
     borderopacity="1.0"
     inkscape:pageopacity="0.0"
     inkscape:pageshadow="2"
     inkscape:zoom="1"
     inkscape:cx="348.83563"
     inkscape:cy="672.82836"
     inkscape:current-layer="layer1"
     showgrid="false"
     inkscape:window-width="1005"
     inkscape:window-height="563"
     inkscape:window-x="0"
     inkscape:window-y="19"
     inkscape:window-maximized="1"
     inkscape:snap-object-midpoints="false"
     showguides="true"
     inkscape:guide-bbox="true"
     inkscape:snap-bbox="true"
     inkscape:snap-bbox-midpoints="true"
     inkscape:snap-bbox-edge-midpoints="false"
     inkscape:bbox-nodes="false"
     inkscape:bbox-paths="false"
     inkscape:snap-global="false" />
  <metadata
     id="metadata4">
    <rdf:RDF>
      <cc:Work
         rdf:about="">
        <dc:format>image/svg+xml</dc:format>
        <dc:type
           rdf:resource="http://purl.org/dc/dcmitype/StillImage" />
        <dc:title></dc:title>
      </cc:Work>
    </rdf:RDF>
  </metadata>
  <g
     inkscape:label="Layer 1"
     inkscape:groupmode="layer"
     id="layer1">
    <g
       style="fill:#333333"
       id="g3415"
       transform="matrix(0.90219022,0.25995235,-0.25995235,0.90219022,-847.85139,-1153.5866)"
       inkscape:export-filename="/home/phosphor/Pictures/work/hackeriet/hax_fos_ny_txt2.png"
       inkscape:export-xdpi="72"
       inkscape:export-ydpi="72">
      <path
         style="fill:#333333;stroke:none"
         d="m 268.8125,119 -3,2.28125 -14.5,35.1875 -8.90625,3.6875 -27.03125,65.5 2.75,20.4375 -32.625,78.96875 1.28125,1.75 c 0,0 72.13542,-24.92537 109.375,-32.8125 7.28234,-1.54235 14.32705,-2.80581 21.125,-3.84375 l -1.6875,-68.71875 2.5,-8.90625 7.53125,-4.71875 -0.65625,-30.28125 c -11.2284,-6.07669 -21.47043,-14.11336 -30.4375,-23.1875 C 284.29039,143.98066 268.8125,119 268.8125,119 z m -7,57.625 5.1875,2.125 16.59375,39.9375 -4.9375,12 L 257,178.59375 z m 15.5,6.375 10.09375,4.15625 4.625,11.125 -4.15625,10.0625 z m -27.375,0.25 24.21875,58.3125 -1.625,3.9375 -5.71875,2.40625 -21.84375,-52.53125 z m -9.5,23.03125 17.625,42.5 -11.6875,-4.84375 -10.78125,-25.90625 z m 421.53125,21.375 -5.59375,23.625 63.625,7.53125 -0.90625,7.4375 -64.46875,-7.59375 -2.28125,9.65625 91.91116,10.92564 17.12108,-22.39965 5.40625,-7.25 1.3125,8.9375 6.25,43 29.59375,-39.65625 5.40625,-7.25 1.3125,8.9375 6.25,42.96875 12.0625,-16.1875 1.3125,-1.75 2.15625,0.28125 26.12401,3.78651 c 3.24357,-12.5243 15.35469,-21.05927 28.5625,-19.5 14.41893,1.70225 24.70224,14.7686 23,29.1875 -1.70224,14.4189 -14.76857,24.7335 -29.1875,23.03125 -13.09685,-1.54617 -22.79336,-12.45458 -23.1875,-25.25 l -24.03026,-3.56776 -16.21875,21.71875 -5.4375,7.28125 -1.3125,-8.9375 -6.25,-43 -29.5625,39.65625 -5.40625,7.28125 -1.3125,-8.96875 -6.25,-43.03125 -14.1815,18.984 -167.31949,-20.16624 -28.625,6.5625 164.0625,19.375 -0.875,7.4375 -185,-21.84375 -16.625,3.8125 L 504.375,278 l -0.75,-2.1875 -36.8125,-4.375 c -2.1112,1.72892 -4.27039,3.48782 -6.625,5.46875 -7.74673,6.51729 -25.0625,10 -25.0625,10 l -4.28125,4.875 441.125,59.46875 c 34.21098,4.75025 59.64027,-17.50657 63,-42.65625 3.37912,-25.29715 -16.82562,-55.27935 -49.875,-58.09375 z m -164.0625,12.5 c -2.15716,2.46823 -4.93932,5.57201 -8,8.96875 l 11.875,1.40625 -0.0937,-9.9375 -3.78125,-0.4375 z m -14.21875,15.8125 c -1.15623,1.22756 -2.27103,2.38562 -3.28125,3.40625 -1.98607,2.00653 -3.87419,3.76217 -5.75,5.4375 l 27.3125,3.21875 -0.0937,-9.90625 -18.1875,-2.15625 z"
         transform="matrix(1.0561618,-0.13756179,0.13756179,1.0561618,755.70275,151.68461)"
         id="path3417"
         inkscape:connector-curvature="0"
         sodipodi:nodetypes="ccccccccscccccsccccccccccccccccccccccccccccccccccccccccccsssccccccccccccccccccccscccccccccccccsccccc" />
      <path
         style="fill:#333333;stroke:none"
         d="m 988.33857,469.33254 23.40933,-87.36485 -6.0634,-22.62889 21.0727,-78.64426 9.2359,-5.33232 15.7074,-58.62086 c 0,0 -0.2805,-8.85931 -3.1401,-11.71893 -2.8332,-2.83323 -7.6383,-3.6341 -11.6108,-3.11111 -3.0791,0.40537 -8.0687,4.65844 -8.0687,4.65844 l -3.5468,13.23682 -22.3458,-5.98755 -42.43103,158.35492 -10.5124,10.51234 -10.6222,2.84622 -8.4812,8.48119 -82.5144,-22.10968 -3.9737,2.29419 c 0,0 4.0683,61.45926 48.9089,91.20654 43.6741,28.97338 82.8325,16.66751 82.8325,16.66751 0,0 5.9803,-1.88274 8.0813,-4.04061 2.2325,-2.29303 4.0625,-8.69911 4.0625,-8.69911 z"
         id="path3419"
         inkscape:connector-curvature="0"
         sodipodi:nodetypes="ccccccsscccccccccscsc" />
      <path
         style="fill:#333333;stroke:none"
         d="m 984.27607,253.52525 -16.6939,62.3022 -2.4067,4.16863 -91.8172,-24.60233 -1.9787,-7.38478 c 0,0 27.7054,-30.84049 55.3178,-40.2921 31.6221,-10.82413 54.2957,-4.79822 54.2957,-4.79822 0,0 2.4335,0.7621 3.0304,1.76776 1.5044,2.53466 0.2526,8.83884 0.2526,8.83884 z"
         id="path3421"
         inkscape:connector-curvature="0"
         sodipodi:nodetypes="cccccscsc" />
    </g>
    <g
       id="g3425"
       style="fill:#333333;stroke:none"
       transform="matrix(1.3825614,0.21039389,-0.21039389,1.3825614,-160.43122,-1233.5375)"
       inkscape:export-filename="/home/phosphor/Pictures/work/hackeriet/hax_fos_ny_txt2.png"
       inkscape:export-xdpi="72"
       inkscape:export-ydpi="72">
      <path
         d="m 371.86845,518.3719 c 0,0 22.45257,10.65169 25.31802,13.09513 3.2491,2.77059 4.77826,4.19742 4.37612,8.37517 -0.54841,5.69722 -1.99304,12.07503 -4.50009,17.2203 -2.67864,5.49741 -8.75,13.8125 -8.75,13.8125 -0.18765,89.88979 -1.79287,27.2149 -1.79287,107.50333 l 57,0 -0.30088,-81.69083 18.375,-26.5625 c 0,0 7.58046,-9.46806 9.5,-15.09375 2.53908,-7.4414 1.65864,-13.37331 1.68733,-22.48407 z"
         style="fill:#333333;stroke:none"
         transform="translate(-1.775992e-5,1.5849045e-5)"
         id="path3427"
         inkscape:connector-curvature="0"
         sodipodi:nodetypes="cssscccccscc" />
      <path
         sodipodi:nodetypes="csccsccsccscc"
         inkscape:connector-curvature="0"
         id="path3429"
         d="m 1102.6786,333.25504 c 0,0 -0.3886,1.80873 -0.1786,2.67857 0.1629,0.67477 1.0714,1.78572 1.0714,1.78572 l 44.1072,18.75 c 0,0 2.2557,0.66937 3.3928,0.53571 1.0868,-0.12775 3.0357,-1.25 3.0357,-1.25 l 28.9286,-43.75 c 0,0 0.9918,-2.58929 0.8929,-3.92857 -0.085,-1.14648 -1.25,-3.21429 -1.25,-3.21429 l -33.2143,-26.42857 c 0,0 -2.3603,-0.79875 -3.5714,-0.71428 -1.2583,0.0878 -3.5715,1.25 -3.5715,1.25 z"
         style="fill:#333333;stroke:none"
         transform="matrix(0.80385035,-0.59483159,0.59483159,0.80385035,-831.18848,827.86975)" />
      <path
         sodipodi:nodetypes="csccsscccsccscc"
         inkscape:connector-curvature="0"
         id="path3431"
         d="m 1161.7857,358.79075 c 0,0 -0.6872,1.90009 -0.5357,2.85715 0.1166,0.73665 1.0714,1.96428 1.0714,1.96428 l 25.8929,12.85715 c 0,0 2.8086,2.07055 3.5714,3.57142 0.8735,1.71866 0.8148,3.788 0.8929,5.71429 0.3265,8.05111 -1.7857,24.10714 -1.7857,24.10714 l 3.0357,0.35715 43.0357,-55.89286 c 0,0 0.9228,-1.98139 0.8928,-3.03572 -0.025,-0.88452 -0.8928,-2.5 -0.8928,-2.5 l -37.3214,-35.71428 c 0,0 -2.7129,-1.02999 -4.1072,-0.89286 -1.4857,0.14612 -4.1071,1.78572 -4.1071,1.78572 z"
         style="fill:#333333;stroke:none"
         transform="matrix(0.80385035,-0.59483159,0.59483159,0.80385035,-831.18848,827.86975)" />
      <path
         id="path3433"
         d="m 385.28125,373.3125 c 0,0 -1.81149,0.24989 -2.46875,0.8125 -0.57194,0.48963 -1.03125,2 -1.03125,2 l -0.875,111.6875 c 0,0 0.90378,1.89946 1.71875,2.5 0.85789,0.63213 3.0625,0.96875 3.0625,0.96875 l 35.28125,-7.9375 c 0,0 3.10522,-0.82355 4.28125,-1.84375 0.92691,-0.8041 1.9375,-3.15625 1.9375,-3.15625 0.62945,-6.9162 1.22326,-13.83307 1.84375,-20.75 l 7.71875,1.09375 -1.75,18.96875 1.09375,2.96875 2.625,1.28125 26.6875,4.6875 c 0,0 2.91309,-0.17881 4.03125,-1 1.01117,-0.74268 1.96875,-3.21875 1.96875,-3.21875 l 20.15625,-83.34375 c 0,0 0.022,-3.35689 -0.8125,-4.71875 C 490.14979,393.33294 488,392.25 488,392.25 l -40.59375,-9.96875 c 0,0 -1.72539,0.27742 -2.40625,0.78125 -0.68086,0.50382 -1.46875,2.09375 -1.46875,2.09375 l -4.90625,53.125 -7.84375,-0.25 c 1.54502,-17.54604 3.06759,-35.10009 4.5,-52.65625 0,0 -0.70796,-2.67896 -1.5,-3.78125 -0.5895,-0.82085 -2.3125,-1.96875 -2.3125,-1.96875 l -46.1875,-6.3125 z"
         style="fill:#800000;stroke:none"
         inkscape:connector-curvature="0" />
      <path
         sodipodi:nodetypes="cccccccccsccccssssssccccccssccsccccc"
         inkscape:connector-curvature="0"
         d="m 378.55895,678.37834 -83.01448,0 2.08542,-70.27863 c 0,0 -0.80525,-5.87495 -1.52785,-8.35811 -0.61587,-2.11651 -4.45167,-4.89008 -4.45167,-4.89008 L 254.00112,578.763 c 0,0 -2.51492,-1.65126 -3.36567,-2.85022 -0.91032,-1.28231 -1.68897,-4.40508 -1.68897,-4.40508 l -2.52571,-113.58507 c 0,0 0.83854,-2.98091 1.86966,-4.05387 1.24184,-1.29222 4.78882,-2.44406 4.78882,-2.44406 l 90.7416,-20.0227 c 0,0 4.22624,-0.47281 6.21183,0.11579 6.26869,5.14985 14.34187,22.56979 15.15769,26.64001 -0.47895,1.66802 -1.57728,3.11819 -2.65529,4.47815 -7.14429,9.0129 -15.98448,16.61473 -24.87807,23.90702 -2.2467,1.84219 -4.50413,3.78772 -7.15384,4.97953 -2.95866,1.33076 -6.22525,2.03879 -9.45987,2.28768 -4.13336,0.31806 -8.30144,-0.37358 -12.39317,-1.03955 -3.89356,-0.63368 -7.58997,-3.33977 -11.49788,-2.80159 -1.00851,0.13888 -2.34127,0.5317 -2.6614,1.49813 -0.36604,1.10511 0.71998,2.26022 1.41894,3.19119 1.97384,2.62875 4.71137,4.67935 7.53527,6.36217 2.51805,1.50049 5.75118,1.57892 8.187,3.20953 1.37519,0.92067 3.00192,1.98626 3.43672,3.58304 0.46294,1.70037 -0.36079,3.60552 -1.2201,5.14401 -1.95062,3.49225 -6.24849,5.16794 -8.48961,8.48126 -0.79268,1.17194 -2.0166,2.53275 -1.6667,3.90368 0.23735,0.92999 2.26148,1.78232 2.26148,1.78232 l 37.49431,-10.46612 c 0,0 4.46241,-0.93016 6.69702,-0.71449 1.97751,0.19086 5.69623,1.75397 5.69623,1.75397 l 31.95977,15.72357 c 5.24363,3.92261 5.76784,5.8781 2.49359,15.93438 l -9.94295,16.86309 c 5e-5,36.62473 -1.79282,75.53482 -1.79287,112.15957 z"
         style="fill:#333333;stroke:none"
         id="path3435" />
    </g>
    <path
       style="font-size:medium;font-style:normal;font-variant:normal;font-weight:normal;font-stretch:normal;text-indent:0;text-align:start;text-decoration:none;line-height:normal;letter-spacing:normal;word-spacing:normal;text-transform:none;direction:ltr;block-progression:tb;writing-mode:lr-tb;text-anchor:start;baseline-shift:baseline;color:#000000;fill:#333333;fill-opacity:1;stroke:none;stroke-width:16;marker:none;visibility:visible;display:inline;overflow:visible;enable-background:accumulate;font-family:Sans;-inkscape-font-specification:Sans"
       d="m -229.23397,-753.32233 0,8 0,580.5937 0,8 8,0 939.40625,0 8,0 0,-8 0,-580.5937 0,-8 -8,0 -939.40625,0 z m 16,16 923.40625,0 0,454.9751 -923.40625,0 z"
       id="rect3001"
       inkscape:connector-curvature="0"
       sodipodi:nodetypes="cccccccccccccccccc"
       inkscape:export-filename="/home/phosphor/Pictures/work/hackeriet/hax_fos_ny_txt2.png"
       inkscape:export-xdpi="72"
       inkscape:export-ydpi="72" />
    <text
       xml:space="preserve"
       style="font-size:126.27802277px;font-style:normal;font-variant:normal;font-weight:bold;font-stretch:normal;text-align:center;line-height:125%;letter-spacing:0px;word-spacing:0px;text-anchor:middle;fill:#ffffff;fill-opacity:1;stroke:none;font-family:Courier 10 Pitch;-inkscape-font-specification:Courier 10 Pitch Bold"
       x="245.0155"
       y="-183.45695"
       id="text3009"
       sodipodi:linespacing="125%"
       inkscape:export-filename="/home/phosphor/Pictures/work/hackeriet/hax_fos_ny_txt2.png"
       inkscape:export-xdpi="72"
       inkscape:export-ydpi="72"><tspan
         sodipodi:role="line"
         id="tspan3011"
         x="245.01553"
         y="-183.45695">-hackeriet+</tspan></text>
    <path
       sodipodi:type="arc"
       style="fill:none;stroke:#333333;stroke-width:80.03220367;stroke-linecap:square;stroke-linejoin:miter;stroke-miterlimit:4;stroke-opacity:1;stroke-dasharray:none;stroke-dashoffset:0"
       id="path3068"
       sodipodi:cx="4609.4575"
       sodipodi:cy="-648.68896"
       sodipodi:rx="449.70319"
       sodipodi:ry="449.70319"
       d="m 5059.1607,-648.68896 a 449.70319,449.70319 0 1 1 -899.4064,0 449.70319,449.70319 0 1 1 899.4064,0 z"
       transform="matrix(0.2378945,0.08036774,-0.08036774,0.2378945,-237.57075,-708.44233)" />
    <path
       inkscape:connector-curvature="0"
       style="fill:#333333;stroke:none"
       d="m 836.21897,-541.30273 -16.27418,16.0862 28.47571,8.7813 3.85627,11.7064 -9.629,7.8453 -28.44458,-8.784 4.444,21.5679 33.01872,10.1373 11.85841,-11.0223 0.5292,-0.047 4.91179,22.9546 18.0694,15.2835 -12.01264,59.4961 55.07549,8.0343 10.32709,-56.5553 12.71994,-10.5023 8.53586,-11.0802 22.87333,6.183 14.66909,-9.8471 -8.74176,-16.2355 -26.23967,-7.9645 3.5534,-22.9264 -11.28608,-6.3138 -3.59726,4.7408 0.30676,-8.968 -17.29856,-7.2577 -4.93398,5.2352 -0.18858,-5.6931 -18.69113,-4.9074 -4.27205,6.3374 -1.12884,-7.4609 -16.64671,-0.2252 -6.12798,21.2143 -9.96307,0.8629 -4.72967,-20.5388 -33.01872,-10.1373 z m 77.13024,31.8606 -0.41481,9.1656 -0.72797,17.3499 13.6923,-15.4821 6.81915,-7.6914 -0.63272,10.2514 -1.23612,20.124 6.74131,-6.0847 1.53998,-1.3907 1.93914,0.6445 12.43787,4.0789 -2.23034,6.722 -10.46758,-3.437 -11.64782,10.5646 -6.44924,5.8394 0.55212,-8.6759 1.12442,-18.5456 -13.49088,15.276 -6.64884,7.4883 0.43678,-9.9832 0.80947,-18.2041 -4.29218,4.3315 -1.52625,1.5464 -2.06641,-0.6647 -11.59006,-3.7145 2.16534,-6.7477 9.52364,3.0498 9.18862,-9.281 z"
       id="path3066"
       sodipodi:nodetypes="cccccccccccccccccccccccccccccccccccccccccccccccccccccccccccccccccc" />
    <g
       id="g5434"
       transform="matrix(0.80250962,0.32738127,-0.32738127,0.80250962,-431.59369,-530.82357)" />
    <g
       inkscape:export-ydpi="72"
       inkscape:export-xdpi="72"
       inkscape:export-filename="/home/phosphor/Pictures/work/hackeriet/hax_fos_ny_txt2.png"
       transform="matrix(0.67371915,0.1941219,-0.1941219,0.67371915,-445.78852,-281.44782)"
       id="g5486"
       style="fill:#4d4d4d">
      <path
         sodipodi:nodetypes="ccccccccscccccsccccccccccccccccccccccccccccccccccccccccccsssccccccccccccccccccccscccccccccccccsccccc"
         inkscape:connector-curvature="0"
         id="path5488"
         transform="matrix(1.0561618,-0.13756179,0.13756179,1.0561618,755.70275,151.68461)"
         d="m 268.8125,119 -3,2.28125 -14.5,35.1875 -8.90625,3.6875 -27.03125,65.5 2.75,20.4375 -32.625,78.96875 1.28125,1.75 c 0,0 72.13542,-24.92537 109.375,-32.8125 7.28234,-1.54235 14.32705,-2.80581 21.125,-3.84375 l -1.6875,-68.71875 2.5,-8.90625 7.53125,-4.71875 -0.65625,-30.28125 c -11.2284,-6.07669 -21.47043,-14.11336 -30.4375,-23.1875 C 284.29039,143.98066 268.8125,119 268.8125,119 z m -7,57.625 5.1875,2.125 16.59375,39.9375 -4.9375,12 L 257,178.59375 z m 15.5,6.375 10.09375,4.15625 4.625,11.125 -4.15625,10.0625 z m -27.375,0.25 24.21875,58.3125 -1.625,3.9375 -5.71875,2.40625 -21.84375,-52.53125 z m -9.5,23.03125 17.625,42.5 -11.6875,-4.84375 -10.78125,-25.90625 z m 421.53125,21.375 -5.59375,23.625 63.625,7.53125 -0.90625,7.4375 -64.46875,-7.59375 -2.28125,9.65625 91.91116,10.92564 17.12108,-22.39965 5.40625,-7.25 1.3125,8.9375 6.25,43 29.59375,-39.65625 5.40625,-7.25 1.3125,8.9375 6.25,42.96875 12.0625,-16.1875 1.3125,-1.75 2.15625,0.28125 26.12401,3.78651 c 3.24357,-12.5243 15.35469,-21.05927 28.5625,-19.5 14.41893,1.70225 24.70224,14.7686 23,29.1875 -1.70224,14.4189 -14.76857,24.7335 -29.1875,23.03125 -13.09685,-1.54617 -22.79336,-12.45458 -23.1875,-25.25 l -24.03026,-3.56776 -16.21875,21.71875 -5.4375,7.28125 -1.3125,-8.9375 -6.25,-43 -29.5625,39.65625 -5.40625,7.28125 -1.3125,-8.96875 -6.25,-43.03125 -14.1815,18.984 -167.31949,-20.16624 -28.625,6.5625 164.0625,19.375 -0.875,7.4375 -185,-21.84375 -16.625,3.8125 L 504.375,278 l -0.75,-2.1875 -36.8125,-4.375 c -2.1112,1.72892 -4.27039,3.48782 -6.625,5.46875 -7.74673,6.51729 -25.0625,10 -25.0625,10 l -4.28125,4.875 441.125,59.46875 c 34.21098,4.75025 59.64027,-17.50657 63,-42.65625 3.37912,-25.29715 -16.82562,-55.27935 -49.875,-58.09375 z m -164.0625,12.5 c -2.15716,2.46823 -4.93932,5.57201 -8,8.96875 l 11.875,1.40625 -0.0937,-9.9375 -3.78125,-0.4375 z m -14.21875,15.8125 c -1.15623,1.22756 -2.27103,2.38562 -3.28125,3.40625 -1.98607,2.00653 -3.87419,3.76217 -5.75,5.4375 l 27.3125,3.21875 -0.0937,-9.90625 -18.1875,-2.15625 z"
         style="fill:#4d4d4d;stroke:none" />
      <path
         sodipodi:nodetypes="ccccccsscccccccccscsc"
         inkscape:connector-curvature="0"
         id="path5490"
         d="m 988.33857,469.33254 23.40933,-87.36485 -6.0634,-22.62889 21.0727,-78.64426 9.2359,-5.33232 15.7074,-58.62086 c 0,0 -0.2805,-8.85931 -3.1401,-11.71893 -2.8332,-2.83323 -7.6383,-3.6341 -11.6108,-3.11111 -3.0791,0.40537 -8.0687,4.65844 -8.0687,4.65844 l -3.5468,13.23682 -22.3458,-5.98755 -42.43103,158.35492 -10.5124,10.51234 -10.6222,2.84622 -8.4812,8.48119 -82.5144,-22.10968 -3.9737,2.29419 c 0,0 4.0683,61.45926 48.9089,91.20654 43.6741,28.97338 82.8325,16.66751 82.8325,16.66751 0,0 5.9803,-1.88274 8.0813,-4.04061 2.2325,-2.29303 4.0625,-8.69911 4.0625,-8.69911 z"
         style="fill:#4d4d4d;stroke:none" />
      <path
         sodipodi:nodetypes="cccccscsc"
         inkscape:connector-curvature="0"
         id="path5492"
         d="m 984.27607,253.52525 -16.6939,62.3022 -2.4067,4.16863 -91.8172,-24.60233 -1.9787,-7.38478 c 0,0 27.7054,-30.84049 55.3178,-40.2921 31.6221,-10.82413 54.2957,-4.79822 54.2957,-4.79822 0,0 2.4335,0.7621 3.0304,1.76776 1.5044,2.53466 0.2526,8.83884 0.2526,8.83884 z"
         style="fill:#4d4d4d;stroke:none" />
    </g>
    <g
       inkscape:export-ydpi="72"
       inkscape:export-xdpi="72"
       inkscape:export-filename="/home/phosphor/Pictures/work/hackeriet/hax_fos_ny_txt2.png"
       transform="matrix(1.0324409,0.15711364,-0.15711364,1.0324409,67.549052,-341.15192)"
       style="fill:#333333;stroke:none"
       id="g5494">
      <path
         sodipodi:nodetypes="cssscccccscc"
         inkscape:connector-curvature="0"
         id="path5496"
         transform="translate(-1.775992e-5,1.5849045e-5)"
         style="fill:#333333;stroke:none"
         d="m 371.86845,518.3719 c 0,0 22.45257,10.65169 25.31802,13.09513 3.2491,2.77059 4.77826,4.19742 4.37612,8.37517 -0.54841,5.69722 -1.99304,12.07503 -4.50009,17.2203 -2.67864,5.49741 -8.75,13.8125 -8.75,13.8125 -0.18765,89.88979 -1.79287,27.2149 -1.79287,107.50333 l 57,0 -0.30088,-81.69083 18.375,-26.5625 c 0,0 7.58046,-9.46806 9.5,-15.09375 2.53908,-7.4414 1.65864,-13.37331 1.68733,-22.48407 z" />
      <path
         transform="matrix(0.80385035,-0.59483159,0.59483159,0.80385035,-831.18848,827.86975)"
         style="fill:#333333;stroke:none"
         d="m 1102.6786,333.25504 c 0,0 -0.3886,1.80873 -0.1786,2.67857 0.1629,0.67477 1.0714,1.78572 1.0714,1.78572 l 44.1072,18.75 c 0,0 2.2557,0.66937 3.3928,0.53571 1.0868,-0.12775 3.0357,-1.25 3.0357,-1.25 l 28.9286,-43.75 c 0,0 0.9918,-2.58929 0.8929,-3.92857 -0.085,-1.14648 -1.25,-3.21429 -1.25,-3.21429 l -33.2143,-26.42857 c 0,0 -2.3603,-0.79875 -3.5714,-0.71428 -1.2583,0.0878 -3.5715,1.25 -3.5715,1.25 z"
         id="path5498"
         inkscape:connector-curvature="0"
         sodipodi:nodetypes="csccsccsccscc" />
      <path
         transform="matrix(0.80385035,-0.59483159,0.59483159,0.80385035,-831.18848,827.86975)"
         style="fill:#333333;stroke:none"
         d="m 1161.7857,358.79075 c 0,0 -0.6872,1.90009 -0.5357,2.85715 0.1166,0.73665 1.0714,1.96428 1.0714,1.96428 l 25.8929,12.85715 c 0,0 2.8086,2.07055 3.5714,3.57142 0.8735,1.71866 0.8148,3.788 0.8929,5.71429 0.3265,8.05111 -1.7857,24.10714 -1.7857,24.10714 l 3.0357,0.35715 43.0357,-55.89286 c 0,0 0.9228,-1.98139 0.8928,-3.03572 -0.025,-0.88452 -0.8928,-2.5 -0.8928,-2.5 l -37.3214,-35.71428 c 0,0 -2.7129,-1.02999 -4.1072,-0.89286 -1.4857,0.14612 -4.1071,1.78572 -4.1071,1.78572 z"
         id="path5500"
         inkscape:connector-curvature="0"
         sodipodi:nodetypes="csccsscccsccscc" />
      <path
         inkscape:connector-curvature="0"
         style="fill:#800000;stroke:none"
         d="m 385.28125,373.3125 c 0,0 -1.81149,0.24989 -2.46875,0.8125 -0.57194,0.48963 -1.03125,2 -1.03125,2 l -0.875,111.6875 c 0,0 0.90378,1.89946 1.71875,2.5 0.85789,0.63213 3.0625,0.96875 3.0625,0.96875 l 35.28125,-7.9375 c 0,0 3.10522,-0.82355 4.28125,-1.84375 0.92691,-0.8041 1.9375,-3.15625 1.9375,-3.15625 0.62945,-6.9162 1.22326,-13.83307 1.84375,-20.75 l 7.71875,1.09375 -1.75,18.96875 1.09375,2.96875 2.625,1.28125 26.6875,4.6875 c 0,0 2.91309,-0.17881 4.03125,-1 1.01117,-0.74268 1.96875,-3.21875 1.96875,-3.21875 l 20.15625,-83.34375 c 0,0 0.022,-3.35689 -0.8125,-4.71875 C 490.14979,393.33294 488,392.25 488,392.25 l -40.59375,-9.96875 c 0,0 -1.72539,0.27742 -2.40625,0.78125 -0.68086,0.50382 -1.46875,2.09375 -1.46875,2.09375 l -4.90625,53.125 -7.84375,-0.25 c 1.54502,-17.54604 3.06759,-35.10009 4.5,-52.65625 0,0 -0.70796,-2.67896 -1.5,-3.78125 -0.5895,-0.82085 -2.3125,-1.96875 -2.3125,-1.96875 l -46.1875,-6.3125 z"
         id="path5502" />
      <path
         id="path5504"
         style="fill:#333333;stroke:none"
         d="m 378.55895,678.37834 -83.01448,0 2.08542,-70.27863 c 0,0 -0.80525,-5.87495 -1.52785,-8.35811 -0.61587,-2.11651 -4.45167,-4.89008 -4.45167,-4.89008 L 254.00112,578.763 c 0,0 -2.51492,-1.65126 -3.36567,-2.85022 -0.91032,-1.28231 -1.68897,-4.40508 -1.68897,-4.40508 l -2.52571,-113.58507 c 0,0 0.83854,-2.98091 1.86966,-4.05387 1.24184,-1.29222 4.78882,-2.44406 4.78882,-2.44406 l 90.7416,-20.0227 c 0,0 4.22624,-0.47281 6.21183,0.11579 6.26869,5.14985 14.34187,22.56979 15.15769,26.64001 -0.47895,1.66802 -1.57728,3.11819 -2.65529,4.47815 -7.14429,9.0129 -15.98448,16.61473 -24.87807,23.90702 -2.2467,1.84219 -4.50413,3.78772 -7.15384,4.97953 -2.95866,1.33076 -6.22525,2.03879 -9.45987,2.28768 -4.13336,0.31806 -8.30144,-0.37358 -12.39317,-1.03955 -3.89356,-0.63368 -7.58997,-3.33977 -11.49788,-2.80159 -1.00851,0.13888 -2.34127,0.5317 -2.6614,1.49813 -0.36604,1.10511 0.71998,2.26022 1.41894,3.19119 1.97384,2.62875 4.71137,4.67935 7.53527,6.36217 2.51805,1.50049 5.75118,1.57892 8.187,3.20953 1.37519,0.92067 3.00192,1.98626 3.43672,3.58304 0.46294,1.70037 -0.36079,3.60552 -1.2201,5.14401 -1.95062,3.49225 -6.24849,5.16794 -8.48961,8.48126 -0.79268,1.17194 -2.0166,2.53275 -1.6667,3.90368 0.23735,0.92999 2.26148,1.78232 2.26148,1.78232 l 37.49431,-10.46612 c 0,0 4.46241,-0.93016 6.69702,-0.71449 1.97751,0.19086 5.69623,1.75397 5.69623,1.75397 l 31.95977,15.72357 c 5.24363,3.92261 5.76784,5.8781 2.49359,15.93438 l -9.94295,16.86309 c 5e-5,36.62473 -1.79282,75.53482 -1.79287,112.15957 z"
         inkscape:connector-curvature="0"
         sodipodi:nodetypes="cccccccccsccccssssssccccccssccsccccc" />
    </g>
    <path
       inkscape:export-ydpi="72"
       inkscape:export-xdpi="72"
       inkscape:export-filename="/home/phosphor/Pictures/work/hackeriet/hax_fos_ny_txt2.png"
       sodipodi:nodetypes="cccccccccccccccccc"
       inkscape:connector-curvature="0"
       id="path5506"
       d="m 16.169942,17.453338 0,5.974076 0,433.563886 0,5.97408 5.974076,0 701.510582,0 5.97407,0 0,-5.97408 0,-433.563886 0,-5.974076 -5.97407,0 -701.510582,0 z m 11.948153,11.948153 689.562425,0 0,339.756999 -689.562425,0 z"
       style="font-size:medium;font-style:normal;font-variant:normal;font-weight:normal;font-stretch:normal;text-indent:0;text-align:start;text-decoration:none;line-height:normal;letter-spacing:normal;word-spacing:normal;text-transform:none;direction:ltr;block-progression:tb;writing-mode:lr-tb;text-anchor:start;baseline-shift:baseline;color:#000000;fill:#333333;fill-opacity:1;stroke:none;stroke-width:16;marker:none;visibility:visible;display:inline;overflow:visible;enable-background:accumulate;font-family:Sans;-inkscape-font-specification:Sans" />
    <text
       inkscape:export-ydpi="72"
       inkscape:export-xdpi="72"
       inkscape:export-filename="/home/phosphor/Pictures/work/hackeriet/hax_fos_ny_txt2.png"
       sodipodi:linespacing="125%"
       id="text5508"
       y="443.00577"
       x="370.32025"
       style="font-size:94.29931641px;font-style:normal;font-variant:normal;font-weight:bold;font-stretch:normal;text-align:center;line-height:125%;letter-spacing:0px;word-spacing:0px;text-anchor:middle;fill:#ffffff;fill-opacity:1;stroke:none;font-family:Courier 10 Pitch;-inkscape-font-specification:Courier 10 Pitch Bold"
       xml:space="preserve"><tspan
         y="443.00577"
         x="370.32028"
         id="tspan5510"
         sodipodi:role="line">-hackeriet+</tspan></text>
    <g
       transform="matrix(0.09258755,0,0,0.09258755,14.67281,610.83738)"
       id="g5535">
      <g
         inkscape:export-ydpi="72"
         inkscape:export-xdpi="72"
         inkscape:export-filename="/home/phosphor/Pictures/work/hackeriet/hax_fos_ny_txt2.png"
         transform="matrix(0.90219022,0.25995235,-0.25995235,0.90219022,-602.44748,-382.81093)"
         id="g5537"
         style="fill:#333333">
        <path
           sodipodi:nodetypes="ccccccccscccccsccccccccccccccccccccccccccccccccccccccccccsssccccccccccccccccccccscccccccccccccsccccc"
           inkscape:connector-curvature="0"
           id="path5539"
           transform="matrix(1.0561618,-0.13756179,0.13756179,1.0561618,755.70275,151.68461)"
           d="m 268.8125,119 -3,2.28125 -14.5,35.1875 -8.90625,3.6875 -27.03125,65.5 2.75,20.4375 -32.625,78.96875 1.28125,1.75 c 0,0 72.13542,-24.92537 109.375,-32.8125 7.28234,-1.54235 14.32705,-2.80581 21.125,-3.84375 l -1.6875,-68.71875 2.5,-8.90625 7.53125,-4.71875 -0.65625,-30.28125 c -11.2284,-6.07669 -21.47043,-14.11336 -30.4375,-23.1875 C 284.29039,143.98066 268.8125,119 268.8125,119 z m -7,57.625 5.1875,2.125 16.59375,39.9375 -4.9375,12 L 257,178.59375 z m 15.5,6.375 10.09375,4.15625 4.625,11.125 -4.15625,10.0625 z m -27.375,0.25 24.21875,58.3125 -1.625,3.9375 -5.71875,2.40625 -21.84375,-52.53125 z m -9.5,23.03125 17.625,42.5 -11.6875,-4.84375 -10.78125,-25.90625 z m 421.53125,21.375 -5.59375,23.625 63.625,7.53125 -0.90625,7.4375 -64.46875,-7.59375 -2.28125,9.65625 91.91116,10.92564 17.12108,-22.39965 5.40625,-7.25 1.3125,8.9375 6.25,43 29.59375,-39.65625 5.40625,-7.25 1.3125,8.9375 6.25,42.96875 12.0625,-16.1875 1.3125,-1.75 2.15625,0.28125 26.12401,3.78651 c 3.24357,-12.5243 15.35469,-21.05927 28.5625,-19.5 14.41893,1.70225 24.70224,14.7686 23,29.1875 -1.70224,14.4189 -14.76857,24.7335 -29.1875,23.03125 -13.09685,-1.54617 -22.79336,-12.45458 -23.1875,-25.25 l -24.03026,-3.56776 -16.21875,21.71875 -5.4375,7.28125 -1.3125,-8.9375 -6.25,-43 -29.5625,39.65625 -5.40625,7.28125 -1.3125,-8.96875 -6.25,-43.03125 -14.1815,18.984 -167.31949,-20.16624 -28.625,6.5625 164.0625,19.375 -0.875,7.4375 -185,-21.84375 -16.625,3.8125 L 504.375,278 l -0.75,-2.1875 -36.8125,-4.375 c -2.1112,1.72892 -4.27039,3.48782 -6.625,5.46875 -7.74673,6.51729 -25.0625,10 -25.0625,10 l -4.28125,4.875 441.125,59.46875 c 34.21098,4.75025 59.64027,-17.50657 63,-42.65625 3.37912,-25.29715 -16.82562,-55.27935 -49.875,-58.09375 z m -164.0625,12.5 c -2.15716,2.46823 -4.93932,5.57201 -8,8.96875 l 11.875,1.40625 -0.0937,-9.9375 -3.78125,-0.4375 z m -14.21875,15.8125 c -1.15623,1.22756 -2.27103,2.38562 -3.28125,3.40625 -1.98607,2.00653 -3.87419,3.76217 -5.75,5.4375 l 27.3125,3.21875 -0.0937,-9.90625 -18.1875,-2.15625 z"
           style="fill:#333333;stroke:none" />
        <path
           sodipodi:nodetypes="ccccccsscccccccccscsc"
           inkscape:connector-curvature="0"
           id="path5541"
           d="m 988.33857,469.33254 23.40933,-87.36485 -6.0634,-22.62889 21.0727,-78.64426 9.2359,-5.33232 15.7074,-58.62086 c 0,0 -0.2805,-8.85931 -3.1401,-11.71893 -2.8332,-2.83323 -7.6383,-3.6341 -11.6108,-3.11111 -3.0791,0.40537 -8.0687,4.65844 -8.0687,4.65844 l -3.5468,13.23682 -22.3458,-5.98755 -42.43103,158.35492 -10.5124,10.51234 -10.6222,2.84622 -8.4812,8.48119 -82.5144,-22.10968 -3.9737,2.29419 c 0,0 4.0683,61.45926 48.9089,91.20654 43.6741,28.97338 82.8325,16.66751 82.8325,16.66751 0,0 5.9803,-1.88274 8.0813,-4.04061 2.2325,-2.29303 4.0625,-8.69911 4.0625,-8.69911 z"
           style="fill:#333333;stroke:none" />
        <path
           sodipodi:nodetypes="cccccscsc"
           inkscape:connector-curvature="0"
           id="path5543"
           d="m 984.27607,253.52525 -16.6939,62.3022 -2.4067,4.16863 -91.8172,-24.60233 -1.9787,-7.38478 c 0,0 27.7054,-30.84049 55.3178,-40.2921 31.6221,-10.82413 54.2957,-4.79822 54.2957,-4.79822 0,0 2.4335,0.7621 3.0304,1.76776 1.5044,2.53466 0.2526,8.83884 0.2526,8.83884 z"
           style="fill:#333333;stroke:none" />
      </g>
      <g
         inkscape:export-ydpi="72"
         inkscape:export-xdpi="72"
         inkscape:export-filename="/home/phosphor/Pictures/work/hackeriet/hax_fos_ny_txt2.png"
         transform="matrix(1.3825614,0.21039389,-0.21039389,1.3825614,84.972692,-462.76183)"
         style="fill:#333333;stroke:none"
         id="g5545">
        <path
           sodipodi:nodetypes="cssscccccscc"
           inkscape:connector-curvature="0"
           id="path5547"
           transform="translate(-1.775992e-5,1.5849045e-5)"
           style="fill:#333333;stroke:none"
           d="m 371.86845,518.3719 c 0,0 22.45257,10.65169 25.31802,13.09513 3.2491,2.77059 4.77826,4.19742 4.37612,8.37517 -0.54841,5.69722 -1.99304,12.07503 -4.50009,17.2203 -2.67864,5.49741 -8.75,13.8125 -8.75,13.8125 -0.18765,89.88979 -1.79287,27.2149 -1.79287,107.50333 l 57,0 -0.30088,-81.69083 18.375,-26.5625 c 0,0 7.58046,-9.46806 9.5,-15.09375 2.53908,-7.4414 1.65864,-13.37331 1.68733,-22.48407 z" />
        <path
           transform="matrix(0.80385035,-0.59483159,0.59483159,0.80385035,-831.18848,827.86975)"
           style="fill:#333333;stroke:none"
           d="m 1102.6786,333.25504 c 0,0 -0.3886,1.80873 -0.1786,2.67857 0.1629,0.67477 1.0714,1.78572 1.0714,1.78572 l 44.1072,18.75 c 0,0 2.2557,0.66937 3.3928,0.53571 1.0868,-0.12775 3.0357,-1.25 3.0357,-1.25 l 28.9286,-43.75 c 0,0 0.9918,-2.58929 0.8929,-3.92857 -0.085,-1.14648 -1.25,-3.21429 -1.25,-3.21429 l -33.2143,-26.42857 c 0,0 -2.3603,-0.79875 -3.5714,-0.71428 -1.2583,0.0878 -3.5715,1.25 -3.5715,1.25 z"
           id="path5549"
           inkscape:connector-curvature="0"
           sodipodi:nodetypes="csccsccsccscc" />
        <path
           transform="matrix(0.80385035,-0.59483159,0.59483159,0.80385035,-831.18848,827.86975)"
           style="fill:#333333;stroke:none"
           d="m 1161.7857,358.79075 c 0,0 -0.6872,1.90009 -0.5357,2.85715 0.1166,0.73665 1.0714,1.96428 1.0714,1.96428 l 25.8929,12.85715 c 0,0 2.8086,2.07055 3.5714,3.57142 0.8735,1.71866 0.8148,3.788 0.8929,5.71429 0.3265,8.05111 -1.7857,24.10714 -1.7857,24.10714 l 3.0357,0.35715 43.0357,-55.89286 c 0,0 0.9228,-1.98139 0.8928,-3.03572 -0.025,-0.88452 -0.8928,-2.5 -0.8928,-2.5 l -37.3214,-35.71428 c 0,0 -2.7129,-1.02999 -4.1072,-0.89286 -1.4857,0.14612 -4.1071,1.78572 -4.1071,1.78572 z"
           id="path5551"
           inkscape:connector-curvature="0"
           sodipodi:nodetypes="csccsscccsccscc" />
        <path
           inkscape:connector-curvature="0"
           style="fill:#800000;stroke:none"
           d="m 385.28125,373.3125 c 0,0 -1.81149,0.24989 -2.46875,0.8125 -0.57194,0.48963 -1.03125,2 -1.03125,2 l -0.875,111.6875 c 0,0 0.90378,1.89946 1.71875,2.5 0.85789,0.63213 3.0625,0.96875 3.0625,0.96875 l 35.28125,-7.9375 c 0,0 3.10522,-0.82355 4.28125,-1.84375 0.92691,-0.8041 1.9375,-3.15625 1.9375,-3.15625 0.62945,-6.9162 1.22326,-13.83307 1.84375,-20.75 l 7.71875,1.09375 -1.75,18.96875 1.09375,2.96875 2.625,1.28125 26.6875,4.6875 c 0,0 2.91309,-0.17881 4.03125,-1 1.01117,-0.74268 1.96875,-3.21875 1.96875,-3.21875 l 20.15625,-83.34375 c 0,0 0.022,-3.35689 -0.8125,-4.71875 C 490.14979,393.33294 488,392.25 488,392.25 l -40.59375,-9.96875 c 0,0 -1.72539,0.27742 -2.40625,0.78125 -0.68086,0.50382 -1.46875,2.09375 -1.46875,2.09375 l -4.90625,53.125 -7.84375,-0.25 c 1.54502,-17.54604 3.06759,-35.10009 4.5,-52.65625 0,0 -0.70796,-2.67896 -1.5,-3.78125 -0.5895,-0.82085 -2.3125,-1.96875 -2.3125,-1.96875 l -46.1875,-6.3125 z"
           id="path5553" />
        <path
           id="path5555"
           style="fill:#333333;stroke:none"
           d="m 378.55895,678.37834 -83.01448,0 2.08542,-70.27863 c 0,0 -0.80525,-5.87495 -1.52785,-8.35811 -0.61587,-2.11651 -4.45167,-4.89008 -4.45167,-4.89008 L 254.00112,578.763 c 0,0 -2.51492,-1.65126 -3.36567,-2.85022 -0.91032,-1.28231 -1.68897,-4.40508 -1.68897,-4.40508 l -2.52571,-113.58507 c 0,0 0.83854,-2.98091 1.86966,-4.05387 1.24184,-1.29222 4.78882,-2.44406 4.78882,-2.44406 l 90.7416,-20.0227 c 0,0 4.22624,-0.47281 6.21183,0.11579 6.26869,5.14985 14.34187,22.56979 15.15769,26.64001 -0.47895,1.66802 -1.57728,3.11819 -2.65529,4.47815 -7.14429,9.0129 -15.98448,16.61473 -24.87807,23.90702 -2.2467,1.84219 -4.50413,3.78772 -7.15384,4.97953 -2.95866,1.33076 -6.22525,2.03879 -9.45987,2.28768 -4.13336,0.31806 -8.30144,-0.37358 -12.39317,-1.03955 -3.89356,-0.63368 -7.58997,-3.33977 -11.49788,-2.80159 -1.00851,0.13888 -2.34127,0.5317 -2.6614,1.49813 -0.36604,1.10511 0.71998,2.26022 1.41894,3.19119 1.97384,2.62875 4.71137,4.67935 7.53527,6.36217 2.51805,1.50049 5.75118,1.57892 8.187,3.20953 1.37519,0.92067 3.00192,1.98626 3.43672,3.58304 0.46294,1.70037 -0.36079,3.60552 -1.2201,5.14401 -1.95062,3.49225 -6.24849,5.16794 -8.48961,8.48126 -0.79268,1.17194 -2.0166,2.53275 -1.6667,3.90368 0.23735,0.92999 2.26148,1.78232 2.26148,1.78232 l 37.49431,-10.46612 c 0,0 4.46241,-0.93016 6.69702,-0.71449 1.97751,0.19086 5.69623,1.75397 5.69623,1.75397 l 31.95977,15.72357 c 5.24363,3.92261 5.76784,5.8781 2.49359,15.93438 l -9.94295,16.86309 c 5e-5,36.62473 -1.79282,75.53482 -1.79287,112.15957 z"
           inkscape:connector-curvature="0"
           sodipodi:nodetypes="cccccccccsccccssssssccccccssccsccccc" />
      </g>
      <path
         inkscape:export-ydpi="72"
         inkscape:export-xdpi="72"
         inkscape:export-filename="/home/phosphor/Pictures/work/hackeriet/hax_fos_ny_txt2.png"
         sodipodi:nodetypes="cccccccccccccccccc"
         inkscape:connector-curvature="0"
         id="path5557"
         d="m 16.169942,17.453338 0,8 0,580.593702 0,8 8,0 939.406248,0 8,0 0,-8 0,-580.593702 0,-8 -8,0 -939.406248,0 z m 16,16 923.406248,0 0,454.975102 -923.406248,0 z"
         style="font-size:medium;font-style:normal;font-variant:normal;font-weight:normal;font-stretch:normal;text-indent:0;text-align:start;text-decoration:none;line-height:normal;letter-spacing:normal;word-spacing:normal;text-transform:none;direction:ltr;block-progression:tb;writing-mode:lr-tb;text-anchor:start;baseline-shift:baseline;color:#000000;fill:#333333;fill-opacity:1;stroke:none;stroke-width:16;marker:none;visibility:visible;display:inline;overflow:visible;enable-background:accumulate;font-family:Sans;-inkscape-font-specification:Sans" />
      <text
         inkscape:export-ydpi="72"
         inkscape:export-xdpi="72"
         inkscape:export-filename="/home/phosphor/Pictures/work/hackeriet/hax_fos_ny_txt2.png"
         sodipodi:linespacing="125%"
         id="text5559"
         y="587.31873"
         x="490.4194"
         style="font-size:126.27802277px;font-style:normal;font-variant:normal;font-weight:bold;font-stretch:normal;text-align:center;line-height:125%;letter-spacing:0px;word-spacing:0px;text-anchor:middle;fill:#ffffff;fill-opacity:1;stroke:none;font-family:Courier 10 Pitch;-inkscape-font-specification:Courier 10 Pitch Bold"
         xml:space="preserve"><tspan
           y="587.31873"
           x="490.41943"
           id="tspan5561"
           sodipodi:role="line">-hackeriet+</tspan></text>
    </g>
    <g
       id="g5563"
       transform="matrix(0.23179535,0,0,0.23179535,12.421824,465.40774)">
      <g
         style="fill:#333333"
         id="g5565"
         transform="matrix(0.90219022,0.25995235,-0.25995235,0.90219022,-602.44748,-382.81093)"
         inkscape:export-filename="/home/phosphor/Pictures/work/hackeriet/hax_fos_ny_txt2.png"
         inkscape:export-xdpi="72"
         inkscape:export-ydpi="72">
        <path
           style="fill:#333333;stroke:none"
           d="m 268.8125,119 -3,2.28125 -14.5,35.1875 -8.90625,3.6875 -27.03125,65.5 2.75,20.4375 -32.625,78.96875 1.28125,1.75 c 0,0 72.13542,-24.92537 109.375,-32.8125 7.28234,-1.54235 14.32705,-2.80581 21.125,-3.84375 l -1.6875,-68.71875 2.5,-8.90625 7.53125,-4.71875 -0.65625,-30.28125 c -11.2284,-6.07669 -21.47043,-14.11336 -30.4375,-23.1875 C 284.29039,143.98066 268.8125,119 268.8125,119 z m -7,57.625 5.1875,2.125 16.59375,39.9375 -4.9375,12 L 257,178.59375 z m 15.5,6.375 10.09375,4.15625 4.625,11.125 -4.15625,10.0625 z m -27.375,0.25 24.21875,58.3125 -1.625,3.9375 -5.71875,2.40625 -21.84375,-52.53125 z m -9.5,23.03125 17.625,42.5 -11.6875,-4.84375 -10.78125,-25.90625 z m 421.53125,21.375 -5.59375,23.625 63.625,7.53125 -0.90625,7.4375 -64.46875,-7.59375 -2.28125,9.65625 91.91116,10.92564 17.12108,-22.39965 5.40625,-7.25 1.3125,8.9375 6.25,43 29.59375,-39.65625 5.40625,-7.25 1.3125,8.9375 6.25,42.96875 12.0625,-16.1875 1.3125,-1.75 2.15625,0.28125 26.12401,3.78651 c 3.24357,-12.5243 15.35469,-21.05927 28.5625,-19.5 14.41893,1.70225 24.70224,14.7686 23,29.1875 -1.70224,14.4189 -14.76857,24.7335 -29.1875,23.03125 -13.09685,-1.54617 -22.79336,-12.45458 -23.1875,-25.25 l -24.03026,-3.56776 -16.21875,21.71875 -5.4375,7.28125 -1.3125,-8.9375 -6.25,-43 -29.5625,39.65625 -5.40625,7.28125 -1.3125,-8.96875 -6.25,-43.03125 -14.1815,18.984 -167.31949,-20.16624 -28.625,6.5625 164.0625,19.375 -0.875,7.4375 -185,-21.84375 -16.625,3.8125 L 504.375,278 l -0.75,-2.1875 -36.8125,-4.375 c -2.1112,1.72892 -4.27039,3.48782 -6.625,5.46875 -7.74673,6.51729 -25.0625,10 -25.0625,10 l -4.28125,4.875 441.125,59.46875 c 34.21098,4.75025 59.64027,-17.50657 63,-42.65625 3.37912,-25.29715 -16.82562,-55.27935 -49.875,-58.09375 z m -164.0625,12.5 c -2.15716,2.46823 -4.93932,5.57201 -8,8.96875 l 11.875,1.40625 -0.0937,-9.9375 -3.78125,-0.4375 z m -14.21875,15.8125 c -1.15623,1.22756 -2.27103,2.38562 -3.28125,3.40625 -1.98607,2.00653 -3.87419,3.76217 -5.75,5.4375 l 27.3125,3.21875 -0.0937,-9.90625 -18.1875,-2.15625 z"
           transform="matrix(1.0561618,-0.13756179,0.13756179,1.0561618,755.70275,151.68461)"
           id="path5567"
           inkscape:connector-curvature="0"
           sodipodi:nodetypes="ccccccccscccccsccccccccccccccccccccccccccccccccccccccccccsssccccccccccccccccccccscccccccccccccsccccc" />
        <path
           style="fill:#333333;stroke:none"
           d="m 988.33857,469.33254 23.40933,-87.36485 -6.0634,-22.62889 21.0727,-78.64426 9.2359,-5.33232 15.7074,-58.62086 c 0,0 -0.2805,-8.85931 -3.1401,-11.71893 -2.8332,-2.83323 -7.6383,-3.6341 -11.6108,-3.11111 -3.0791,0.40537 -8.0687,4.65844 -8.0687,4.65844 l -3.5468,13.23682 -22.3458,-5.98755 -42.43103,158.35492 -10.5124,10.51234 -10.6222,2.84622 -8.4812,8.48119 -82.5144,-22.10968 -3.9737,2.29419 c 0,0 4.0683,61.45926 48.9089,91.20654 43.6741,28.97338 82.8325,16.66751 82.8325,16.66751 0,0 5.9803,-1.88274 8.0813,-4.04061 2.2325,-2.29303 4.0625,-8.69911 4.0625,-8.69911 z"
           id="path5569"
           inkscape:connector-curvature="0"
           sodipodi:nodetypes="ccccccsscccccccccscsc" />
        <path
           style="fill:#333333;stroke:none"
           d="m 984.27607,253.52525 -16.6939,62.3022 -2.4067,4.16863 -91.8172,-24.60233 -1.9787,-7.38478 c 0,0 27.7054,-30.84049 55.3178,-40.2921 31.6221,-10.82413 54.2957,-4.79822 54.2957,-4.79822 0,0 2.4335,0.7621 3.0304,1.76776 1.5044,2.53466 0.2526,8.83884 0.2526,8.83884 z"
           id="path5571"
           inkscape:connector-curvature="0"
           sodipodi:nodetypes="cccccscsc" />
      </g>
      <g
         id="g5573"
         style="fill:#333333;stroke:none"
         transform="matrix(1.3825614,0.21039389,-0.21039389,1.3825614,84.972692,-462.76183)"
         inkscape:export-filename="/home/phosphor/Pictures/work/hackeriet/hax_fos_ny_txt2.png"
         inkscape:export-xdpi="72"
         inkscape:export-ydpi="72">
        <path
           d="m 371.86845,518.3719 c 0,0 22.45257,10.65169 25.31802,13.09513 3.2491,2.77059 4.77826,4.19742 4.37612,8.37517 -0.54841,5.69722 -1.99304,12.07503 -4.50009,17.2203 -2.67864,5.49741 -8.75,13.8125 -8.75,13.8125 -0.18765,89.88979 -1.79287,27.2149 -1.79287,107.50333 l 57,0 -0.30088,-81.69083 18.375,-26.5625 c 0,0 7.58046,-9.46806 9.5,-15.09375 2.53908,-7.4414 1.65864,-13.37331 1.68733,-22.48407 z"
           style="fill:#333333;stroke:none"
           transform="translate(-1.775992e-5,1.5849045e-5)"
           id="path5575"
           inkscape:connector-curvature="0"
           sodipodi:nodetypes="cssscccccscc" />
        <path
           sodipodi:nodetypes="csccsccsccscc"
           inkscape:connector-curvature="0"
           id="path5577"
           d="m 1102.6786,333.25504 c 0,0 -0.3886,1.80873 -0.1786,2.67857 0.1629,0.67477 1.0714,1.78572 1.0714,1.78572 l 44.1072,18.75 c 0,0 2.2557,0.66937 3.3928,0.53571 1.0868,-0.12775 3.0357,-1.25 3.0357,-1.25 l 28.9286,-43.75 c 0,0 0.9918,-2.58929 0.8929,-3.92857 -0.085,-1.14648 -1.25,-3.21429 -1.25,-3.21429 l -33.2143,-26.42857 c 0,0 -2.3603,-0.79875 -3.5714,-0.71428 -1.2583,0.0878 -3.5715,1.25 -3.5715,1.25 z"
           style="fill:#333333;stroke:none"
           transform="matrix(0.80385035,-0.59483159,0.59483159,0.80385035,-831.18848,827.86975)" />
        <path
           sodipodi:nodetypes="csccsscccsccscc"
           inkscape:connector-curvature="0"
           id="path5579"
           d="m 1161.7857,358.79075 c 0,0 -0.6872,1.90009 -0.5357,2.85715 0.1166,0.73665 1.0714,1.96428 1.0714,1.96428 l 25.8929,12.85715 c 0,0 2.8086,2.07055 3.5714,3.57142 0.8735,1.71866 0.8148,3.788 0.8929,5.71429 0.3265,8.05111 -1.7857,24.10714 -1.7857,24.10714 l 3.0357,0.35715 43.0357,-55.89286 c 0,0 0.9228,-1.98139 0.8928,-3.03572 -0.025,-0.88452 -0.8928,-2.5 -0.8928,-2.5 l -37.3214,-35.71428 c 0,0 -2.7129,-1.02999 -4.1072,-0.89286 -1.4857,0.14612 -4.1071,1.78572 -4.1071,1.78572 z"
           style="fill:#333333;stroke:none"
           transform="matrix(0.80385035,-0.59483159,0.59483159,0.80385035,-831.18848,827.86975)" />
        <path
           id="path5581"
           d="m 385.28125,373.3125 c 0,0 -1.81149,0.24989 -2.46875,0.8125 -0.57194,0.48963 -1.03125,2 -1.03125,2 l -0.875,111.6875 c 0,0 0.90378,1.89946 1.71875,2.5 0.85789,0.63213 3.0625,0.96875 3.0625,0.96875 l 35.28125,-7.9375 c 0,0 3.10522,-0.82355 4.28125,-1.84375 0.92691,-0.8041 1.9375,-3.15625 1.9375,-3.15625 0.62945,-6.9162 1.22326,-13.83307 1.84375,-20.75 l 7.71875,1.09375 -1.75,18.96875 1.09375,2.96875 2.625,1.28125 26.6875,4.6875 c 0,0 2.91309,-0.17881 4.03125,-1 1.01117,-0.74268 1.96875,-3.21875 1.96875,-3.21875 l 20.15625,-83.34375 c 0,0 0.022,-3.35689 -0.8125,-4.71875 C 490.14979,393.33294 488,392.25 488,392.25 l -40.59375,-9.96875 c 0,0 -1.72539,0.27742 -2.40625,0.78125 -0.68086,0.50382 -1.46875,2.09375 -1.46875,2.09375 l -4.90625,53.125 -7.84375,-0.25 c 1.54502,-17.54604 3.06759,-35.10009 4.5,-52.65625 0,0 -0.70796,-2.67896 -1.5,-3.78125 -0.5895,-0.82085 -2.3125,-1.96875 -2.3125,-1.96875 l -46.1875,-6.3125 z"
           style="fill:#800000;stroke:none"
           inkscape:connector-curvature="0" />
        <path
           sodipodi:nodetypes="cccccccccsccccssssssccccccssccsccccc"
           inkscape:connector-curvature="0"
           d="m 378.55895,678.37834 -83.01448,0 2.08542,-70.27863 c 0,0 -0.80525,-5.87495 -1.52785,-8.35811 -0.61587,-2.11651 -4.45167,-4.89008 -4.45167,-4.89008 L 254.00112,578.763 c 0,0 -2.51492,-1.65126 -3.36567,-2.85022 -0.91032,-1.28231 -1.68897,-4.40508 -1.68897,-4.40508 l -2.52571,-113.58507 c 0,0 0.83854,-2.98091 1.86966,-4.05387 1.24184,-1.29222 4.78882,-2.44406 4.78882,-2.44406 l 90.7416,-20.0227 c 0,0 4.22624,-0.47281 6.21183,0.11579 6.26869,5.14985 14.34187,22.56979 15.15769,26.64001 -0.47895,1.66802 -1.57728,3.11819 -2.65529,4.47815 -7.14429,9.0129 -15.98448,16.61473 -24.87807,23.90702 -2.2467,1.84219 -4.50413,3.78772 -7.15384,4.97953 -2.95866,1.33076 -6.22525,2.03879 -9.45987,2.28768 -4.13336,0.31806 -8.30144,-0.37358 -12.39317,-1.03955 -3.89356,-0.63368 -7.58997,-3.33977 -11.49788,-2.80159 -1.00851,0.13888 -2.34127,0.5317 -2.6614,1.49813 -0.36604,1.10511 0.71998,2.26022 1.41894,3.19119 1.97384,2.62875 4.71137,4.67935 7.53527,6.36217 2.51805,1.50049 5.75118,1.57892 8.187,3.20953 1.37519,0.92067 3.00192,1.98626 3.43672,3.58304 0.46294,1.70037 -0.36079,3.60552 -1.2201,5.14401 -1.95062,3.49225 -6.24849,5.16794 -8.48961,8.48126 -0.79268,1.17194 -2.0166,2.53275 -1.6667,3.90368 0.23735,0.92999 2.26148,1.78232 2.26148,1.78232 l 37.49431,-10.46612 c 0,0 4.46241,-0.93016 6.69702,-0.71449 1.97751,0.19086 5.69623,1.75397 5.69623,1.75397 l 31.95977,15.72357 c 5.24363,3.92261 5.76784,5.8781 2.49359,15.93438 l -9.94295,16.86309 c 5e-5,36.62473 -1.79282,75.53482 -1.79287,112.15957 z"
           style="fill:#333333;stroke:none"
           id="path5583" />
      </g>
      <path
         style="font-size:medium;font-style:normal;font-variant:normal;font-weight:normal;font-stretch:normal;text-indent:0;text-align:start;text-decoration:none;line-height:normal;letter-spacing:normal;word-spacing:normal;text-transform:none;direction:ltr;block-progression:tb;writing-mode:lr-tb;text-anchor:start;baseline-shift:baseline;color:#000000;fill:#333333;fill-opacity:1;stroke:none;stroke-width:16;marker:none;visibility:visible;display:inline;overflow:visible;enable-background:accumulate;font-family:Sans;-inkscape-font-specification:Sans"
         d="m 16.169942,17.453338 0,8 0,580.593702 0,8 8,0 939.406248,0 8,0 0,-8 0,-580.593702 0,-8 -8,0 -939.406248,0 z m 16,16 923.406248,0 0,454.975102 -923.406248,0 z"
         id="path5585"
         inkscape:connector-curvature="0"
         sodipodi:nodetypes="cccccccccccccccccc"
         inkscape:export-filename="/home/phosphor/Pictures/work/hackeriet/hax_fos_ny_txt2.png"
         inkscape:export-xdpi="72"
         inkscape:export-ydpi="72" />
      <text
         xml:space="preserve"
         style="font-size:126.27802277px;font-style:normal;font-variant:normal;font-weight:bold;font-stretch:normal;text-align:center;line-height:125%;letter-spacing:0px;word-spacing:0px;text-anchor:middle;fill:#ffffff;fill-opacity:1;stroke:none;font-family:Courier 10 Pitch;-inkscape-font-specification:Courier 10 Pitch Bold"
         x="490.4194"
         y="587.31873"
         id="text5587"
         sodipodi:linespacing="125%"
         inkscape:export-filename="/home/phosphor/Pictures/work/hackeriet/hax_fos_ny_txt2.png"
         inkscape:export-xdpi="72"
         inkscape:export-ydpi="72"><tspan
           sodipodi:role="line"
           id="tspan5589"
           x="490.41943"
           y="587.31873">-hackeriet+</tspan></text>
    </g>
    <rect
       style="fill:#800000;stroke:none"
       id="rect5619"
       width="267.6188"
       height="174.48303"
       x="242"
       y="468.36218"
       ry="0" />
    <g
       style="fill:#ffffff;stroke:none"
       id="g5593"
       transform="matrix(0.23474187,0.06763729,-0.06763729,0.23474187,89.924631,374.24173)"
       inkscape:export-filename="/home/phosphor/Pictures/work/hackeriet/hax_fos_ny_txt2.png"
       inkscape:export-xdpi="72"
       inkscape:export-ydpi="72">
      <path
         style="fill:#ffffff;stroke:none"
         d="m 268.8125,119 -3,2.28125 -14.5,35.1875 -8.90625,3.6875 -27.03125,65.5 2.75,20.4375 -32.625,78.96875 1.28125,1.75 c 0,0 72.13542,-24.92537 109.375,-32.8125 7.28234,-1.54235 14.32705,-2.80581 21.125,-3.84375 l -1.6875,-68.71875 2.5,-8.90625 7.53125,-4.71875 -0.65625,-30.28125 c -11.2284,-6.07669 -21.47043,-14.11336 -30.4375,-23.1875 C 284.29039,143.98066 268.8125,119 268.8125,119 z m -7,57.625 5.1875,2.125 16.59375,39.9375 -4.9375,12 L 257,178.59375 z m 15.5,6.375 10.09375,4.15625 4.625,11.125 -4.15625,10.0625 z m -27.375,0.25 24.21875,58.3125 -1.625,3.9375 -5.71875,2.40625 -21.84375,-52.53125 z m -9.5,23.03125 17.625,42.5 -11.6875,-4.84375 -10.78125,-25.90625 z m 421.53125,21.375 -5.59375,23.625 63.625,7.53125 -0.90625,7.4375 -64.46875,-7.59375 -2.28125,9.65625 91.91116,10.92564 17.12108,-22.39965 5.40625,-7.25 1.3125,8.9375 6.25,43 29.59375,-39.65625 5.40625,-7.25 1.3125,8.9375 6.25,42.96875 12.0625,-16.1875 1.3125,-1.75 2.15625,0.28125 26.12401,3.78651 c 3.24357,-12.5243 15.35469,-21.05927 28.5625,-19.5 14.41893,1.70225 24.70224,14.7686 23,29.1875 -1.70224,14.4189 -14.76857,24.7335 -29.1875,23.03125 -13.09685,-1.54617 -22.79336,-12.45458 -23.1875,-25.25 l -24.03026,-3.56776 -16.21875,21.71875 -5.4375,7.28125 -1.3125,-8.9375 -6.25,-43 -29.5625,39.65625 -5.40625,7.28125 -1.3125,-8.96875 -6.25,-43.03125 -14.1815,18.984 -167.31949,-20.16624 -28.625,6.5625 164.0625,19.375 -0.875,7.4375 -185,-21.84375 -16.625,3.8125 L 504.375,278 l -0.75,-2.1875 -36.8125,-4.375 c -2.1112,1.72892 -4.27039,3.48782 -6.625,5.46875 -7.74673,6.51729 -25.0625,10 -25.0625,10 l -4.28125,4.875 441.125,59.46875 c 34.21098,4.75025 59.64027,-17.50657 63,-42.65625 3.37912,-25.29715 -16.82562,-55.27935 -49.875,-58.09375 z m -164.0625,12.5 c -2.15716,2.46823 -4.93932,5.57201 -8,8.96875 l 11.875,1.40625 -0.0937,-9.9375 -3.78125,-0.4375 z m -14.21875,15.8125 c -1.15623,1.22756 -2.27103,2.38562 -3.28125,3.40625 -1.98607,2.00653 -3.87419,3.76217 -5.75,5.4375 l 27.3125,3.21875 -0.0937,-9.90625 -18.1875,-2.15625 z"
         transform="matrix(1.0561618,-0.13756179,0.13756179,1.0561618,755.70275,151.68461)"
         id="path5595"
         inkscape:connector-curvature="0"
         sodipodi:nodetypes="ccccccccscccccsccccccccccccccccccccccccccccccccccccccccccsssccccccccccccccccccccscccccccccccccsccccc" />
      <path
         style="fill:#ffffff;stroke:none"
         d="m 988.33857,469.33254 23.40933,-87.36485 -6.0634,-22.62889 21.0727,-78.64426 9.2359,-5.33232 15.7074,-58.62086 c 0,0 -0.2805,-8.85931 -3.1401,-11.71893 -2.8332,-2.83323 -7.6383,-3.6341 -11.6108,-3.11111 -3.0791,0.40537 -8.0687,4.65844 -8.0687,4.65844 l -3.5468,13.23682 -22.3458,-5.98755 -42.43103,158.35492 -10.5124,10.51234 -10.6222,2.84622 -8.4812,8.48119 -82.5144,-22.10968 -3.9737,2.29419 c 0,0 4.0683,61.45926 48.9089,91.20654 43.6741,28.97338 82.8325,16.66751 82.8325,16.66751 0,0 5.9803,-1.88274 8.0813,-4.04061 2.2325,-2.29303 4.0625,-8.69911 4.0625,-8.69911 z"
         id="path5597"
         inkscape:connector-curvature="0"
         sodipodi:nodetypes="ccccccsscccccccccscsc" />
      <path
         style="fill:#ffffff;stroke:none"
         d="m 984.27607,253.52525 -16.6939,62.3022 -2.4067,4.16863 -91.8172,-24.60233 -1.9787,-7.38478 c 0,0 27.7054,-30.84049 55.3178,-40.2921 31.6221,-10.82413 54.2957,-4.79822 54.2957,-4.79822 0,0 2.4335,0.7621 3.0304,1.76776 1.5044,2.53466 0.2526,8.83884 0.2526,8.83884 z"
         id="path5599"
         inkscape:connector-curvature="0"
         sodipodi:nodetypes="cccccscsc" />
    </g>
    <g
       id="g5601"
       style="fill:#ffffff;stroke:none"
       transform="matrix(0.35973019,0.05474262,-0.05474262,0.35973019,268.78525,353.43922)"
       inkscape:export-filename="/home/phosphor/Pictures/work/hackeriet/hax_fos_ny_txt2.png"
       inkscape:export-xdpi="72"
       inkscape:export-ydpi="72">
      <path
         d="m 371.86845,518.3719 c 0,0 22.45257,10.65169 25.31802,13.09513 3.2491,2.77059 4.77826,4.19742 4.37612,8.37517 -0.54841,5.69722 -1.99304,12.07503 -4.50009,17.2203 -2.67864,5.49741 -8.75,13.8125 -8.75,13.8125 -0.18765,89.88979 -1.79287,27.2149 -1.79287,107.50333 l 57,0 -0.30088,-81.69083 18.375,-26.5625 c 0,0 7.58046,-9.46806 9.5,-15.09375 2.53908,-7.4414 1.65864,-13.37331 1.68733,-22.48407 z"
         style="fill:#ffffff;stroke:none"
         transform="translate(-1.775992e-5,1.5849045e-5)"
         id="path5603"
         inkscape:connector-curvature="0"
         sodipodi:nodetypes="cssscccccscc" />
      <path
         sodipodi:nodetypes="csccsccsccscc"
         inkscape:connector-curvature="0"
         id="path5605"
         d="m 1102.6786,333.25504 c 0,0 -0.3886,1.80873 -0.1786,2.67857 0.1629,0.67477 1.0714,1.78572 1.0714,1.78572 l 44.1072,18.75 c 0,0 2.2557,0.66937 3.3928,0.53571 1.0868,-0.12775 3.0357,-1.25 3.0357,-1.25 l 28.9286,-43.75 c 0,0 0.9918,-2.58929 0.8929,-3.92857 -0.085,-1.14648 -1.25,-3.21429 -1.25,-3.21429 l -33.2143,-26.42857 c 0,0 -2.3603,-0.79875 -3.5714,-0.71428 -1.2583,0.0878 -3.5715,1.25 -3.5715,1.25 z"
         style="fill:#ffffff;stroke:none"
         transform="matrix(0.80385035,-0.59483159,0.59483159,0.80385035,-831.18848,827.86975)" />
      <path
         sodipodi:nodetypes="csccsscccsccscc"
         inkscape:connector-curvature="0"
         id="path5607"
         d="m 1161.7857,358.79075 c 0,0 -0.6872,1.90009 -0.5357,2.85715 0.1166,0.73665 1.0714,1.96428 1.0714,1.96428 l 25.8929,12.85715 c 0,0 2.8086,2.07055 3.5714,3.57142 0.8735,1.71866 0.8148,3.788 0.8929,5.71429 0.3265,8.05111 -1.7857,24.10714 -1.7857,24.10714 l 3.0357,0.35715 43.0357,-55.89286 c 0,0 0.9228,-1.98139 0.8928,-3.03572 -0.025,-0.88452 -0.8928,-2.5 -0.8928,-2.5 l -37.3214,-35.71428 c 0,0 -2.7129,-1.02999 -4.1072,-0.89286 -1.4857,0.14612 -4.1071,1.78572 -4.1071,1.78572 z"
         style="fill:#ffffff;stroke:none"
         transform="matrix(0.80385035,-0.59483159,0.59483159,0.80385035,-831.18848,827.86975)" />
      <path
         id="path5609"
         d="m 385.28125,373.3125 c 0,0 -1.81149,0.24989 -2.46875,0.8125 -0.57194,0.48963 -1.03125,2 -1.03125,2 l -0.875,111.6875 c 0,0 0.90378,1.89946 1.71875,2.5 0.85789,0.63213 3.0625,0.96875 3.0625,0.96875 l 35.28125,-7.9375 c 0,0 3.10522,-0.82355 4.28125,-1.84375 0.92691,-0.8041 1.9375,-3.15625 1.9375,-3.15625 0.62945,-6.9162 1.22326,-13.83307 1.84375,-20.75 l 7.71875,1.09375 -1.75,18.96875 1.09375,2.96875 2.625,1.28125 26.6875,4.6875 c 0,0 2.91309,-0.17881 4.03125,-1 1.01117,-0.74268 1.96875,-3.21875 1.96875,-3.21875 l 20.15625,-83.34375 c 0,0 0.022,-3.35689 -0.8125,-4.71875 C 490.14979,393.33294 488,392.25 488,392.25 l -40.59375,-9.96875 c 0,0 -1.72539,0.27742 -2.40625,0.78125 -0.68086,0.50382 -1.46875,2.09375 -1.46875,2.09375 l -4.90625,53.125 -7.84375,-0.25 c 1.54502,-17.54604 3.06759,-35.10009 4.5,-52.65625 0,0 -0.70796,-2.67896 -1.5,-3.78125 -0.5895,-0.82085 -2.3125,-1.96875 -2.3125,-1.96875 l -46.1875,-6.3125 z"
         style="fill:#ffffff;stroke:none"
         inkscape:connector-curvature="0" />
      <path
         sodipodi:nodetypes="cccccccccsccccssssssccccccssccsccccc"
         inkscape:connector-curvature="0"
         d="m 378.55895,678.37834 -83.01448,0 2.08542,-70.27863 c 0,0 -0.80525,-5.87495 -1.52785,-8.35811 -0.61587,-2.11651 -4.45167,-4.89008 -4.45167,-4.89008 L 254.00112,578.763 c 0,0 -2.51492,-1.65126 -3.36567,-2.85022 -0.91032,-1.28231 -1.68897,-4.40508 -1.68897,-4.40508 l -2.52571,-113.58507 c 0,0 0.83854,-2.98091 1.86966,-4.05387 1.24184,-1.29222 4.78882,-2.44406 4.78882,-2.44406 l 90.7416,-20.0227 c 0,0 4.22624,-0.47281 6.21183,0.11579 6.26869,5.14985 14.34187,22.56979 15.15769,26.64001 -0.47895,1.66802 -1.57728,3.11819 -2.65529,4.47815 -7.14429,9.0129 -15.98448,16.61473 -24.87807,23.90702 -2.2467,1.84219 -4.50413,3.78772 -7.15384,4.97953 -2.95866,1.33076 -6.22525,2.03879 -9.45987,2.28768 -4.13336,0.31806 -8.30144,-0.37358 -12.39317,-1.03955 -3.89356,-0.63368 -7.58997,-3.33977 -11.49788,-2.80159 -1.00851,0.13888 -2.34127,0.5317 -2.6614,1.49813 -0.36604,1.10511 0.71998,2.26022 1.41894,3.19119 1.97384,2.62875 4.71137,4.67935 7.53527,6.36217 2.51805,1.50049 5.75118,1.57892 8.187,3.20953 1.37519,0.92067 3.00192,1.98626 3.43672,3.58304 0.46294,1.70037 -0.36079,3.60552 -1.2201,5.14401 -1.95062,3.49225 -6.24849,5.16794 -8.48961,8.48126 -0.79268,1.17194 -2.0166,2.53275 -1.6667,3.90368 0.23735,0.92999 2.26148,1.78232 2.26148,1.78232 l 37.49431,-10.46612 c 0,0 4.46241,-0.93016 6.69702,-0.71449 1.97751,0.19086 5.69623,1.75397 5.69623,1.75397 l 31.95977,15.72357 c 5.24363,3.92261 5.76784,5.8781 2.49359,15.93438 l -9.94295,16.86309 c 5e-5,36.62473 -1.79282,75.53482 -1.79287,112.15957 z"
         style="fill:#ffffff;stroke:none"
         id="path5611" />
    </g>
    <path
       style="font-size:medium;font-style:normal;font-variant:normal;font-weight:normal;font-stretch:normal;text-indent:0;text-align:start;text-decoration:none;line-height:normal;letter-spacing:normal;word-spacing:normal;text-transform:none;direction:ltr;block-progression:tb;writing-mode:lr-tb;text-anchor:start;baseline-shift:baseline;color:#000000;fill:#ffffff;fill-opacity:1;stroke:none;stroke-width:16;marker:none;visibility:visible;display:inline;overflow:visible;enable-background:accumulate;font-family:Sans;-inkscape-font-specification:Sans"
       d="m 250.88339,478.38693 0,2.08153 0,151.06532 0,2.08153 2.08152,0 244.42516,0 2.08153,0 0,-2.08153 0,-151.06532 0,-2.08153 -2.08153,0 -244.42516,0 z m 4.16305,4.16306 240.2621,0 0,118.38048 -240.2621,0 z"
       id="path5613"
       inkscape:connector-curvature="0"
       sodipodi:nodetypes="cccccccccccccccccc"
       inkscape:export-filename="/home/phosphor/Pictures/work/hackeriet/hax_fos_ny_txt2.png"
       inkscape:export-xdpi="72"
       inkscape:export-ydpi="72" />
    <text
       xml:space="preserve"
       style="font-size:32.85641861px;font-style:normal;font-variant:normal;font-weight:bold;font-stretch:normal;text-align:center;line-height:125%;letter-spacing:0px;word-spacing:0px;text-anchor:middle;fill:#800000;fill-opacity:1;stroke:none;font-family:Courier 10 Pitch;-inkscape-font-specification:Courier 10 Pitch Bold"
       x="374.27887"
       y="626.66083"
       id="text5615"
       sodipodi:linespacing="125%"
       inkscape:export-filename="/home/phosphor/Pictures/work/hackeriet/hax_fos_ny_txt2.png"
       inkscape:export-xdpi="72"
       inkscape:export-ydpi="72"><tspan
         sodipodi:role="line"
         id="tspan5617"
         x="374.2789"
         y="626.66083">-hackeriet+</tspan></text>
    <rect
       ry="0"
       y="470.36218"
       x="514"
       height="138"
       width="216"
       id="rect5621"
       style="fill:#dde9af;stroke:none" />
    <g
       inkscape:export-ydpi="72"
       inkscape:export-xdpi="72"
       inkscape:export-filename="/home/phosphor/Pictures/work/hackeriet/hax_fos_ny_txt2.png"
       transform="matrix(0.18946444,0.05459129,-0.05459129,0.18946444,391.2572,392.39585)"
       id="g5625"
       style="fill:#008000">
      <path
         sodipodi:nodetypes="ccccccccscccccsccccccccccccccccccccccccccccccccccccccccccsssccccccccccccccccccccscccccccccccccsccccc"
         inkscape:connector-curvature="0"
         id="path5627"
         transform="matrix(1.0561618,-0.13756179,0.13756179,1.0561618,755.70275,151.68461)"
         d="m 268.8125,119 -3,2.28125 -14.5,35.1875 -8.90625,3.6875 -27.03125,65.5 2.75,20.4375 -32.625,78.96875 1.28125,1.75 c 0,0 72.13542,-24.92537 109.375,-32.8125 7.28234,-1.54235 14.32705,-2.80581 21.125,-3.84375 l -1.6875,-68.71875 2.5,-8.90625 7.53125,-4.71875 -0.65625,-30.28125 c -11.2284,-6.07669 -21.47043,-14.11336 -30.4375,-23.1875 C 284.29039,143.98066 268.8125,119 268.8125,119 z m -7,57.625 5.1875,2.125 16.59375,39.9375 -4.9375,12 L 257,178.59375 z m 15.5,6.375 10.09375,4.15625 4.625,11.125 -4.15625,10.0625 z m -27.375,0.25 24.21875,58.3125 -1.625,3.9375 -5.71875,2.40625 -21.84375,-52.53125 z m -9.5,23.03125 17.625,42.5 -11.6875,-4.84375 -10.78125,-25.90625 z m 421.53125,21.375 -5.59375,23.625 63.625,7.53125 -0.90625,7.4375 -64.46875,-7.59375 -2.28125,9.65625 91.91116,10.92564 17.12108,-22.39965 5.40625,-7.25 1.3125,8.9375 6.25,43 29.59375,-39.65625 5.40625,-7.25 1.3125,8.9375 6.25,42.96875 12.0625,-16.1875 1.3125,-1.75 2.15625,0.28125 26.12401,3.78651 c 3.24357,-12.5243 15.35469,-21.05927 28.5625,-19.5 14.41893,1.70225 24.70224,14.7686 23,29.1875 -1.70224,14.4189 -14.76857,24.7335 -29.1875,23.03125 -13.09685,-1.54617 -22.79336,-12.45458 -23.1875,-25.25 l -24.03026,-3.56776 -16.21875,21.71875 -5.4375,7.28125 -1.3125,-8.9375 -6.25,-43 -29.5625,39.65625 -5.40625,7.28125 -1.3125,-8.96875 -6.25,-43.03125 -14.1815,18.984 -167.31949,-20.16624 -28.625,6.5625 164.0625,19.375 -0.875,7.4375 -185,-21.84375 -16.625,3.8125 L 504.375,278 l -0.75,-2.1875 -36.8125,-4.375 c -2.1112,1.72892 -4.27039,3.48782 -6.625,5.46875 -7.74673,6.51729 -25.0625,10 -25.0625,10 l -4.28125,4.875 441.125,59.46875 c 34.21098,4.75025 59.64027,-17.50657 63,-42.65625 3.37912,-25.29715 -16.82562,-55.27935 -49.875,-58.09375 z m -164.0625,12.5 c -2.15716,2.46823 -4.93932,5.57201 -8,8.96875 l 11.875,1.40625 -0.0937,-9.9375 -3.78125,-0.4375 z m -14.21875,15.8125 c -1.15623,1.22756 -2.27103,2.38562 -3.28125,3.40625 -1.98607,2.00653 -3.87419,3.76217 -5.75,5.4375 l 27.3125,3.21875 -0.0937,-9.90625 -18.1875,-2.15625 z"
         style="fill:#008000;stroke:none" />
      <path
         sodipodi:nodetypes="ccccccsscccccccccscsc"
         inkscape:connector-curvature="0"
         id="path5629"
         d="m 988.33857,469.33254 23.40933,-87.36485 -6.0634,-22.62889 21.0727,-78.64426 9.2359,-5.33232 15.7074,-58.62086 c 0,0 -0.2805,-8.85931 -3.1401,-11.71893 -2.8332,-2.83323 -7.6383,-3.6341 -11.6108,-3.11111 -3.0791,0.40537 -8.0687,4.65844 -8.0687,4.65844 l -3.5468,13.23682 -22.3458,-5.98755 -42.43103,158.35492 -10.5124,10.51234 -10.6222,2.84622 -8.4812,8.48119 -82.5144,-22.10968 -3.9737,2.29419 c 0,0 4.0683,61.45926 48.9089,91.20654 43.6741,28.97338 82.8325,16.66751 82.8325,16.66751 0,0 5.9803,-1.88274 8.0813,-4.04061 2.2325,-2.29303 4.0625,-8.69911 4.0625,-8.69911 z"
         style="fill:#008000;stroke:none" />
      <path
         sodipodi:nodetypes="cccccscsc"
         inkscape:connector-curvature="0"
         id="path5631"
         d="m 984.27607,253.52525 -16.6939,62.3022 -2.4067,4.16863 -91.8172,-24.60233 -1.9787,-7.38478 c 0,0 27.7054,-30.84049 55.3178,-40.2921 31.6221,-10.82413 54.2957,-4.79822 54.2957,-4.79822 0,0 2.4335,0.7621 3.0304,1.76776 1.5044,2.53466 0.2526,8.83884 0.2526,8.83884 z"
         style="fill:#008000;stroke:none" />
    </g>
    <g
       inkscape:export-ydpi="72"
       inkscape:export-xdpi="72"
       inkscape:export-filename="/home/phosphor/Pictures/work/hackeriet/hax_fos_ny_txt2.png"
       transform="matrix(0.29034478,0.04418376,-0.04418376,0.29034478,535.61886,375.60576)"
       style="fill:#008000;stroke:none"
       id="g5633">
      <path
         sodipodi:nodetypes="cssscccccscc"
         inkscape:connector-curvature="0"
         id="path5635"
         transform="translate(-1.775992e-5,1.5849045e-5)"
         style="fill:#008000;stroke:none"
         d="m 371.86845,518.3719 c 0,0 22.45257,10.65169 25.31802,13.09513 3.2491,2.77059 4.77826,4.19742 4.37612,8.37517 -0.54841,5.69722 -1.99304,12.07503 -4.50009,17.2203 -2.67864,5.49741 -8.75,13.8125 -8.75,13.8125 -0.18765,89.88979 -1.79287,27.2149 -1.79287,107.50333 l 57,0 -0.30088,-81.69083 18.375,-26.5625 c 0,0 7.58046,-9.46806 9.5,-15.09375 2.53908,-7.4414 1.65864,-13.37331 1.68733,-22.48407 z" />
      <path
         transform="matrix(0.80385035,-0.59483159,0.59483159,0.80385035,-831.18848,827.86975)"
         style="fill:#008000;stroke:none"
         d="m 1102.6786,333.25504 c 0,0 -0.3886,1.80873 -0.1786,2.67857 0.1629,0.67477 1.0714,1.78572 1.0714,1.78572 l 44.1072,18.75 c 0,0 2.2557,0.66937 3.3928,0.53571 1.0868,-0.12775 3.0357,-1.25 3.0357,-1.25 l 28.9286,-43.75 c 0,0 0.9918,-2.58929 0.8929,-3.92857 -0.085,-1.14648 -1.25,-3.21429 -1.25,-3.21429 l -33.2143,-26.42857 c 0,0 -2.3603,-0.79875 -3.5714,-0.71428 -1.2583,0.0878 -3.5715,1.25 -3.5715,1.25 z"
         id="path5637"
         inkscape:connector-curvature="0"
         sodipodi:nodetypes="csccsccsccscc" />
      <path
         transform="matrix(0.80385035,-0.59483159,0.59483159,0.80385035,-831.18848,827.86975)"
         style="fill:#008000;stroke:none"
         d="m 1161.7857,358.79075 c 0,0 -0.6872,1.90009 -0.5357,2.85715 0.1166,0.73665 1.0714,1.96428 1.0714,1.96428 l 25.8929,12.85715 c 0,0 2.8086,2.07055 3.5714,3.57142 0.8735,1.71866 0.8148,3.788 0.8929,5.71429 0.3265,8.05111 -1.7857,24.10714 -1.7857,24.10714 l 3.0357,0.35715 43.0357,-55.89286 c 0,0 0.9228,-1.98139 0.8928,-3.03572 -0.025,-0.88452 -0.8928,-2.5 -0.8928,-2.5 l -37.3214,-35.71428 c 0,0 -2.7129,-1.02999 -4.1072,-0.89286 -1.4857,0.14612 -4.1071,1.78572 -4.1071,1.78572 z"
         id="path5639"
         inkscape:connector-curvature="0"
         sodipodi:nodetypes="csccsscccsccscc" />
      <path
         inkscape:connector-curvature="0"
         style="fill:#800000;stroke:none"
         d="m 385.28125,373.3125 c 0,0 -1.81149,0.24989 -2.46875,0.8125 -0.57194,0.48963 -1.03125,2 -1.03125,2 l -0.875,111.6875 c 0,0 0.90378,1.89946 1.71875,2.5 0.85789,0.63213 3.0625,0.96875 3.0625,0.96875 l 35.28125,-7.9375 c 0,0 3.10522,-0.82355 4.28125,-1.84375 0.92691,-0.8041 1.9375,-3.15625 1.9375,-3.15625 0.62945,-6.9162 1.22326,-13.83307 1.84375,-20.75 l 7.71875,1.09375 -1.75,18.96875 1.09375,2.96875 2.625,1.28125 26.6875,4.6875 c 0,0 2.91309,-0.17881 4.03125,-1 1.01117,-0.74268 1.96875,-3.21875 1.96875,-3.21875 l 20.15625,-83.34375 c 0,0 0.022,-3.35689 -0.8125,-4.71875 C 490.14979,393.33294 488,392.25 488,392.25 l -40.59375,-9.96875 c 0,0 -1.72539,0.27742 -2.40625,0.78125 -0.68086,0.50382 -1.46875,2.09375 -1.46875,2.09375 l -4.90625,53.125 -7.84375,-0.25 c 1.54502,-17.54604 3.06759,-35.10009 4.5,-52.65625 0,0 -0.70796,-2.67896 -1.5,-3.78125 -0.5895,-0.82085 -2.3125,-1.96875 -2.3125,-1.96875 l -46.1875,-6.3125 z"
         id="path5641" />
      <path
         id="path5643"
         style="fill:#008000;stroke:none"
         d="m 378.55895,678.37834 -83.01448,0 2.08542,-70.27863 c 0,0 -0.80525,-5.87495 -1.52785,-8.35811 -0.61587,-2.11651 -4.45167,-4.89008 -4.45167,-4.89008 L 254.00112,578.763 c 0,0 -2.51492,-1.65126 -3.36567,-2.85022 -0.91032,-1.28231 -1.68897,-4.40508 -1.68897,-4.40508 l -2.52571,-113.58507 c 0,0 0.83854,-2.98091 1.86966,-4.05387 1.24184,-1.29222 4.78882,-2.44406 4.78882,-2.44406 l 90.7416,-20.0227 c 0,0 4.22624,-0.47281 6.21183,0.11579 6.26869,5.14985 14.34187,22.56979 15.15769,26.64001 -0.47895,1.66802 -1.57728,3.11819 -2.65529,4.47815 -7.14429,9.0129 -15.98448,16.61473 -24.87807,23.90702 -2.2467,1.84219 -4.50413,3.78772 -7.15384,4.97953 -2.95866,1.33076 -6.22525,2.03879 -9.45987,2.28768 -4.13336,0.31806 -8.30144,-0.37358 -12.39317,-1.03955 -3.89356,-0.63368 -7.58997,-3.33977 -11.49788,-2.80159 -1.00851,0.13888 -2.34127,0.5317 -2.6614,1.49813 -0.36604,1.10511 0.71998,2.26022 1.41894,3.19119 1.97384,2.62875 4.71137,4.67935 7.53527,6.36217 2.51805,1.50049 5.75118,1.57892 8.187,3.20953 1.37519,0.92067 3.00192,1.98626 3.43672,3.58304 0.46294,1.70037 -0.36079,3.60552 -1.2201,5.14401 -1.95062,3.49225 -6.24849,5.16794 -8.48961,8.48126 -0.79268,1.17194 -2.0166,2.53275 -1.6667,3.90368 0.23735,0.92999 2.26148,1.78232 2.26148,1.78232 l 37.49431,-10.46612 c 0,0 4.46241,-0.93016 6.69702,-0.71449 1.97751,0.19086 5.69623,1.75397 5.69623,1.75397 l 31.95977,15.72357 c 5.24363,3.92261 5.76784,5.8781 2.49359,15.93438 l -9.94295,16.86309 c 5e-5,36.62473 -1.79282,75.53482 -1.79287,112.15957 z"
         inkscape:connector-curvature="0"
         sodipodi:nodetypes="cccccccccsccccssssssccccccssccsccccc" />
    </g>
    <path
       inkscape:export-ydpi="72"
       inkscape:export-xdpi="72"
       inkscape:export-filename="/home/phosphor/Pictures/work/hackeriet/hax_fos_ny_txt2.png"
       sodipodi:nodetypes="cccccccccccccccccc"
       inkscape:connector-curvature="0"
       id="path5645"
       d="m 521.16994,476.45334 0,1.68004 0,121.92757 0,1.68004 1.68004,0 197.27999,0 1.68004,0 0,-1.68004 0,-121.92757 0,-1.68004 -1.68004,0 -197.27999,0 z m 3.36008,3.36008 193.91991,0 0,95.54703 -193.91991,0 z"
       style="font-size:medium;font-style:normal;font-variant:normal;font-weight:normal;font-stretch:normal;text-indent:0;text-align:start;text-decoration:none;line-height:normal;letter-spacing:normal;word-spacing:normal;text-transform:none;direction:ltr;block-progression:tb;writing-mode:lr-tb;text-anchor:start;baseline-shift:baseline;color:#000000;fill:#008000;fill-opacity:1;stroke:none;stroke-width:16;marker:none;visibility:visible;display:inline;overflow:visible;enable-background:accumulate;font-family:Sans;-inkscape-font-specification:Sans" />
    <text
       inkscape:export-ydpi="72"
       inkscape:export-xdpi="72"
       inkscape:export-filename="/home/phosphor/Pictures/work/hackeriet/hax_fos_ny_txt2.png"
       sodipodi:linespacing="125%"
       id="text5647"
       y="596.12793"
       x="620.76471"
       style="font-size:26.51901435999999990px;font-style:normal;font-variant:normal;font-weight:bold;font-stretch:normal;text-align:center;line-height:125%;letter-spacing:0px;word-spacing:0px;text-anchor:middle;fill:#dde9af;fill-opacity:1;stroke:none;font-family:Courier 10 Pitch;-inkscape-font-specification:Courier 10 Pitch Bold"
       xml:space="preserve"><tspan
         y="596.12793"
         x="620.76471"
         id="tspan5649"
         sodipodi:role="line">-hackeriet+</tspan></text>
    <g
       style="fill:#333333"
       id="g5677"
       transform="matrix(0.69560005,0.08787135,-0.08787135,0.69560005,-495.54996,1284.5332)"
       inkscape:export-filename="/home/phosphor/Pictures/work/hackeriet/hax_fos_ny_txt2.png"
       inkscape:export-xdpi="72"
       inkscape:export-ydpi="72">
      <path
         style="fill:#333333;stroke:none"
         d="m 268.8125,119 -3,2.28125 -14.5,35.1875 -8.90625,3.6875 -27.03125,65.5 2.75,20.4375 -32.625,78.96875 1.28125,1.75 c 0,0 72.13542,-24.92537 109.375,-32.8125 7.28234,-1.54235 14.32705,-2.80581 21.125,-3.84375 l -1.6875,-68.71875 2.5,-8.90625 7.53125,-4.71875 -0.65625,-30.28125 c -11.2284,-6.07669 -21.47043,-14.11336 -30.4375,-23.1875 C 284.29039,143.98066 268.8125,119 268.8125,119 z m -7,57.625 5.1875,2.125 16.59375,39.9375 -4.9375,12 L 257,178.59375 z m 15.5,6.375 10.09375,4.15625 4.625,11.125 -4.15625,10.0625 z m -27.375,0.25 24.21875,58.3125 -1.625,3.9375 -5.71875,2.40625 -21.84375,-52.53125 z m -9.5,23.03125 17.625,42.5 -11.6875,-4.84375 -10.78125,-25.90625 z m 421.53125,21.375 -5.59375,23.625 22.57419,3.30228 -0.90625,7.4375 -23.41794,-3.36478 -2.28125,9.65625 50.86035,6.69667 17.12108,-22.39965 5.40625,-7.25 1.3125,8.9375 6.25,43 29.59375,-39.65625 5.40625,-7.25 1.3125,8.9375 6.25,42.96875 12.0625,-16.1875 1.3125,-1.75 2.15625,0.28125 26.12401,3.78651 c 3.24357,-12.5243 15.35469,-21.05927 28.5625,-19.5 14.41893,1.70225 24.70224,14.7686 23,29.1875 -1.70224,14.4189 -14.76857,24.7335 -29.1875,23.03125 -13.09685,-1.54617 -22.79336,-12.45458 -23.1875,-25.25 l -24.03026,-3.56776 -16.21875,21.71875 -5.4375,7.28125 -1.3125,-8.9375 -6.25,-43 -29.5625,39.65625 -5.40625,7.28125 -1.3125,-8.96875 -6.25,-43.03125 -14.1815,18.984 -126.26868,-15.93727 -28.625,6.5625 123.01169,15.14603 -0.875,7.4375 -143.94919,-17.61478 -16.625,3.8125 L 504.375,278 l -0.75,-2.1875 -36.8125,-4.375 c -2.1112,1.72892 -4.27039,3.48782 -6.625,5.46875 -7.74673,6.51729 -25.0625,10 -25.0625,10 l -4.28125,4.875 400.07419,55.23978 c 34.21098,4.75025 59.64027,-17.50657 63,-42.65625 3.37912,-25.29715 -16.82562,-55.27935 -49.875,-58.09375 z m -164.0625,12.5 c -2.15716,2.46823 -4.93932,5.57201 -8,8.96875 l 11.875,1.40625 -0.0937,-9.9375 -3.78125,-0.4375 z m -14.21875,15.8125 c -1.15623,1.22756 -2.27103,2.38562 -3.28125,3.40625 -1.98607,2.00653 -3.87419,3.76217 -5.75,5.4375 l 27.3125,3.21875 -0.0937,-9.90625 -18.1875,-2.15625 z"
         transform="matrix(1.0561618,-0.13756179,0.13756179,1.0561618,755.70275,151.68461)"
         id="path5679"
         inkscape:connector-curvature="0"
         sodipodi:nodetypes="ccccccccscccccsccccccccccccccccccccccccccccccccccccccccccsssccccccccccccccccccccscccccccccccccsccccc" />
      <path
         style="fill:#333333;stroke:none"
         d="m 988.33857,469.33254 23.40933,-87.36485 -6.0634,-22.62889 21.0727,-78.64426 9.2359,-5.33232 15.7074,-58.62086 c 0,0 -0.2805,-8.85931 -3.1401,-11.71893 -2.8332,-2.83323 -7.6383,-3.6341 -11.6108,-3.11111 -3.0791,0.40537 -8.0687,4.65844 -8.0687,4.65844 l -3.5468,13.23682 -22.3458,-5.98755 -42.43103,158.35492 -10.5124,10.51234 -10.6222,2.84622 -8.4812,8.48119 -82.5144,-22.10968 -3.9737,2.29419 c 0,0 4.0683,61.45926 48.9089,91.20654 43.6741,28.97338 82.8325,16.66751 82.8325,16.66751 0,0 5.9803,-1.88274 8.0813,-4.04061 2.2325,-2.29303 4.0625,-8.69911 4.0625,-8.69911 z"
         id="path5681"
         inkscape:connector-curvature="0"
         sodipodi:nodetypes="ccccccsscccccccccscsc" />
      <path
         style="fill:#333333;stroke:none"
         d="m 984.27607,253.52525 -16.6939,62.3022 -2.4067,4.16863 -91.8172,-24.60233 -1.9787,-7.38478 c 0,0 27.7054,-30.84049 55.3178,-40.2921 31.6221,-10.82413 54.2957,-4.79822 54.2957,-4.79822 0,0 2.4335,0.7621 3.0304,1.76776 1.5044,2.53466 0.2526,8.83884 0.2526,8.83884 z"
         id="path5683"
         inkscape:connector-curvature="0"
         sodipodi:nodetypes="cccccscsc" />
    </g>
    <g
       id="g5685"
       style="fill:#333333;stroke:none"
       transform="matrix(1.0443192,-0.00402987,0.00402987,1.0443192,2.43335,1146.357)"
       inkscape:export-filename="/home/phosphor/Pictures/work/hackeriet/hax_fos_ny_txt2.png"
       inkscape:export-xdpi="72"
       inkscape:export-ydpi="72">
      <path
         d="m 371.86845,518.3719 c 0,0 22.45257,10.65169 25.31802,13.09513 3.2491,2.77059 4.77826,4.19742 4.37612,8.37517 -0.54841,5.69722 -1.99304,12.07503 -4.50009,17.2203 -2.67864,5.49741 -8.75,13.8125 -8.75,13.8125 -0.18765,89.88979 -1.86005,67.3469 -1.86005,147.63533 l 57,0 -0.2337,-121.82283 18.375,-26.5625 c 0,0 7.58046,-9.46806 9.5,-15.09375 2.53908,-7.4414 1.65864,-13.37331 1.68733,-22.48407 z"
         style="fill:#333333;stroke:none"
         transform="translate(-1.775992e-5,1.5849045e-5)"
         id="path5687"
         inkscape:connector-curvature="0"
         sodipodi:nodetypes="cssscccccscc" />
      <path
         sodipodi:nodetypes="csccsccsccscc"
         inkscape:connector-curvature="0"
         id="path5689"
         d="m 1102.6786,333.25504 c 0,0 -0.3886,1.80873 -0.1786,2.67857 0.1629,0.67477 1.0714,1.78572 1.0714,1.78572 l 44.1072,18.75 c 0,0 2.2557,0.66937 3.3928,0.53571 1.0868,-0.12775 3.0357,-1.25 3.0357,-1.25 l 28.9286,-43.75 c 0,0 0.9918,-2.58929 0.8929,-3.92857 -0.085,-1.14648 -1.25,-3.21429 -1.25,-3.21429 l -33.2143,-26.42857 c 0,0 -2.3603,-0.79875 -3.5714,-0.71428 -1.2583,0.0878 -3.5715,1.25 -3.5715,1.25 z"
         style="fill:#333333;stroke:none"
         transform="matrix(0.80385035,-0.59483159,0.59483159,0.80385035,-831.18848,827.86975)" />
      <path
         sodipodi:nodetypes="csccsscccsccscc"
         inkscape:connector-curvature="0"
         id="path5691"
         d="m 1161.7857,358.79075 c 0,0 -0.6872,1.90009 -0.5357,2.85715 0.1166,0.73665 1.0714,1.96428 1.0714,1.96428 l 25.8929,12.85715 c 0,0 2.8086,2.07055 3.5714,3.57142 0.8735,1.71866 0.8148,3.788 0.8929,5.71429 0.3265,8.05111 -1.7857,24.10714 -1.7857,24.10714 l 3.0357,0.35715 43.0357,-55.89286 c 0,0 0.9228,-1.98139 0.8928,-3.03572 -0.025,-0.88452 -0.8928,-2.5 -0.8928,-2.5 l -37.3214,-35.71428 c 0,0 -2.7129,-1.02999 -4.1072,-0.89286 -1.4857,0.14612 -4.1071,1.78572 -4.1071,1.78572 z"
         style="fill:#333333;stroke:none"
         transform="matrix(0.80385035,-0.59483159,0.59483159,0.80385035,-831.18848,827.86975)" />
      <path
         id="path5693"
         d="m 385.28125,373.3125 c 0,0 -1.81149,0.24989 -2.46875,0.8125 -0.57194,0.48963 -1.03125,2 -1.03125,2 l -0.875,111.6875 c 0,0 0.90378,1.89946 1.71875,2.5 0.85789,0.63213 3.0625,0.96875 3.0625,0.96875 l 35.28125,-7.9375 c 0,0 3.10522,-0.82355 4.28125,-1.84375 0.92691,-0.8041 1.9375,-3.15625 1.9375,-3.15625 0.62945,-6.9162 1.22326,-13.83307 1.84375,-20.75 l 7.71875,1.09375 -1.75,18.96875 1.09375,2.96875 2.625,1.28125 26.6875,4.6875 c 0,0 2.91309,-0.17881 4.03125,-1 1.01117,-0.74268 1.96875,-3.21875 1.96875,-3.21875 l 20.15625,-83.34375 c 0,0 0.022,-3.35689 -0.8125,-4.71875 C 490.14979,393.33294 488,392.25 488,392.25 l -40.59375,-9.96875 c 0,0 -1.72539,0.27742 -2.40625,0.78125 -0.68086,0.50382 -1.46875,2.09375 -1.46875,2.09375 l -4.90625,53.125 -7.84375,-0.25 c 1.54502,-17.54604 3.06759,-35.10009 4.5,-52.65625 0,0 -0.70796,-2.67896 -1.5,-3.78125 -0.5895,-0.82085 -2.3125,-1.96875 -2.3125,-1.96875 l -46.1875,-6.3125 z"
         style="fill:#800000;stroke:none"
         inkscape:connector-curvature="0" />
      <path
         sodipodi:nodetypes="cccccccccsccccssssssccccccssccsccccc"
         inkscape:connector-curvature="0"
         d="m 378.49177,718.51034 -83.01448,0 2.1526,-110.41063 c 0,0 -0.80525,-5.87495 -1.52785,-8.35811 -0.61587,-2.11651 -4.45167,-4.89008 -4.45167,-4.89008 L 254.00112,578.763 c 0,0 -2.51492,-1.65126 -3.36567,-2.85022 -0.91032,-1.28231 -1.68897,-4.40508 -1.68897,-4.40508 l -2.52571,-113.58507 c 0,0 0.83854,-2.98091 1.86966,-4.05387 1.24184,-1.29222 4.78882,-2.44406 4.78882,-2.44406 l 90.7416,-20.0227 c 0,0 4.22624,-0.47281 6.21183,0.11579 6.26869,5.14985 14.34187,22.56979 15.15769,26.64001 -0.47895,1.66802 -1.57728,3.11819 -2.65529,4.47815 -7.14429,9.0129 -15.98448,16.61473 -24.87807,23.90702 -2.2467,1.84219 -4.50413,3.78772 -7.15384,4.97953 -2.95866,1.33076 -6.22525,2.03879 -9.45987,2.28768 -4.13336,0.31806 -8.30144,-0.37358 -12.39317,-1.03955 -3.89356,-0.63368 -7.58997,-3.33977 -11.49788,-2.80159 -1.00851,0.13888 -2.34127,0.5317 -2.6614,1.49813 -0.36604,1.10511 0.71998,2.26022 1.41894,3.19119 1.97384,2.62875 4.71137,4.67935 7.53527,6.36217 2.51805,1.50049 5.75118,1.57892 8.187,3.20953 1.37519,0.92067 3.00192,1.98626 3.43672,3.58304 0.46294,1.70037 -0.36079,3.60552 -1.2201,5.14401 -1.95062,3.49225 -6.24849,5.16794 -8.48961,8.48126 -0.79268,1.17194 -2.0166,2.53275 -1.6667,3.90368 0.23735,0.92999 2.26148,1.78232 2.26148,1.78232 l 37.49431,-10.46612 c 0,0 4.46241,-0.93016 6.69702,-0.71449 1.97751,0.19086 5.69623,1.75397 5.69623,1.75397 l 31.95977,15.72357 c 5.24363,3.92261 5.76784,5.8781 2.49359,15.93438 l -9.94295,16.86309 c 5e-5,36.62473 -1.86,115.66682 -1.86005,152.29157 z"
         style="fill:#333333;stroke:none"
         id="path5695" />
    </g>
    <path
       sodipodi:type="arc"
       style="fill:none;stroke:#333333;stroke-width:56.69291306"
       id="path5697"
       sodipodi:cx="411.00583"
       sodipodi:cy="1635.7252"
       sodipodi:rx="355.76309"
       sodipodi:ry="355.76309"
       d="m 766.76892,1635.7252 a 355.76309,355.76309 0 1 1 -711.526183,0 355.76309,355.76309 0 1 1 711.526183,0 z"
       transform="matrix(1.000519,-0.10782991,0.15620844,0.69065324,-298.02593,560.20365)" />
    <g
       inkscape:export-ydpi="72"
       inkscape:export-xdpi="72"
       inkscape:export-filename="/home/phosphor/Pictures/work/hackeriet/hax_fos_ny_txt2.png"
       transform="matrix(0.43130833,0.05448482,-0.05448482,0.43130833,-148.26329,648.47121)"
       id="g5699"
       style="fill:#333333">
      <path
         sodipodi:nodetypes="ccccccccscccccsccccccccccccccccccccccccccccccccccccccccccsssccccccccccccccccccccscccccccccccccsccccc"
         inkscape:connector-curvature="0"
         id="path5701"
         transform="matrix(1.0561618,-0.13756179,0.13756179,1.0561618,755.70275,151.68461)"
         d="m 268.8125,119 -3,2.28125 -14.5,35.1875 -8.90625,3.6875 -27.03125,65.5 2.75,20.4375 -32.625,78.96875 1.28125,1.75 c 0,0 72.13542,-24.92537 109.375,-32.8125 7.28234,-1.54235 14.32705,-2.80581 21.125,-3.84375 l -1.6875,-68.71875 2.5,-8.90625 7.53125,-4.71875 -0.65625,-30.28125 c -11.2284,-6.07669 -21.47043,-14.11336 -30.4375,-23.1875 C 284.29039,143.98066 268.8125,119 268.8125,119 z m -7,57.625 5.1875,2.125 16.59375,39.9375 -4.9375,12 L 257,178.59375 z m 15.5,6.375 10.09375,4.15625 4.625,11.125 -4.15625,10.0625 z m -27.375,0.25 24.21875,58.3125 -1.625,3.9375 -5.71875,2.40625 -21.84375,-52.53125 z m -9.5,23.03125 17.625,42.5 -11.6875,-4.84375 -10.78125,-25.90625 z m 421.53125,21.375 -5.59375,23.625 22.57419,3.30228 -0.90625,7.4375 -23.41794,-3.36478 -2.28125,9.65625 50.86035,6.69667 17.12108,-22.39965 5.40625,-7.25 1.3125,8.9375 6.25,43 29.59375,-39.65625 5.40625,-7.25 1.3125,8.9375 6.25,42.96875 12.0625,-16.1875 1.3125,-1.75 2.15625,0.28125 26.12401,3.78651 c 3.24357,-12.5243 15.35469,-21.05927 28.5625,-19.5 14.41893,1.70225 24.70224,14.7686 23,29.1875 -1.70224,14.4189 -14.76857,24.7335 -29.1875,23.03125 -13.09685,-1.54617 -22.79336,-12.45458 -23.1875,-25.25 l -24.03026,-3.56776 -16.21875,21.71875 -5.4375,7.28125 -1.3125,-8.9375 -6.25,-43 -29.5625,39.65625 -5.40625,7.28125 -1.3125,-8.96875 -6.25,-43.03125 -14.1815,18.984 -126.26868,-15.93727 -28.625,6.5625 123.01169,15.14603 -0.875,7.4375 -143.94919,-17.61478 -16.625,3.8125 L 504.375,278 l -0.75,-2.1875 -36.8125,-4.375 c -2.1112,1.72892 -4.27039,3.48782 -6.625,5.46875 -7.74673,6.51729 -25.0625,10 -25.0625,10 l -4.28125,4.875 400.07419,55.23978 c 34.21098,4.75025 59.64027,-17.50657 63,-42.65625 3.37912,-25.29715 -16.82562,-55.27935 -49.875,-58.09375 z m -164.0625,12.5 c -2.15716,2.46823 -4.93932,5.57201 -8,8.96875 l 11.875,1.40625 -0.0937,-9.9375 -3.78125,-0.4375 z m -14.21875,15.8125 c -1.15623,1.22756 -2.27103,2.38562 -3.28125,3.40625 -1.98607,2.00653 -3.87419,3.76217 -5.75,5.4375 l 27.3125,3.21875 -0.0937,-9.90625 -18.1875,-2.15625 z"
         style="fill:#333333;stroke:none" />
      <path
         sodipodi:nodetypes="ccccccsscccccccccscsc"
         inkscape:connector-curvature="0"
         id="path5703"
         d="m 988.33857,469.33254 23.40933,-87.36485 -6.0634,-22.62889 21.0727,-78.64426 9.2359,-5.33232 15.7074,-58.62086 c 0,0 -0.2805,-8.85931 -3.1401,-11.71893 -2.8332,-2.83323 -7.6383,-3.6341 -11.6108,-3.11111 -3.0791,0.40537 -8.0687,4.65844 -8.0687,4.65844 l -3.5468,13.23682 -22.3458,-5.98755 -42.43103,158.35492 -10.5124,10.51234 -10.6222,2.84622 -8.4812,8.48119 -82.5144,-22.10968 -3.9737,2.29419 c 0,0 4.0683,61.45926 48.9089,91.20654 43.6741,28.97338 82.8325,16.66751 82.8325,16.66751 0,0 5.9803,-1.88274 8.0813,-4.04061 2.2325,-2.29303 4.0625,-8.69911 4.0625,-8.69911 z"
         style="fill:#333333;stroke:none" />
      <path
         sodipodi:nodetypes="cccccscsc"
         inkscape:connector-curvature="0"
         id="path5705"
         d="m 984.27607,253.52525 -16.6939,62.3022 -2.4067,4.16863 -91.8172,-24.60233 -1.9787,-7.38478 c 0,0 27.7054,-30.84049 55.3178,-40.2921 31.6221,-10.82413 54.2957,-4.79822 54.2957,-4.79822 0,0 2.4335,0.7621 3.0304,1.76776 1.5044,2.53466 0.2526,8.83884 0.2526,8.83884 z"
         style="fill:#333333;stroke:none" />
    </g>
    <g
       inkscape:export-ydpi="72"
       inkscape:export-xdpi="72"
       inkscape:export-filename="/home/phosphor/Pictures/work/hackeriet/hax_fos_ny_txt2.png"
       transform="matrix(0.64753239,-0.00249874,0.00249874,0.64753239,160.51234,562.79475)"
       style="fill:#333333;stroke:none"
       id="g5707">
      <path
         sodipodi:nodetypes="cssscccccscc"
         inkscape:connector-curvature="0"
         id="path5709"
         transform="translate(-1.775992e-5,1.5849045e-5)"
         style="fill:#333333;stroke:none"
         d="m 371.86845,518.3719 c 0,0 22.45257,10.65169 25.31802,13.09513 3.2491,2.77059 4.77826,4.19742 4.37612,8.37517 -0.54841,5.69722 -1.99304,12.07503 -4.50009,17.2203 -2.67864,5.49741 -8.75,13.8125 -8.75,13.8125 -0.18765,89.88979 -1.86005,67.3469 -1.86005,147.63533 l 57,0 -0.2337,-121.82283 18.375,-26.5625 c 0,0 7.58046,-9.46806 9.5,-15.09375 2.53908,-7.4414 1.65864,-13.37331 1.68733,-22.48407 z" />
      <path
         transform="matrix(0.80385035,-0.59483159,0.59483159,0.80385035,-831.18848,827.86975)"
         style="fill:#333333;stroke:none"
         d="m 1102.6786,333.25504 c 0,0 -0.3886,1.80873 -0.1786,2.67857 0.1629,0.67477 1.0714,1.78572 1.0714,1.78572 l 44.1072,18.75 c 0,0 2.2557,0.66937 3.3928,0.53571 1.0868,-0.12775 3.0357,-1.25 3.0357,-1.25 l 28.9286,-43.75 c 0,0 0.9918,-2.58929 0.8929,-3.92857 -0.085,-1.14648 -1.25,-3.21429 -1.25,-3.21429 l -33.2143,-26.42857 c 0,0 -2.3603,-0.79875 -3.5714,-0.71428 -1.2583,0.0878 -3.5715,1.25 -3.5715,1.25 z"
         id="path5711"
         inkscape:connector-curvature="0"
         sodipodi:nodetypes="csccsccsccscc" />
      <path
         transform="matrix(0.80385035,-0.59483159,0.59483159,0.80385035,-831.18848,827.86975)"
         style="fill:#333333;stroke:none"
         d="m 1161.7857,358.79075 c 0,0 -0.6872,1.90009 -0.5357,2.85715 0.1166,0.73665 1.0714,1.96428 1.0714,1.96428 l 25.8929,12.85715 c 0,0 2.8086,2.07055 3.5714,3.57142 0.8735,1.71866 0.8148,3.788 0.8929,5.71429 0.3265,8.05111 -1.7857,24.10714 -1.7857,24.10714 l 3.0357,0.35715 43.0357,-55.89286 c 0,0 0.9228,-1.98139 0.8928,-3.03572 -0.025,-0.88452 -0.8928,-2.5 -0.8928,-2.5 l -37.3214,-35.71428 c 0,0 -2.7129,-1.02999 -4.1072,-0.89286 -1.4857,0.14612 -4.1071,1.78572 -4.1071,1.78572 z"
         id="path5713"
         inkscape:connector-curvature="0"
         sodipodi:nodetypes="csccsscccsccscc" />
      <path
         inkscape:connector-curvature="0"
         style="fill:#800000;stroke:none"
         d="m 385.28125,373.3125 c 0,0 -1.81149,0.24989 -2.46875,0.8125 -0.57194,0.48963 -1.03125,2 -1.03125,2 l -0.875,111.6875 c 0,0 0.90378,1.89946 1.71875,2.5 0.85789,0.63213 3.0625,0.96875 3.0625,0.96875 l 35.28125,-7.9375 c 0,0 3.10522,-0.82355 4.28125,-1.84375 0.92691,-0.8041 1.9375,-3.15625 1.9375,-3.15625 0.62945,-6.9162 1.22326,-13.83307 1.84375,-20.75 l 7.71875,1.09375 -1.75,18.96875 1.09375,2.96875 2.625,1.28125 26.6875,4.6875 c 0,0 2.91309,-0.17881 4.03125,-1 1.01117,-0.74268 1.96875,-3.21875 1.96875,-3.21875 l 20.15625,-83.34375 c 0,0 0.022,-3.35689 -0.8125,-4.71875 C 490.14979,393.33294 488,392.25 488,392.25 l -40.59375,-9.96875 c 0,0 -1.72539,0.27742 -2.40625,0.78125 -0.68086,0.50382 -1.46875,2.09375 -1.46875,2.09375 l -4.90625,53.125 -7.84375,-0.25 c 1.54502,-17.54604 3.06759,-35.10009 4.5,-52.65625 0,0 -0.70796,-2.67896 -1.5,-3.78125 -0.5895,-0.82085 -2.3125,-1.96875 -2.3125,-1.96875 l -46.1875,-6.3125 z"
         id="path5715" />
      <path
         id="path5717"
         style="fill:#333333;stroke:none"
         d="m 378.49177,718.51034 -83.01448,0 2.1526,-110.41063 c 0,0 -0.80525,-5.87495 -1.52785,-8.35811 -0.61587,-2.11651 -4.45167,-4.89008 -4.45167,-4.89008 L 254.00112,578.763 c 0,0 -2.51492,-1.65126 -3.36567,-2.85022 -0.91032,-1.28231 -1.68897,-4.40508 -1.68897,-4.40508 l -2.52571,-113.58507 c 0,0 0.83854,-2.98091 1.86966,-4.05387 1.24184,-1.29222 4.78882,-2.44406 4.78882,-2.44406 l 90.7416,-20.0227 c 0,0 4.22624,-0.47281 6.21183,0.11579 6.26869,5.14985 14.34187,22.56979 15.15769,26.64001 -0.47895,1.66802 -1.57728,3.11819 -2.65529,4.47815 -7.14429,9.0129 -15.98448,16.61473 -24.87807,23.90702 -2.2467,1.84219 -4.50413,3.78772 -7.15384,4.97953 -2.95866,1.33076 -6.22525,2.03879 -9.45987,2.28768 -4.13336,0.31806 -8.30144,-0.37358 -12.39317,-1.03955 -3.89356,-0.63368 -7.58997,-3.33977 -11.49788,-2.80159 -1.00851,0.13888 -2.34127,0.5317 -2.6614,1.49813 -0.36604,1.10511 0.71998,2.26022 1.41894,3.19119 1.97384,2.62875 4.71137,4.67935 7.53527,6.36217 2.51805,1.50049 5.75118,1.57892 8.187,3.20953 1.37519,0.92067 3.00192,1.98626 3.43672,3.58304 0.46294,1.70037 -0.36079,3.60552 -1.2201,5.14401 -1.95062,3.49225 -6.24849,5.16794 -8.48961,8.48126 -0.79268,1.17194 -2.0166,2.53275 -1.6667,3.90368 0.23735,0.92999 2.26148,1.78232 2.26148,1.78232 l 37.49431,-10.46612 c 0,0 4.46241,-0.93016 6.69702,-0.71449 1.97751,0.19086 5.69623,1.75397 5.69623,1.75397 l 31.95977,15.72357 c 5.24363,3.92261 5.76784,5.8781 2.49359,15.93438 l -9.94295,16.86309 c 5e-5,36.62473 -1.86,115.66682 -1.86005,152.29157 z"
         inkscape:connector-curvature="0"
         sodipodi:nodetypes="cccccccccsccccssssssccccccssccsccccc" />
    </g>
    <path
       transform="matrix(0.62037398,-0.06686017,0.09685738,0.42824104,-25.78808,199.3491)"
       d="m 766.76892,1635.7252 a 355.76309,355.76309 0 1 1 -711.526183,0 355.76309,355.76309 0 1 1 711.526183,0 z"
       sodipodi:ry="355.76309"
       sodipodi:rx="355.76309"
       sodipodi:cy="1635.7252"
       sodipodi:cx="411.00583"
       id="path5719"
       style="fill:none;stroke:#333333;stroke-width:56.69291306"
       sodipodi:type="arc" />
    <g
       transform="matrix(0.49902994,-0.09596462,0.09596462,0.49902994,-524.87961,711.26856)"
       id="g5727">
      <path
         transform="matrix(0.2378945,0.08036774,-0.08036774,0.2378945,7.8331623,62.333338)"
         d="m 5059.1607,-648.68896 a 449.70319,449.70319 0 1 1 -899.4064,0 449.70319,449.70319 0 1 1 899.4064,0 z"
         sodipodi:ry="449.70319"
         sodipodi:rx="449.70319"
         sodipodi:cy="-648.68896"
         sodipodi:cx="4609.4575"
         id="path5729"
         style="fill:none;stroke:#333333;stroke-width:80.03220367;stroke-linecap:square;stroke-linejoin:miter;stroke-miterlimit:4;stroke-opacity:1;stroke-dasharray:none;stroke-dashoffset:0"
         sodipodi:type="arc" />
      <path
         sodipodi:nodetypes="cccccccccccccccccccccccccccccccccccccccccccccccccccccccccccccccccc"
         id="path5731"
         d="m 1087.3458,220.55403 -16.2742,16.0862 28.4757,8.7813 3.8563,11.7064 -9.629,7.8453 -28.4446,-8.784 4.444,21.5679 33.0187,10.1373 11.8584,-11.0223 4.9329,1.80179 0.5081,21.10581 18.0694,15.2835 -13.8707,69.15823 55.0755,8.0343 12.1852,-66.21743 12.7199,-10.5023 8.5359,-11.0802 22.8733,6.183 14.6691,-9.8471 -8.7418,-16.2355 -26.2396,-7.9645 3.5534,-22.9264 -11.2861,-6.3138 -3.5973,4.7408 0.3068,-8.968 -17.2986,-7.2577 -4.934,5.2352 -0.1885,-5.6931 -18.6912,-4.9074 -4.272,6.3374 -1.1289,-7.4609 -16.6467,-0.2252 -6.128,21.2143 -9.963,0.8629 -4.7297,-20.5388 -33.0187,-10.1373 z m 77.1302,31.8606 -0.4148,9.1656 -0.728,17.3499 13.6923,-15.4821 6.8192,-7.6914 -0.6327,10.2514 -1.2361,20.124 6.7413,-6.0847 1.5399,-1.3907 1.9392,0.6445 12.4379,4.0789 -2.2304,6.722 -10.4676,-3.437 -11.6478,10.5646 -6.4492,5.8394 0.5521,-8.6759 1.1244,-18.5456 -13.4909,15.276 -6.6488,7.4883 0.4368,-9.9832 0.8094,-18.2041 -4.2921,4.3315 -1.5263,1.5464 -2.0664,-0.6647 -11.5901,-3.7145 2.1654,-6.7477 9.5236,3.0498 9.1886,-9.281 z"
         style="fill:#333333;stroke:none"
         inkscape:connector-curvature="0" />
    </g>
    <g
       id="g5733"
       transform="matrix(0.21389914,-0.0411333,0.0411333,0.21389914,-124.34038,628.61211)">
      <path
         sodipodi:type="arc"
         style="fill:none;stroke:#333333;stroke-width:80.03220367;stroke-linecap:square;stroke-linejoin:miter;stroke-miterlimit:4;stroke-opacity:1;stroke-dasharray:none;stroke-dashoffset:0"
         id="path5735"
         sodipodi:cx="4609.4575"
         sodipodi:cy="-648.68896"
         sodipodi:rx="449.70319"
         sodipodi:ry="449.70319"
         d="m 5059.1607,-648.68896 c 0,248.36421 -201.339,449.70318 -449.7032,449.70318 -248.3642,0 -449.7032,-201.33897 -449.7032,-449.70318 0,-248.36422 201.339,-449.70324 449.7032,-449.70324 248.3642,0 449.7032,201.33902 449.7032,449.70324 z"
         transform="matrix(0.2378945,0.08036774,-0.08036774,0.2378945,7.8331623,62.333338)" />
      <path
         inkscape:connector-curvature="0"
         style="fill:#333333;stroke:none"
         d="m 1087.3458,220.55403 -16.2742,16.0862 28.4757,8.7813 3.8563,11.7064 -9.629,7.8453 -28.4446,-8.784 4.444,21.5679 33.0187,10.1373 11.8584,-11.0223 4.9329,1.80179 0.5081,21.10581 18.0694,15.2835 -13.8707,69.15823 55.0755,8.0343 12.1852,-66.21743 12.7199,-10.5023 8.5359,-11.0802 22.8733,6.183 14.6691,-9.8471 -8.7418,-16.2355 -26.2396,-7.9645 3.5534,-22.9264 -11.2861,-6.3138 -3.5973,4.7408 0.3068,-8.968 -17.2986,-7.2577 -4.934,5.2352 -0.1885,-5.6931 -18.6912,-4.9074 -4.272,6.3374 -1.1289,-7.4609 -16.6467,-0.2252 -6.128,21.2143 -9.963,0.8629 -4.7297,-20.5388 -33.0187,-10.1373 z m 77.1302,31.8606 -0.4148,9.1656 -0.728,17.3499 13.6923,-15.4821 6.8192,-7.6914 -0.6327,10.2514 -1.2361,20.124 6.7413,-6.0847 1.5399,-1.3907 1.9392,0.6445 12.4379,4.0789 -2.2304,6.722 -10.4676,-3.437 -11.6478,10.5646 -6.4492,5.8394 0.5521,-8.6759 1.1244,-18.5456 -13.4909,15.276 -6.6488,7.4883 0.4368,-9.9832 0.8094,-18.2041 -4.2921,4.3315 -1.5263,1.5464 -2.0664,-0.6647 -11.5901,-3.7145 2.1654,-6.7477 9.5236,3.0498 9.1886,-9.281 z"
         id="path5737"
         sodipodi:nodetypes="cccccccccccccccccccccccccccccccccccccccccccccccccccccccccccccccccc" />
    </g>
    <g
       transform="matrix(0.11226836,-0.02158947,0.02158947,0.11226836,43.895927,621.58179)"
       id="g5739">
      <path
         transform="matrix(0.2378945,0.08036774,-0.08036774,0.2378945,7.8331623,62.333338)"
         d="m 5059.1607,-648.68896 c 0,248.36421 -201.339,449.70318 -449.7032,449.70318 -248.3642,0 -449.7032,-201.33897 -449.7032,-449.70318 0,-248.36422 201.339,-449.70324 449.7032,-449.70324 248.3642,0 449.7032,201.33902 449.7032,449.70324 z"
         sodipodi:ry="449.70319"
         sodipodi:rx="449.70319"
         sodipodi:cy="-648.68896"
         sodipodi:cx="4609.4575"
         id="path5741"
         style="fill:none;stroke:#333333;stroke-width:80.03220367;stroke-linecap:square;stroke-linejoin:miter;stroke-miterlimit:4;stroke-opacity:1;stroke-dasharray:none;stroke-dashoffset:0"
         sodipodi:type="arc" />
      <path
         sodipodi:nodetypes="cccccccccccccccccccccccccccccccccccccccccccccccccccccccccccccccccc"
         id="path5743"
         d="m 1087.3458,220.55403 -16.2742,16.0862 28.4757,8.7813 3.8563,11.7064 -9.629,7.8453 -28.4446,-8.784 4.444,21.5679 33.0187,10.1373 11.8584,-11.0223 4.9329,1.80179 0.5081,21.10581 18.0694,15.2835 -13.8707,69.15823 55.0755,8.0343 12.1852,-66.21743 12.7199,-10.5023 8.5359,-11.0802 22.8733,6.183 14.6691,-9.8471 -8.7418,-16.2355 -26.2396,-7.9645 3.5534,-22.9264 -11.2861,-6.3138 -3.5973,4.7408 0.3068,-8.968 -17.2986,-7.2577 -4.934,5.2352 -0.1885,-5.6931 -18.6912,-4.9074 -4.272,6.3374 -1.1289,-7.4609 -16.6467,-0.2252 -6.128,21.2143 -9.963,0.8629 -4.7297,-20.5388 -33.0187,-10.1373 z m 77.1302,31.8606 -0.4148,9.1656 -0.728,17.3499 13.6923,-15.4821 6.8192,-7.6914 -0.6327,10.2514 -1.2361,20.124 6.7413,-6.0847 1.5399,-1.3907 1.9392,0.6445 12.4379,4.0789 -2.2304,6.722 -10.4676,-3.437 -11.6478,10.5646 -6.4492,5.8394 0.5521,-8.6759 1.1244,-18.5456 -13.4909,15.276 -6.6488,7.4883 0.4368,-9.9832 0.8094,-18.2041 -4.2921,4.3315 -1.5263,1.5464 -2.0664,-0.6647 -11.5901,-3.7145 2.1654,-6.7477 9.5236,3.0498 9.1886,-9.281 z"
         style="fill:#333333;stroke:none"
         inkscape:connector-curvature="0" />
    </g>
    <g
       id="g5745"
       transform="matrix(0.0699222,-0.0134462,0.0134462,0.0699222,122.36182,617.94538)">
      <path
         sodipodi:type="arc"
         style="fill:none;stroke:#333333;stroke-width:80.03220367;stroke-linecap:square;stroke-linejoin:miter;stroke-miterlimit:4;stroke-opacity:1;stroke-dasharray:none;stroke-dashoffset:0"
         id="path5747"
         sodipodi:cx="4609.4575"
         sodipodi:cy="-648.68896"
         sodipodi:rx="449.70319"
         sodipodi:ry="449.70319"
         d="m 5059.1607,-648.68896 c 0,248.36421 -201.339,449.70318 -449.7032,449.70318 -248.3642,0 -449.7032,-201.33897 -449.7032,-449.70318 0,-248.36422 201.339,-449.70324 449.7032,-449.70324 248.3642,0 449.7032,201.33902 449.7032,449.70324 z"
         transform="matrix(0.2378945,0.08036774,-0.08036774,0.2378945,7.8331623,62.333338)" />
      <path
         inkscape:connector-curvature="0"
         style="fill:#333333;stroke:none"
         d="m 1087.3458,220.55403 -16.2742,16.0862 28.4757,8.7813 3.8563,11.7064 -9.629,7.8453 -28.4446,-8.784 4.444,21.5679 33.0187,10.1373 11.8584,-11.0223 4.9329,1.80179 0.5081,21.10581 18.0694,15.2835 -13.8707,69.15823 55.0755,8.0343 12.1852,-66.21743 12.7199,-10.5023 8.5359,-11.0802 22.8733,6.183 14.6691,-9.8471 -8.7418,-16.2355 -26.2396,-7.9645 3.5534,-22.9264 -11.2861,-6.3138 -3.5973,4.7408 0.3068,-8.968 -17.2986,-7.2577 -4.934,5.2352 -0.1885,-5.6931 -18.6912,-4.9074 -4.272,6.3374 -1.1289,-7.4609 -16.6467,-0.2252 -6.128,21.2143 -9.963,0.8629 -4.7297,-20.5388 -33.0187,-10.1373 z m 77.1302,31.8606 -0.4148,9.1656 -0.728,17.3499 13.6923,-15.4821 6.8192,-7.6914 -0.6327,10.2514 -1.2361,20.124 6.7413,-6.0847 1.5399,-1.3907 1.9392,0.6445 12.4379,4.0789 -2.2304,6.722 -10.4676,-3.437 -11.6478,10.5646 -6.4492,5.8394 0.5521,-8.6759 1.1244,-18.5456 -13.4909,15.276 -6.6488,7.4883 0.4368,-9.9832 0.8094,-18.2041 -4.2921,4.3315 -1.5263,1.5464 -2.0664,-0.6647 -11.5901,-3.7145 2.1654,-6.7477 9.5236,3.0498 9.1886,-9.281 z"
         id="path5749"
         sodipodi:nodetypes="cccccccccccccccccccccccccccccccccccccccccccccccccccccccccccccccccc" />
    </g>
  </g>
</svg>
