<?xml version="1.0" encoding="UTF-8" standalone="no"?>
<!-- Created with Inkscape (http://www.inkscape.org/) -->

<svg
   xmlns:dc="http://purl.org/dc/elements/1.1/"
   xmlns:cc="http://creativecommons.org/ns#"
   xmlns:rdf="http://www.w3.org/1999/02/22-rdf-syntax-ns#"
   xmlns:svg="http://www.w3.org/2000/svg"
   xmlns="http://www.w3.org/2000/svg"
   xmlns:sodipodi="http://sodipodi.sourceforge.net/DTD/sodipodi-0.dtd"
   xmlns:inkscape="http://www.inkscape.org/namespaces/inkscape"
   width="290.63556mm"
   height="50.899452mm"
   viewBox="0 0 1029.811 180.35239"
   id="svg5064"
   version="1.1"
   inkscape:version="0.91 r13725"
   sodipodi:docname="hackeriet-0xa000.svg">
  <defs
     id="defs5066" />
  <sodipodi:namedview
     id="base"
     pagecolor="#ffffff"
     bordercolor="#666666"
     borderopacity="1.0"
     inkscape:pageopacity="0.0"
     inkscape:pageshadow="2"
     inkscape:zoom="0.35"
     inkscape:cx="-353.73334"
     inkscape:cy="220"
     inkscape:document-units="px"
     inkscape:current-layer="layer1"
     showgrid="false"
     inkscape:window-width="1918"
     inkscape:window-height="1156"
     inkscape:window-x="2"
     inkscape:window-y="24"
     inkscape:window-maximized="1"
     fit-margin-top="0"
     fit-margin-left="0"
     fit-margin-right="0"
     fit-margin-bottom="0" />
  <metadata
     id="metadata5069">
    <rdf:RDF>
      <cc:Work
         rdf:about="">
        <dc:format>image/svg+xml</dc:format>
        <dc:type
           rdf:resource="http://purl.org/dc/dcmitype/StillImage" />
        <dc:title></dc:title>
      </cc:Work>
    </rdf:RDF>
  </metadata>
  <g
     inkscape:label="Layer 1"
     inkscape:groupmode="layer"
     id="layer1"
     transform="translate(-15.8762,-572.00983)">
    <g
       style="font-style:normal;font-variant:normal;font-weight:bold;font-stretch:normal;font-size:80px;line-height:125%;font-family:'0xA000';-inkscape-font-specification:'0xA000, Bold';text-align:start;letter-spacing:0px;word-spacing:0px;writing-mode:lr-tb;text-anchor:start;fill:#000000;fill-opacity:1;stroke:none;stroke-width:1px;stroke-linecap:butt;stroke-linejoin:miter;stroke-opacity:1"
       id="text5072"
       transform="matrix(2.1221023,0,0,2.2973908,-215.39035,-34.910494)">
      <path
         d="m 113.01905,335.21936 0,-53.33333 8.66666,0 0,17.46666 q 2.13334,-1.66666 4.66667,-2.73333 3,-1.06667 6.6,-1.06667 3.66667,0 6.73333,1.06667 8.4,3.86667 11.93334,11.93333 1.4,6.6 1.4,13.33334 l 0,13.33333 -8.73334,0 0,-13.33333 q 0,-3.86667 -0.46666,-6.2 -0.4,-2.4 -0.93334,-3.46667 -0.53333,-1.13333 -2.13333,-3.66667 -0.33333,-0.73333 -1.06667,-1.06666 -3.06666,-2.66667 -6.73333,-2.66667 -3.6,0 -6.6,2.66667 -0.8,0.26666 -1.13333,1.06666 -1.6,2.53334 -2.13334,3.66667 -0.53333,1.06667 -1,3.46667 -0.4,2.33333 -0.4,6.2 l 0,13.33333 -8.66666,0 z"
         id="path5140"
         inkscape:connector-curvature="0" />
      <path
         d="m 192.10655,331.21936 q -2.2,1.6 -4.6,2.66667 -6.6,1.33333 -13.33334,1.33333 -5.53333,0 -9.46666,-3.86667 -3.86667,-3.93333 -3.86667,-9.46666 0,-5.53334 3.86667,-9.4 3.93333,-3.93334 9.46666,-3.93334 l 17.93334,0 q -0.13334,-1.73333 -1.4,-3.06666 -1.26667,-1.4 -3.2,-1.4 l 0,-0.13334 q -3.86667,0 -6.26667,0.46667 -2.33333,0.4 -3.46667,0.93333 -1.13333,0.53334 -3.6,2.13334 l 0,-10.86667 q 4.53334,-1 6.86667,-1.2 2.4,-0.2 6.46667,-0.2 5.53333,0 9.4,3.93333 3.93333,3.93334 3.93333,9.4 l 0,26.66667 -8.73333,0 0,-4 z m -4.6,-8.2 q 0.2,-0.13333 2.26666,-0.46667 2.06667,-0.33333 2.33334,-0.66666 l 0,-4.6 -17.93334,0 q -1.8,0.13333 -3.2,1.4 -1.33333,1.26666 -1.33333,3.2 l -0.13333,0 q 0.13333,1.8 1.4,3.2 1.33333,1.33333 3.26666,1.33333 l 0,0.13333 q 3.86667,0 6.2,-0.4 2.4,-0.46666 3.46667,-1 1.13333,-0.53333 3.66667,-2.13333 z"
         id="path5142"
         inkscape:connector-curvature="0" />
      <path
         d="m 234.58363,333.88603 q -3.06667,1 -6.73333,1 -3.6,0 -6.6,-1 -8.33334,-3.8 -12,-12 -1,-3 -1,-6.6 0,-3.66667 1,-6.73334 3.86666,-8.4 12,-11.93333 3,-1.06667 6.6,-1.06667 3.66666,0 6.73333,1.06667 8.4,3.86667 11.93333,11.93333 l -10.86666,0 q -0.33334,-0.73333 -1.06667,-1.06666 -3.06667,-2.66667 -6.73333,-2.66667 -3.6,0 -6.6,2.66667 -0.8,0.26666 -1.13334,1.06666 -2.66666,3.06667 -2.66666,6.73334 0,3.6 2.66666,6.6 0.13334,0.26666 0.46667,0.66666 0.33333,0.4 0.66667,0.46667 3,2.66667 6.6,2.66667 3.66666,0 6.73333,-2.66667 0.8,-0.33333 1.06667,-1.13333 l 10.86666,0 q -3.8,8.33333 -11.93333,12 z"
         id="path5144"
         inkscape:connector-curvature="0" />
      <path
         d="m 282.04613,321.88603 q -0.33333,-0.73334 -1.06667,-1.06667 -2.53333,-1.6 -3.66666,-2.13333 -1.06667,-0.53334 -3.46667,-0.93334 -2.33333,-0.46666 -6.2,-0.46666 l -4.66667,0 0,17.93333 -8.66666,0 0,-53.33333 8.66666,0 0,26.66666 4.66667,0 13.33333,-13.33333 8.66667,0 q -10.6,10.66667 -13.33333,13.33333 l -8.66667,0 q 6.73333,0 13.33333,1.4 8.4,3.86667 11.93334,11.93334 1.4,6.6 1.4,13.33333 l -8.73334,0 q 0,-3.86667 -0.46666,-6.2 -0.4,-2.4 -0.93334,-3.46667 -0.53333,-1.13333 -2.13333,-3.66666 z"
         id="path5146"
         inkscape:connector-curvature="0" />
      <path
         d="m 327.03988,335.21936 q -6.8,0 -13.33333,-1.33333 -8.33334,-3.8 -12,-12 -1,-3 -1,-6.6 0,-3.66667 1,-6.73334 3.86666,-8.4 12,-11.93333 3,-1.06667 6.6,-1.06667 3.66666,0 6.73333,1.06667 8.4,3.86667 11.93333,11.93333 -1,1 -5.86666,5.93334 -4.8,4.86666 -7.46667,7.4 l -4.33333,4.4 q 2.13333,0.26666 5.73333,0.26666 l 13.33333,0 0,8.66667 -13.33333,0 z m -13.33333,-12.2 q 2.53333,-2.6 7.33333,-7.33333 4.8,-4.8 6,-6 l 1.06667,-1.13334 q -0.33334,-0.73333 -1.06667,-1.06666 -3.06667,-2.66667 -6.73333,-2.66667 -3.6,0 -6.6,2.66667 -0.8,0.26666 -1.13334,1.06666 -2.66666,3.06667 -2.66666,6.73334 0,3.6 2.66666,6.6 0.0667,0.26666 0.46667,0.66666 0.4,0.4 0.66667,0.46667 z"
         id="path5148"
         inkscape:connector-curvature="0" />
      <path
         d="m 363.30655,295.21936 q 6.73333,0 13.33333,1.4 l 0,10.86667 q -2.53333,-1.6 -3.66667,-2.13334 -1.06666,-0.53333 -3.46666,-0.93333 -2.33334,-0.46667 -6.2,-0.46667 -1.8,0.13334 -3.2,1.4 -1.33334,1.26667 -1.33334,3.2 l -0.13333,0 0,26.66667 -8.66667,0 0,-40 8.66667,0 0,0.86667 q 2.26667,-0.86667 4.66667,-0.86667 z"
         id="path5150"
         inkscape:connector-curvature="0" />
      <path
         d="m 384.53363,270.95269 q 1.8,-1.8 4.26667,-1.8 2.46666,0 4.26666,1.8 1.8,1.8 1.8,4.26667 0,2.46667 -1.8,4.33333 -1.8,1.8 -4.26666,1.8 -2.53334,0 -4.33334,-1.8 -1.8,-1.8 -1.8,-4.33333 0,-2.46667 1.86667,-4.26667 z m 8.6,23.66667 0,40.6 -8.73333,0 0,-40.6 8.73333,0 z"
         id="path5152"
         inkscape:connector-curvature="0" />
      <path
         d="m 428.13363,335.21936 q -6.8,0 -13.33333,-1.33333 -8.33334,-3.8 -12,-12 -1,-3 -1,-6.6 0,-3.66667 1,-6.73334 3.86666,-8.4 12,-11.93333 3,-1.06667 6.6,-1.06667 3.66666,0 6.73333,1.06667 8.4,3.86667 11.93333,11.93333 -1,1 -5.86666,5.93334 -4.8,4.86666 -7.46667,7.4 l -4.33333,4.4 q 2.13333,0.26666 5.73333,0.26666 l 13.33333,0 0,8.66667 -13.33333,0 z m -13.33333,-12.2 q 2.53333,-2.6 7.33333,-7.33333 4.8,-4.8 6,-6 l 1.06667,-1.13334 q -0.33334,-0.73333 -1.06667,-1.06666 -3.06667,-2.66667 -6.73333,-2.66667 -3.6,0 -6.6,2.66667 -0.8,0.26666 -1.13334,1.06666 -2.66666,3.06667 -2.66666,6.73334 0,3.6 2.66666,6.6 0.0667,0.26666 0.46667,0.66666 0.4,0.4 0.66667,0.46667 z"
         id="path5154"
         inkscape:connector-curvature="0" />
      <path
         d="m 462.6003,335.21936 q -5.53334,0 -9.46667,-3.86667 -3.86667,-3.93333 -3.86667,-9.46666 l 0,-40 8.66667,0 0,13.33333 18,0 0,8.73333 -18,0 0,17.93334 q 0.13333,1.8 1.4,3.2 1.33333,1.33333 3.26667,1.33333 l 0,0.13333 13.33333,0 0,8.66667 -13.33333,0 z"
         id="path5156"
         inkscape:connector-curvature="0" />
      <path
         d="m 487.90446,324.28603 q 1.8,-1.8 4.26667,-1.8 2.46667,0 4.26667,1.8 1.86666,1.8 1.86666,4.26666 0,2.46667 -1.86666,4.33334 -1.8,1.8 -4.26667,1.8 -2.46667,0 -4.26667,-1.8 -1.86666,-1.8 -1.86666,-4.33334 0,-2.46666 1.86666,-4.26666 z"
         id="path5158"
         inkscape:connector-curvature="0" />
      <path
         d="m 507.2378,335.21936 0,-40 8.66666,0 0,4.13333 q 2.13334,-1.66666 4.66667,-2.73333 3,-1.06667 6.6,-1.06667 3.66667,0 6.73333,1.06667 8.4,3.86667 11.93334,11.93333 1.4,6.6 1.4,13.33334 l 0,13.33333 -8.73334,0 0,-13.33333 q 0,-3.86667 -0.46666,-6.2 -0.4,-2.4 -0.93334,-3.46667 -0.53333,-1.13333 -2.13333,-3.66667 -0.33333,-0.73333 -1.06667,-1.06666 -3.06666,-2.66667 -6.73333,-2.66667 -3.6,0 -6.6,2.66667 -0.8,0.26666 -1.13333,1.06666 -1.6,2.53334 -2.13334,3.66667 -0.53333,1.06667 -1,3.46667 -0.4,2.33333 -0.4,6.2 l 0,13.33333 -8.66666,0 z"
         id="path5160"
         inkscape:connector-curvature="0" />
      <path
         d="m 581.25863,333.88603 q -3.06667,1 -6.73333,1 -3.6,0 -6.6,-1 -8.33334,-3.8 -12,-12 -1,-3 -1,-6.6 0,-3.66667 1,-6.73334 3.86666,-8.4 12,-11.93333 3,-1.06667 6.6,-1.06667 3.66666,0 6.73333,1.06667 8.4,3.86667 11.93333,11.93333 1.06667,3.06667 1.06667,6.73334 0,3.6 -1.06667,6.6 -3.8,8.33333 -11.93333,12 z m 0,-10.86667 q 0.8,-0.33333 1.06667,-1.13333 2.66666,-3 2.66666,-6.6 0,-3.66667 -2.66666,-6.73334 -0.33334,-0.73333 -1.06667,-1.06666 -3.06667,-2.66667 -6.73333,-2.66667 -3.6,0 -6.6,2.66667 -0.8,0.26666 -1.13334,1.06666 -2.66666,3.06667 -2.66666,6.73334 0,3.6 2.66666,6.6 0.0667,0.26666 0.46667,0.66666 0.4,0.4 0.66667,0.46667 3,2.66667 6.6,2.66667 3.66666,0 6.73333,-2.66667 z"
         id="path5162"
         inkscape:connector-curvature="0" />
    </g>
  </g>
</svg>
