<?xml version="1.0" encoding="UTF-8" standalone="no"?>
<!-- Created with Inkscape (http://www.inkscape.org/) -->

<svg
   xmlns:dc="http://purl.org/dc/elements/1.1/"
   xmlns:cc="http://creativecommons.org/ns#"
   xmlns:rdf="http://www.w3.org/1999/02/22-rdf-syntax-ns#"
   xmlns:svg="http://www.w3.org/2000/svg"
   xmlns="http://www.w3.org/2000/svg"
   xmlns:sodipodi="http://sodipodi.sourceforge.net/DTD/sodipodi-0.dtd"
   xmlns:inkscape="http://www.inkscape.org/namespaces/inkscape"
   width="105.77042mm"
   height="18.231556mm"
   viewBox="0 0 374.77709 64.600001"
   id="svg3346"
   version="1.1"
   inkscape:version="0.91 r13725"
   sodipodi:docname="hackeriet-0xa000.svg">
  <defs
     id="defs3348" />
  <sodipodi:namedview
     id="base"
     pagecolor="#ffffff"
     bordercolor="#666666"
     borderopacity="1.0"
     inkscape:pageopacity="0.0"
     inkscape:pageshadow="2"
     inkscape:zoom="0.35"
     inkscape:cx="364.76191"
     inkscape:cy="-34.285728"
     inkscape:document-units="px"
     inkscape:current-layer="layer1"
     showgrid="false"
     fit-margin-top="0"
     fit-margin-left="0"
     fit-margin-right="0"
     fit-margin-bottom="0"
     inkscape:window-width="1918"
     inkscape:window-height="1156"
     inkscape:window-x="2"
     inkscape:window-y="24"
     inkscape:window-maximized="1" />
  <metadata
     id="metadata3351">
    <rdf:RDF>
      <cc:Work
         rdf:about="">
        <dc:format>image/svg+xml</dc:format>
        <dc:type
           rdf:resource="http://purl.org/dc/dcmitype/StillImage" />
        <dc:title></dc:title>
      </cc:Work>
    </rdf:RDF>
  </metadata>
  <g
     inkscape:label="Layer 1"
     inkscape:groupmode="layer"
     id="layer1"
     transform="translate(-10.238095,-433.47648)">
    <g
       style="font-style:normal;font-variant:normal;font-weight:normal;font-stretch:normal;font-size:80px;line-height:125%;font-family:'0xA000';-inkscape-font-specification:'0xA000, ';letter-spacing:0px;word-spacing:0px;fill:#000000;fill-opacity:1;stroke:none;stroke-width:1px;stroke-linecap:butt;stroke-linejoin:miter;stroke-opacity:1"
       id="text3354">
      <path
         d="m 44.171428,498.07648 0,-26.66667 -27.933333,0 0,26.66667 -6,0 0,-53.33334 6,0 0,20.66667 27.933333,0 0,-20.66667 6.066667,0 0,53.33334 -6.066667,0 z"
         style=""
         id="path3359" />
      <path
         d="m 96.554762,491.87648 q -3.4,3.13333 -7.266667,4.86666 -6.6,1.33334 -13.333333,1.33334 -5.533334,0 -9.466667,-3.86667 -3.866667,-3.93333 -3.866667,-9.46667 0,-5.53333 3.866667,-9.4 3.933333,-3.93333 9.466667,-3.93333 l 20.6,0 q -0.06667,-2.86667 -2.2,-5 -2.066667,-2.2 -5.066667,-2.2 l 0,-0.0667 q -1.933333,0 -3.533333,0.13334 -1.6,0.0667 -2.533334,0.2 -0.933333,0.13333 -2.133333,0.46666 -1.2,0.33334 -1.666667,0.53334 -0.4,0.13333 -1.733333,0.73333 -1.266667,0.53333 -1.733333,0.73333 l 0,-7.46666 q 4.533333,-1 6.866666,-1.2 2.4,-0.2 6.466667,-0.2 5.533333,0 9.4,3.93333 3.933335,3.93333 3.933335,9.4 l 0,26.66667 -6.066668,0 0,-6.2 z m -7.266667,-2.6 q 0.6,-0.33334 1.933333,-0.93334 1.333334,-0.66666 2.066667,-1.06666 0.8,-0.4 1.733333,-1.06667 0.933334,-0.66667 1.533334,-1.46667 l 0,-7.26666 -20.6,0 q -2.933334,0.0667 -5.133334,2.2 -2.133333,2.06666 -2.133333,5.06666 l -0.06667,0 q 0.06667,2.93334 2.133334,5.13334 2.133333,2.13333 5.2,2.13333 l 0,0.0667 q 1.933333,0 3.466666,-0.0667 1.6,-0.13333 2.6,-0.26667 1,-0.13333 2.133334,-0.46666 1.133333,-0.33334 1.6,-0.46667 0.466666,-0.2 1.733333,-0.73333 1.266667,-0.6 1.8,-0.8 z"
         style=""
         id="path3361" />
      <path
         d="m 138.04018,496.74314 q -3.06667,1 -6.73334,1 -3.6,0 -6.6,-1 -8.33333,-3.8 -12,-12 -1,-3 -1,-6.6 0,-3.66666 1,-6.73333 3.86667,-8.4 12,-11.93333 3,-1.06667 6.6,-1.06667 3.66667,0 6.73334,1.06667 8.4,3.86666 11.93333,11.93333 l -7.53333,0 q -0.46667,-1.13333 -1.86667,-2.53333 -1.4,-1.4 -2.53333,-1.86667 -3.06667,-2.13333 -6.73334,-2.13333 -3.6,0 -6.6,2.13333 -1.2,0.46667 -2.6,1.86667 -1.4,1.33333 -1.86666,2.53333 -2.06667,3.06667 -2.06667,6.73333 0,3.6 2.06667,6.6 0.46666,1.26667 1.8,2.66667 1.4,1.33333 2.66666,1.8 3,2.06667 6.6,2.06667 3.66667,0 6.73334,-2.06667 1.2,-0.46667 2.53333,-1.86667 1.4,-1.4 1.86667,-2.6 l 7.53333,0 q -3.8,8.33334 -11.93333,12 z"
         style=""
         id="path3363" />
      <path
         d="m 190.61934,484.74314 -0.0667,0 q -0.46667,-1.13333 -1.86667,-2.53333 -1.4,-1.4 -2.53333,-1.86667 l 0,-0.0667 q -0.53334,-0.2 -1.8,-0.73334 -1.26667,-0.6 -1.73334,-0.73333 -0.46666,-0.2 -1.6,-0.53333 -1.13333,-0.33334 -2.13333,-0.46667 -1,-0.13333 -2.6,-0.2 -1.53333,-0.13333 -3.46667,-0.13333 l -7.33333,0 0,20.6 -6,0 0,-53.33334 6,0 0,26.66667 7.33333,0 13.33334,-13.33333 6,0 q -5.4,5.46666 -13.33334,13.33333 l -6,0 q 6.73334,0 13.33334,1.4 8.4,3.86667 11.93333,11.93333 1.4,6.6 1.4,13.33334 l -6.06667,0 q 0,-1.93334 -0.13333,-3.46667 -0.0667,-1.6 -0.2,-2.6 -0.13333,-1 -0.46667,-2.13333 -0.33333,-1.13334 -0.53333,-1.6 -0.13333,-0.46667 -0.73333,-1.73334 -0.53334,-1.26666 -0.73334,-1.8 z"
         style=""
         id="path3365" />
      <path
         d="m 226.44643,491.34314 q 2.86666,0.73334 8,0.73334 l 13.33333,0 0,6 -13.33333,0 q -6.8,0 -13.33334,-1.33334 -8.33333,-3.8 -12,-12 -1,-3 -1,-6.6 0,-3.66666 1,-6.73333 3.86667,-8.4 12,-11.93333 3,-1.06667 6.6,-1.06667 3.66667,0 6.73334,1.06667 8.4,3.86666 11.93333,11.93333 -1,1 -5.86667,5.93333 -4.8,4.86667 -7.46666,7.4 l -6.6,6.6 z m -5.33334,-2.13333 q 2.4,-2.4 13.33334,-13.33333 l 4.4,-4.46667 q -0.46667,-1.13333 -1.86667,-2.53333 -1.4,-1.4 -2.53333,-1.86667 -3.06667,-2.13333 -6.73334,-2.13333 -3.6,0 -6.6,2.13333 -1.2,0.46667 -2.6,1.86667 -1.4,1.33333 -1.86666,2.53333 -2.06667,3.06667 -2.06667,6.73333 0,3.6 2.06667,6.6 0.46666,1.26667 1.8,2.66667 1.4,1.33333 2.66666,1.8 z"
         style=""
         id="path3367" />
      <path
         d="m 270.71726,458.07648 q 6.73333,0 13.33333,1.4 l 0,7.46666 q -0.53333,-0.2 -1.8,-0.73333 -1.26666,-0.6 -1.73333,-0.73333 -0.46667,-0.2 -1.6,-0.53334 -1.13333,-0.33333 -2.13333,-0.46666 -1,-0.13334 -2.6,-0.2 -1.53334,-0.13334 -3.46667,-0.13334 -2.93333,0.0667 -5.13333,2.2 -2.13334,2.06667 -2.13334,5.06667 l -0.0667,0 0,26.66667 -6,0 0,-40 6,0 0,2.2 q 3.33333,-2.2 7.33333,-2.2 z"
         style=""
         id="path3369" />
      <path
         d="m 292.94434,434.87648 q 1.4,-1.4 3.26667,-1.4 1.86667,0 3.2,1.4 1.4,1.33333 1.4,3.2 0,1.86666 -1.4,3.26666 -1.33333,1.4 -3.2,1.4 -1.86667,0 -3.26667,-1.4 -1.4,-1.4 -1.4,-3.26666 0,-1.86667 1.4,-3.2 z m 6.26667,22.6 0,40.6 -6.06667,0 0,-40.6 6.06667,0 z"
         style=""
         id="path3371" />
      <path
         d="m 328.47768,491.34314 q 2.86666,0.73334 8,0.73334 l 13.33333,0 0,6 -13.33333,0 q -6.8,0 -13.33334,-1.33334 -8.33333,-3.8 -12,-12 -1,-3 -1,-6.6 0,-3.66666 1,-6.73333 3.86667,-8.4 12,-11.93333 3,-1.06667 6.6,-1.06667 3.66667,0 6.73334,1.06667 8.4,3.86666 11.93333,11.93333 -1,1 -5.86667,5.93333 -4.8,4.86667 -7.46666,7.4 l -6.6,6.6 z m -5.33334,-2.13333 q 2.4,-2.4 13.33334,-13.33333 l 4.4,-4.46667 q -0.46667,-1.13333 -1.86667,-2.53333 -1.4,-1.4 -2.53333,-1.86667 -3.06667,-2.13333 -6.73334,-2.13333 -3.6,0 -6.6,2.13333 -1.2,0.46667 -2.6,1.86667 -1.4,1.33333 -1.86666,2.53333 -2.06667,3.06667 -2.06667,6.73333 0,3.6 2.06667,6.6 0.46666,1.26667 1.8,2.66667 1.4,1.33333 2.66666,1.8 z"
         style=""
         id="path3373" />
      <path
         d="m 371.68184,498.07648 q -5.53333,0 -9.46666,-3.86667 -3.86667,-3.93333 -3.86667,-9.46667 l 0,-40 6,0 0,13.33334 20.66667,0 0,6.06666 -20.66667,0 0,20.6 q 0.0667,2.93334 2.13333,5.13334 2.13334,2.13333 5.2,2.13333 l 0,0.0667 13.33334,0 0,6 -13.33334,0 z"
         style=""
         id="path3375" />
    </g>
  </g>
</svg>
