<?xml version="1.0" encoding="UTF-8" standalone="no"?>
<!-- Created with Inkscape (http://www.inkscape.org/) -->

<svg
   xmlns:dc="http://purl.org/dc/elements/1.1/"
   xmlns:cc="http://creativecommons.org/ns#"
   xmlns:rdf="http://www.w3.org/1999/02/22-rdf-syntax-ns#"
   xmlns:svg="http://www.w3.org/2000/svg"
   xmlns="http://www.w3.org/2000/svg"
   xmlns:sodipodi="http://sodipodi.sourceforge.net/DTD/sodipodi-0.dtd"
   xmlns:inkscape="http://www.inkscape.org/namespaces/inkscape"
   width="100"
   height="111.28918"
   id="svg53383"
   sodipodi:version="0.32"
   inkscape:version="0.91 r13725"
   sodipodi:docname="hackeriet-dot-no.svg"
   inkscape:output_extension="org.inkscape.output.svg.inkscape"
   version="1.1"
   inkscape:export-filename="/home/sjn/Dropbox/Hackeriet/Logos/comotion-sjn-reclaim-5-179x179.png"
   inkscape:export-xdpi="161.10001"
   inkscape:export-ydpi="161.10001"
   style="enable-background:new">
  <title
     id="title6095">Hackeriet logo</title>
  <defs
     id="defs3">
    <path
       style="fill:none;fill-rule:evenodd;stroke:#000000;stroke-width:1px;stroke-linecap:butt;stroke-linejoin:miter;stroke-opacity:1"
       d="M 1.6071992,65.377224 C -4.2090086,119.64726 97.407843,121.86404 90.737071,63.671389"
       id="path5479"
       inkscape:connector-curvature="0"
       sodipodi:nodetypes="cc" />
  </defs>
  <sodipodi:namedview
     inkscape:showpageshadow="false"
     id="base"
     pagecolor="#ff0000"
     bordercolor="#666666"
     borderopacity="0.11764706"
     inkscape:pageopacity="0"
     inkscape:pageshadow="2"
     inkscape:zoom="5.948467"
     inkscape:cx="50"
     inkscape:cy="55.644588"
     inkscape:current-layer="layer4"
     showgrid="false"
     inkscape:grid-bbox="true"
     inkscape:document-units="px"
     inkscape:window-width="1600"
     inkscape:window-height="900"
     inkscape:window-x="0"
     inkscape:window-y="24"
     showguides="false"
     inkscape:guide-bbox="true"
     inkscape:window-maximized="0"
     fit-margin-top="0"
     fit-margin-left="0"
     fit-margin-right="0"
     fit-margin-bottom="0"
     inkscape:snap-global="true"
     borderlayer="true" />
  <metadata
     id="metadata4">
    <rdf:RDF>
      <cc:Work
         rdf:about="">
        <dc:format>image/svg+xml</dc:format>
        <dc:type
           rdf:resource="http://purl.org/dc/dcmitype/StillImage" />
        <dc:title>Hackeriet logo</dc:title>
        <dc:creator>
          <cc:Agent>
            <dc:title>Atluxity, Comotion</dc:title>
          </cc:Agent>
        </dc:creator>
        <dc:source>http://hackeriet.no</dc:source>
        <dc:subject>
          <rdf:Bag>
            <rdf:li>system</rdf:li>
            <rdf:li>applications</rdf:li>
            <rdf:li>group</rdf:li>
            <rdf:li>category</rdf:li>
            <rdf:li>admin</rdf:li>
            <rdf:li>root</rdf:li>
          </rdf:Bag>
        </dc:subject>
        <cc:license
           rdf:resource="http://creativecommons.org/licenses/by-nc-nd/3.0/" />
        <dc:rights>
          <cc:Agent>
            <dc:title>Hackeriet</dc:title>
          </cc:Agent>
        </dc:rights>
        <dc:publisher>
          <cc:Agent>
            <dc:title>Hackeriet</dc:title>
          </cc:Agent>
        </dc:publisher>
        <dc:date>2011</dc:date>
      </cc:Work>
      <cc:License
         rdf:about="http://creativecommons.org/licenses/by-nc-nd/3.0/">
        <cc:permits
           rdf:resource="http://creativecommons.org/ns#Reproduction" />
        <cc:permits
           rdf:resource="http://creativecommons.org/ns#Distribution" />
        <cc:requires
           rdf:resource="http://creativecommons.org/ns#Notice" />
        <cc:requires
           rdf:resource="http://creativecommons.org/ns#Attribution" />
        <cc:prohibits
           rdf:resource="http://creativecommons.org/ns#CommercialUse" />
      </cc:License>
    </rdf:RDF>
  </metadata>
  <g
     inkscape:groupmode="layer"
     id="layer2"
     inkscape:label="YingYang"
     style="display:inline"
     transform="translate(34.417286,2.4305499)" />
  <g
     inkscape:groupmode="layer"
     id="layer1"
     inkscape:label="Tannhjul"
     style="display:inline"
     transform="translate(-2e-7,-2.7e-6)" />
  <g
     inkscape:groupmode="layer"
     id="layer3"
     inkscape:label="Plus/minus"
     style="display:inline"
     transform="translate(34.417286,2.4305499)" />
  <g
     inkscape:groupmode="layer"
     id="layer4"
     inkscape:label="Topp-sirkel"
     style="display:inline;opacity:1"
     transform="translate(2.6573828,2.6383698)">
    <g
       id="g3612">
      <path
         inkscape:connector-curvature="0"
         id="path1366"
         d="m 47.342619,-1.5309401 c -27.01681,0 -48.9120628,21.8836841 -48.9120628,48.8862251 0,27.002536 21.8952528,48.886224 48.9120628,48.886224 27.01681,0 48.912062,-21.883688 48.912062,-48.886224 0,-27.002541 -21.895252,-48.8862251 -48.912062,-48.8862251 z"
         style="display:inline;fill:#ffffff;fill-opacity:1;stroke:none;enable-background:new" />
      <path
         inkscape:connector-curvature="0"
         id="path1351"
         d="M 45.627602,-1.5168244 C 27.828627,-1.0519772 10.822907,10.032738 3.25035,26.15898 1.7528611,29.242123 0.62001176,32.496312 -0.1820754,35.82407 l 1.1881473,0 c 2.6277981,-1.549758 6.5054282,-0.309349 9.4061661,0.09896 7.895217,1.703028 15.738539,4.835122 23.960969,3.727493 3.949314,-0.790118 7.477868,0.938515 10.528305,3.265679 6.281151,4.525072 11.24335,10.945784 18.614308,13.887382 4.030492,2.215382 8.427529,2.739899 12.937603,2.375039 4.25255,0.389192 8.857611,0.658191 12.706575,-1.352453 2.884429,-0.957154 4.667735,4.878368 5.016622,3.628532 C 99.470689,44.415268 94.435018,24.700019 81.503049,12.370558 72.494786,3.5064557 59.989263,-1.5817438 47.343815,-1.5168244 c -0.575548,-0.0073 -1.142052,-0.014995 -1.716213,0 z"
         style="display:inline;fill:#000000;enable-background:new" />
      <path
         id="path3243-2"
         d="m 21.269382,19.943374 c -2.303733,0.257714 -4.78049,0.679637 -6.897855,1.385439 l 0.132016,7.685891 c -1.786888,0.882645 -3.465681,2.186954 -4.9836177,3.364639 L 2.5230581,29.377557 c -0.9806746,1.110846 -1.85872276,2.31484 -2.64032722,3.562559 -0.33750258,1.112272 -0.59823626,2.253698 -0.85810635,3.397626 l 4.85160127,4.618132 c -0.478963,1.812114 -0.7946571,3.526337 -1.0231268,5.277865 -1.6883687,0.669055 -3.36234973,1.372858 -5.0496258,2.045172 0.053867,2.92396 0.3519859,5.798424 0.8911104,8.576531 2.09729951,-0.04994 4.2062605,-0.08739 6.3037813,-0.131947 0.9089084,1.683352 1.8976645,3.030426 2.9703682,4.453199 l -3.0033723,7.026158 c 1.8889599,1.730984 4.047363,3.05205 6.3037812,4.156319 l 5.280655,-5.475785 c 1.967508,0.659343 3.885947,0.922793 5.874728,1.121546 l 2.90436,7.125118 c 2.369215,-0.230567 4.714411,-0.648934 6.897855,-1.38544 l -0.132017,-7.685891 c 1.978822,-1.002327 3.425377,-2.067275 4.983618,-3.364639 l 7.029871,3.001786 c 1.816533,-1.915544 3.033301,-4.00468 4.158516,-6.300451 L 42.755045,54.11755 c 0.500974,-1.741095 0.791443,-3.491584 0.990122,-5.277865 2.358791,-0.934713 4.733788,-1.91301 7.09588,-2.836853 -0.07328,-2.672828 -0.592785,-5.378911 -1.584197,-7.817837 -2.535626,0.06604 -5.087093,0.111048 -7.623944,0.164933 -0.880538,-1.573032 -1.941376,-3.108437 -3.003373,-4.453199 L 41.66591,26.870572 C 39.63136,25.140326 37.545547,23.79787 35.329124,22.714253 l -5.280654,5.475785 c -1.928167,-0.590488 -3.902502,-0.93015 -5.874728,-1.121546 l -2.90436,-7.125118 z"
         style="color:#000000;display:inline;overflow:visible;visibility:visible;fill:#ffffff;fill-opacity:1;fill-rule:nonzero;stroke:none;stroke-width:1.16573465;marker:none;enable-background:new"
         inkscape:connector-curvature="0" />
      <path
         id="path3243-2-0"
         d="m 69.950415,19.580521 c -2.664528,0.191183 -5.085136,0.671611 -7.42592,1.451412 l 0.06601,7.586931 c -1.789363,0.92959 -3.442704,2.086545 -4.983618,3.331653 L 50.54401,28.915744 c -1.462408,1.797669 -2.912241,3.818942 -3.927487,5.805652 l 5.478679,5.409811 c -0.655516,1.881332 -0.964368,3.968266 -1.221151,5.871625 l -7.09588,2.770879 c 0.136657,2.541352 0.681258,5.071432 1.45218,7.421998 l 7.623945,-0.09896 c 0.929178,1.628024 1.938016,3.076855 3.003373,4.486185 -1.026896,2.319095 -2.032521,4.64652 -3.069381,6.960185 1.977715,1.971968 4.175175,3.295429 6.600818,4.453198 1.762224,-1.823381 3.542051,-3.627216 5.313659,-5.442798 1.828783,0.563923 3.517786,0.825238 5.280654,1.08856 l 2.772344,7.125117 c 2.561207,-0.08867 5.042128,-0.658323 7.42592,-1.451412 l -0.09901,-7.619918 c 1.865712,-0.908039 3.458743,-2.080195 5.016622,-3.331652 l 7.029871,3.067759 c 0.969893,-1.157775 1.876912,-2.375956 2.673332,-3.628532 0.277334,-0.911793 0.50079,-1.837529 0.72609,-2.77088 l -4.91761,-4.816051 c 0.708483,-2.101155 0.986545,-3.854672 1.188147,-5.871625 l 5.08263,-2.012186 c -0.05683,-2.786713 -0.326641,-5.49254 -0.825102,-8.147704 l -6.237773,0.06597 c -0.863673,-1.592789 -1.859393,-3.072936 -2.970368,-4.486185 1.026914,-2.319108 2.03249,-4.646515 3.06938,-6.960185 -1.926665,-1.855058 -4.216329,-3.44114 -6.633822,-4.486185 -1.762224,1.823411 -3.542036,3.660188 -5.313659,5.475785 -1.731179,-0.505115 -3.580131,-0.873379 -5.280654,-1.08856 l -2.73934,-7.125117 z"
         style="color:#000000;display:inline;overflow:visible;visibility:visible;fill:#000000;fill-opacity:1;fill-rule:nonzero;stroke:none;stroke-width:1.16573465;marker:none;enable-background:new"
         inkscape:connector-curvature="0" />
      <path
         d="m 78.853696,49.778475 0,-5.760277 -14.904978,0 0,5.760277 14.904978,0 z"
         id="rect3139"
         inkscape:connector-curvature="0"
         style="display:inline;fill:#ffffff;fill-opacity:1;enable-background:new" />
      <path
         id="path3938"
         style="display:inline;fill:#000000;fill-opacity:1;stroke:none;enable-background:new"
         d="m 14.793334,49.763676 5.786321,0 0,5.95355 5.569711,0 0,-5.95355 5.786321,0 0,-5.730279 -5.786321,0 0,-5.95395 -5.569711,0 0,5.954149 -5.786321,0 0,5.73008 z"
         inkscape:connector-curvature="0" />
      <path
         inkscape:connector-curvature="0"
         id="path9351"
         d="m -2.6573828,47.361627 c 0,27.61171 22.3764618,49.999999 49.9735848,49.999999 27.597125,0 50.026413,-22.388289 50.026413,-49.999999 0,-27.611709 -22.429288,-49.9999968 -50.026413,-49.9999968 -27.597123,0 -49.9735848,22.3882878 -49.9735848,49.9999968 z m 2.37717896,0 c 0,-26.332379 21.27793784,-47.6744158 47.59640584,-47.6744158 26.31847,0 47.649234,21.3420368 47.649234,47.6744158 0,26.33238 -21.330764,47.674417 -47.649234,47.674417 -26.318468,0 -47.59640584,-21.342037 -47.59640584,-47.674417 z"
         style="color:#000000;font-family:Sans;-inkscape-font-specification:Sans;display:inline;visibility:visible;fill:#ffffff;fill-opacity:1;stroke:none;stroke-width:1.39960635;marker:none" />
    </g>
  </g>
  <g
     inkscape:groupmode="layer"
     id="layer5"
     inkscape:label="hackeriet.no"
     transform="translate(-5.2e-6,-2.2e-6)"
     style="display:inline">
    <g
       transform="translate(3.561017,4.5711169)"
       style="font-style:normal;font-variant:normal;font-weight:normal;font-stretch:normal;font-size:12.5px;line-height:125%;font-family:'0xA000';-inkscape-font-specification:'0xA000, ';letter-spacing:0px;word-spacing:0px;display:inline;opacity:1;fill:#ffffff;fill-opacity:1;stroke:none;stroke-width:1px;stroke-linecap:butt;stroke-linejoin:miter;stroke-opacity:1;enable-background:new"
       id="text5475">
      <path
         d="m 18.018679,99.047394 2.306919,-3.46976 q 0.239319,-0.378767 0.146292,-0.840901 -0.07859,-0.465041 -0.468934,-0.72457 l 0.0058,-0.0087 q -0.251558,-0.167252 -0.471278,-0.288318 -0.213953,-0.129741 -0.346929,-0.193134 -0.132977,-0.06339 -0.317952,-0.123833 -0.184976,-0.06044 -0.262999,-0.07479 -0.06358,-0.01726 -0.288974,-0.05453 -0.210952,-0.04018 -0.288975,-0.05453 l 0.0058,-0.0087 q -0.106906,-0.0085 -0.439206,-0.05434 -0.323625,-0.04004 -0.53453,-0.04267 -0.196463,-0.0055 -0.372624,0.05247 l -2.306919,3.469761 -0.772022,-0.51329 4.613838,-6.93952 0.772022,0.513289 -1.695585,2.550274 q 0.713457,-0.113565 1.375196,0.0012 0.676369,0.26206 0.997275,0.437893 0.32958,0.181599 0.858719,0.533404 0.719975,0.478686 0.88282,1.324979 0.171519,0.85206 -0.3014,1.563361 l -2.306919,3.46976 -0.78937,-0.524824 z"
         style="font-style:normal;font-variant:normal;font-weight:normal;font-stretch:normal;font-family:'0xA000';-inkscape-font-specification:'0xA000, ';fill:#ffffff"
         id="path6126"
         inkscape:connector-curvature="0" />
      <path
         d="m 25.35035,101.68848 q -0.682478,0.23694 -1.344532,0.24421 -0.501715,-0.0479 -1.027047,-0.27653 -0.515781,-0.22445 -0.883252,-0.55476 -0.966571,-1.06814 -0.961559,-2.463268 0.04377,-0.492163 0.268214,-1.007944 0.228604,-0.525332 0.563072,-0.902354 1.058594,-0.970728 2.453719,-0.965716 0.711848,0.139365 1.058619,0.256185 0.356323,0.120977 0.938964,0.37452 l 1.910299,0.831286 -2.493859,5.730891 -0.869186,-0.37823 0.386548,-0.88829 z m -0.879012,-0.82556 q 0.106746,-0.0104 0.335184,-0.0132 0.232594,-0.0124 0.362599,-0.024 0.139556,-0.007 0.314842,-0.0448 0.175285,-0.0373 0.311125,-0.11454 l 1.284338,-2.95141 -1.041113,-0.453051 q -0.276993,-0.120537 -0.514542,-0.201188 -0.233392,-0.0902 -0.375426,-0.12929 -0.142034,-0.03909 -0.334743,-0.06615 -0.192709,-0.02706 -0.272039,-0.0275 -0.06562,-0.0058 -0.294059,-0.003 -0.21473,-0.0026 -0.29406,-0.003 l -0.0042,0.0096 q -0.201022,-0.008 -0.488888,0.105341 -0.28371,0.103744 -0.425387,0.246576 -0.487292,0.310519 -0.715896,0.835852 -0.224447,0.51578 -0.11539,1.074447 -0.01211,0.210573 0.09163,0.494283 0.117453,0.278315 0.269836,0.42414 0.300968,0.48314 0.816749,0.70759 0.525332,0.2286 1.09355,0.1237 l -0.0042,0.01 z"
         style="font-style:normal;font-variant:normal;font-weight:normal;font-stretch:normal;font-family:'0xA000';-inkscape-font-specification:'0xA000, ';fill:#ffffff"
         id="path6128"
         inkscape:connector-curvature="0" />
      <path
         d="m 31.299438,104.4842 q -0.503439,0.0237 -1.05589,-0.12801 -0.542407,-0.149 -0.953023,-0.42384 -1.108337,-0.92021 -1.301309,-2.30193 -0.0265,-0.4934 0.1225,-1.0358 0.15176,-0.55246 0.429355,-0.973116 0.910164,-1.111097 2.291888,-1.304068 0.496154,-0.03655 1.03856,0.112455 0.552452,0.15176 0.970353,0.4394 1.105578,0.930253 1.304068,2.291889 l -1.135036,-0.3118 q -0.0234,-0.19007 -0.176396,-0.45895 -0.152991,-0.26888 -0.304434,-0.3861 -0.373753,-0.448356 -0.926204,-0.600116 -0.542407,-0.149001 -1.082709,0.04826 -0.200117,0.02065 -0.468998,0.173636 -0.266121,0.142947 -0.3861,0.304434 -0.438309,0.376516 -0.590069,0.928966 -0.149,0.5424 0.03821,1.07995 0.01789,0.21016 0.160832,0.47628 0.155751,0.25884 0.327283,0.38157 0.366468,0.43555 0.908874,0.58455 0.552452,0.15176 1.100039,-0.0327 0.200117,-0.0207 0.458953,-0.1764 0.268881,-0.15299 0.38886,-0.31448 l 1.135036,0.3118 q -0.917449,1.09829 -2.294647,1.31411 z"
         style="font-style:normal;font-variant:normal;font-weight:normal;font-stretch:normal;font-family:'0xA000';-inkscape-font-specification:'0xA000, ';fill:#ffffff"
         id="path6130"
         inkscape:connector-curvature="0" />
      <path
         d="m 39.586136,104.19363 -0.01032,-0.001 q -0.04803,-0.18539 -0.234823,-0.43198 -0.186796,-0.2466 -0.35225,-0.34304 l 0.0014,-0.0103 q -0.07828,-0.0423 -0.262948,-0.15195 -0.183244,-0.11992 -0.252628,-0.15053 -0.06796,-0.0409 -0.236263,-0.11672 -0.168302,-0.0758 -0.320238,-0.1178 -0.151935,-0.042 -0.398165,-0.0865 -0.234487,-0.0534 -0.533735,-0.0947 l -1.135078,-0.15663 -0.439972,3.18854 -0.928701,-0.12815 1.139087,-8.255113 0.928701,0.128148 -0.569544,4.127555 1.135078,0.15663 2.348551,-1.77901 0.9287,0.12815 q -0.952586,0.73081 -2.34855,1.779 l -0.928701,-0.12814 q 1.042209,0.14381 2.033878,0.50147 1.217597,0.7779 1.592212,2.10195 0.07573,1.05147 -0.06808,2.09368 l -0.93902,-0.12957 q 0.04129,-0.29925 0.0534,-0.53943 0.02385,-0.24908 0.02457,-0.40671 7.2e-4,-0.15763 -0.02667,-0.34017 -0.02739,-0.18254 -0.04838,-0.25905 -0.01067,-0.0751 -0.07649,-0.28395 -0.0555,-0.20745 -0.07506,-0.29427 z"
         style="font-style:normal;font-variant:normal;font-weight:normal;font-stretch:normal;font-family:'0xA000';-inkscape-font-specification:'0xA000, ';fill:#ffffff"
         id="path6132"
         inkscape:connector-curvature="0" />
      <path
         d="m 48.2154,106.71806 -4.166431,-0.0443 0.0022,-0.20832 q -1.306112,-0.60767 -1.84454,-1.89472 -0.151257,-0.47039 -0.145276,-1.03285 0.0061,-0.57289 0.167428,-1.05037 0.597257,-1.30622 1.884305,-1.84465 0.470495,-0.16167 1.032963,-0.15569 0.572885,0.006 1.050252,0.17784 1.306002,0.61809 1.844652,1.88431 l 0.218737,0.002 -3.26332,3.19465 3.228984,0.0343 -0.01,0.93745 z m -4.156462,-0.98176 q 1.252804,-1.23674 2.105368,-2.06106 l 1.147536,-1.13369 -0.447891,-0.005 q -0.07103,-0.17785 -0.287441,-0.39891 -0.216412,-0.22106 -0.39271,-0.29586 -0.475595,-0.33841 -1.048479,-0.3445 -0.562469,-0.006 -1.034737,0.32235 -0.188264,0.0709 -0.409328,0.28733 -0.220953,0.20599 -0.295859,0.39271 -0.327994,0.4757 -0.334086,1.04859 -0.006,0.56247 0.311933,1.03462 0.07081,0.19868 0.276804,0.41964 0.216522,0.21065 0.413653,0.28566 l -0.0048,0.44789 z"
         style="font-style:normal;font-variant:normal;font-weight:normal;font-stretch:normal;font-family:'0xA000';-inkscape-font-specification:'0xA000, ';fill:#ffffff"
         id="path6134"
         inkscape:connector-curvature="0" />
      <path
         d="m 50.217058,101.33998 q 0.443031,-0.50347 0.908195,-0.77885 0.474525,-0.28675 1.179547,-0.35516 0.559871,-0.0543 1.052894,0.0653 l 0.113676,1.17158 q -0.509119,-0.2855 -1.079357,-0.23017 -0.559871,0.0543 -0.994239,0.43137 l -0.002,-0.0207 q -0.08828,0.0609 -0.374869,0.23522 -0.27622,0.17332 -0.441409,0.30447 -0.155828,0.11978 -0.255792,0.27599 l 0.402393,4.14719 -0.933118,0.0905 -0.60359,-6.22078 0.933118,-0.0905 0.09456,0.97459 z"
         style="font-style:normal;font-variant:normal;font-weight:normal;font-stretch:normal;font-family:'0xA000';-inkscape-font-specification:'0xA000, ';fill:#ffffff"
         id="path6136"
         inkscape:connector-curvature="0" />
      <path
         d="m 53.921969,97.873477 -0.372898,-2.14491 0.933909,-0.162362 0.372897,2.14491 -0.933908,0.162362 z m 1.27469,1.797819 1.086577,6.250004 -0.933908,0.16236 -1.086577,-6.250002 0.933908,-0.162362 z"
         style="font-style:normal;font-variant:normal;font-weight:normal;font-stretch:normal;font-family:'0xA000';-inkscape-font-specification:'0xA000, ';fill:#ffffff"
         id="path6138"
         inkscape:connector-curvature="0" />
      <path
         d="m 63.978321,104.12659 -4.019105,1.09905 -0.05495,-0.20095 q -1.422632,-0.22653 -2.293121,-1.31678 -0.274359,-0.41093 -0.422731,-0.95351 -0.151119,-0.55263 -0.126793,-1.05604 0.216475,-1.41988 1.306725,-2.290373 0.408188,-0.284407 0.950767,-0.432779 0.552627,-0.151119 1.058786,-0.116745 1.42538,0.23657 2.290373,1.306727 l 0.211003,-0.0577 -2.263043,3.96657 3.114806,-0.85177 0.247286,0.9043 z m -4.266391,0.19475 q 0.865969,-1.5327 1.460028,-2.55907 l 0.792968,-1.40475 -0.432054,0.11815 q -0.117044,-0.15158 -0.385747,-0.30488 -0.268703,-0.15331 -0.458748,-0.17693 -0.550121,-0.195138 -1.102748,-0.04402 -0.542579,0.14837 -0.906804,0.59354 -0.161627,0.1198 -0.31493,0.3885 -0.15605,0.25865 -0.176927,0.45875 -0.185091,0.54737 -0.03397,1.1 0.148371,0.54258 0.583495,0.90955 0.122539,0.17167 0.381194,0.32772 0.265956,0.14326 0.476096,0.16139 l 0.118148,0.43205 z"
         style="font-style:normal;font-variant:normal;font-weight:normal;font-stretch:normal;font-family:'0xA000';-inkscape-font-specification:'0xA000, ';fill:#ffffff"
         id="path6140"
         inkscape:connector-curvature="0" />
      <path
         d="m 67.256254,102.91849 q -0.796402,0.33653 -1.588085,0.0152 -0.795738,-0.33096 -1.132263,-1.12736 l -2.432711,-5.757117 0.853972,-0.360852 0.810904,1.91904 2.974511,-1.256901 0.368962,0.873163 -2.974512,1.256901 1.252846,2.964916 q 0.187994,0.41813 0.619245,0.60909 0.436791,0.1773 0.87817,-0.009 l 0.0041,0.01 1.91904,-0.8109 0.364906,0.86357 -1.919039,0.8109 z"
         style="font-style:normal;font-variant:normal;font-weight:normal;font-stretch:normal;font-family:'0xA000';-inkscape-font-specification:'0xA000, ';fill:#ffffff"
         id="path6142"
         inkscape:connector-curvature="0" />
      <path
         d="m 70.863487,98.952264 1.001125,1.827026 -0.831297,0.45551 -1.001125,-1.827024 0.831297,-0.455512 z"
         style="font-style:normal;font-variant:normal;font-weight:normal;font-stretch:normal;font-family:'0xA000';-inkscape-font-specification:'0xA000, ';fill:#ffffff"
         id="path6144"
         inkscape:connector-curvature="0" />
      <path
         d="M 76.757128,95.127205 Q 76.576762,94.884878 76.417,94.705127 76.259376,94.5108 76.14937,94.397898 q -0.110005,-0.112903 -0.257517,-0.223859 -0.147513,-0.110956 -0.216118,-0.15079 -0.06025,-0.04605 -0.253624,-0.148844 -0.18502,-0.109009 -0.259845,-0.1572 l -0.0084,0.0062 q -0.164225,-0.09852 -0.470313,-0.143385 -0.306088,-0.04487 -0.491678,0.0024 l -0.0062,-0.0084 q -0.08551,0.02469 -0.294029,0.07601 -0.214742,0.04297 -0.285674,0.06979 -0.07715,0.01847 -0.250302,0.08242 -0.173152,0.06395 -0.310932,0.140533 -0.137781,0.07658 -0.344547,0.217493 -0.204629,0.126337 -0.446956,0.306703 -0.361449,0.282015 -0.438176,0.754655 -0.07459,0.458064 0.205289,0.834089 l -0.0084,0.0062 2.487811,3.342441 -0.743693,0.553537 -2.487811,-3.34244 q -0.516221,-0.693556 -0.392299,-1.538943 0.117701,-0.853742 0.811258,-1.369963 0.843966,-0.628172 1.80183,-1.068427 1.413601,-0.299007 2.609038,0.382446 0.791211,0.696644 1.419383,1.54061 l 1.243906,1.671221 -0.760406,0.565977 -1.243905,-1.671221 z"
         style="font-style:normal;font-variant:normal;font-weight:normal;font-stretch:normal;font-family:'0xA000';-inkscape-font-specification:'0xA000, ';fill:#ffffff"
         id="path6146"
         inkscape:connector-curvature="0" />
      <path
         d="m 82.6118,92.100976 q -0.196697,0.464031 -0.572806,0.896207 -0.369271,0.424318 -0.794862,0.675341 -1.309522,0.600289 -2.638456,0.175633 -0.456173,-0.189859 -0.880491,-0.55913 -0.432176,-0.376109 -0.691056,-0.808539 -0.607128,-1.301664 -0.182472,-2.630598 0.182002,-0.463011 0.551272,-0.887329 0.376109,-0.432175 0.816397,-0.684218 1.317379,-0.593451 2.630598,-0.182471 0.470869,0.18884 0.903044,0.564948 0.424318,0.369271 0.668503,0.80272 0.592431,1.302684 0.190329,2.637436 z m -0.887924,-0.772732 q 0.06809,-0.189308 0.03984,-0.490068 -0.02141,-0.308617 -0.114978,-0.486712 -0.134771,-0.559173 -0.559089,-0.928443 -0.432175,-0.376109 -1.012458,-0.439225 -0.18145,-0.06125 -0.490068,-0.03984 -0.308617,0.02141 -0.479873,0.107121 -0.566011,0.142629 -0.94212,0.574804 -0.369271,0.424318 -0.425549,0.996743 -0.06809,0.189308 -0.04668,0.497925 0.01355,0.30178 0.10712,0.479874 0.149467,0.558154 0.581643,0.934262 0.424318,0.369271 0.989904,0.433406 0.197166,0.07492 0.498945,0.06137 0.30076,-0.02824 0.485693,-0.129674 0.551315,-0.14161 0.920585,-0.565927 0.376109,-0.432176 0.447083,-1.00562 z"
         style="font-style:normal;font-variant:normal;font-weight:normal;font-stretch:normal;font-family:'0xA000';-inkscape-font-specification:'0xA000, ';fill:#ffffff"
         id="path6148"
         inkscape:connector-curvature="0" />
    </g>
  </g>
</svg>
