<?xml version="1.0" encoding="UTF-8" standalone="no"?>
<!-- Created with Inkscape (http://www.inkscape.org/) -->

<svg
   xmlns:dc="http://purl.org/dc/elements/1.1/"
   xmlns:cc="http://creativecommons.org/ns#"
   xmlns:rdf="http://www.w3.org/1999/02/22-rdf-syntax-ns#"
   xmlns:svg="http://www.w3.org/2000/svg"
   xmlns="http://www.w3.org/2000/svg"
   xmlns:sodipodi="http://sodipodi.sourceforge.net/DTD/sodipodi-0.dtd"
   xmlns:inkscape="http://www.inkscape.org/namespaces/inkscape"
   width="282.22223mm"
   height="282.2222mm"
   viewBox="0 0 1000 999.99991"
   id="svg5152"
   version="1.1"
   inkscape:version="0.91 r13725"
   sodipodi:docname="whiteonblack.svg">
  <defs
     id="defs5154" />
  <sodipodi:namedview
     id="base"
     pagecolor="#ffff00"
     bordercolor="#666666"
     borderopacity="1.0"
     inkscape:pageopacity="0"
     inkscape:pageshadow="2"
     inkscape:zoom="0.43900002"
     inkscape:cx="-164.00909"
     inkscape:cy="493.16627"
     inkscape:document-units="px"
     inkscape:current-layer="layer1"
     showgrid="false"
     fit-margin-top="0"
     fit-margin-left="0"
     fit-margin-right="0"
     fit-margin-bottom="0"
     inkscape:window-width="1314"
     inkscape:window-height="846"
     inkscape:window-x="167"
     inkscape:window-y="18"
     inkscape:window-maximized="0" />
  <metadata
     id="metadata5157">
    <rdf:RDF>
      <cc:Work
         rdf:about="">
        <dc:format>image/svg+xml</dc:format>
        <dc:type
           rdf:resource="http://purl.org/dc/dcmitype/StillImage" />
        <dc:title></dc:title>
      </cc:Work>
    </rdf:RDF>
  </metadata>
  <g
     inkscape:label="Layer 1"
     inkscape:groupmode="layer"
     id="layer1"
     transform="translate(26.998065,-25.528524)">
    <g
       transform="matrix(10,0,0,10,-0.42423743,51.912222)"
       style="display:inline;opacity:1;enable-background:new"
       id="g5127">
      <path
         inkscape:connector-curvature="0"
         id="path1366"
         d="m 47.342619,-1.5309401 c -27.01681,0 -48.9120628,21.8836841 -48.9120628,48.8862251 0,27.002536 21.8952528,48.886224 48.9120628,48.886224 27.01681,0 48.912062,-21.883688 48.912062,-48.886224 0,-27.002541 -21.895252,-48.8862251 -48.912062,-48.8862251 z"
         style="display:inline;fill:#ffffff;fill-opacity:1;stroke:none;enable-background:new" />
      <path
         inkscape:connector-curvature="0"
         id="path1351"
         d="M 45.627602,-1.5168244 C 27.828627,-1.0519772 10.822907,10.032738 3.25035,26.15898 1.7528611,29.242123 0.62001176,32.496312 -0.1820754,35.82407 l 1.1881473,0 c 2.6277981,-1.549758 6.5054282,-0.309349 9.4061661,0.09896 7.895217,1.703028 15.738539,4.835122 23.960969,3.727493 3.949314,-0.790118 7.477868,0.938515 10.528305,3.265679 6.281151,4.525072 11.24335,10.945784 18.614308,13.887382 4.030492,2.215382 8.427529,2.739899 12.937603,2.375039 4.25255,0.389192 8.857611,0.658191 12.706575,-1.352453 2.884429,-0.957154 4.667735,4.878368 5.016622,3.628532 C 99.470689,44.415268 94.435018,24.700019 81.503049,12.370558 72.494786,3.5064557 59.989263,-1.5817438 47.343815,-1.5168244 c -0.575548,-0.0073 -1.142052,-0.014995 -1.716213,0 z"
         style="display:inline;fill:#000000;enable-background:new" />
      <path
         id="path3243-2"
         d="m 21.269382,19.943374 c -2.303733,0.257714 -4.78049,0.679637 -6.897855,1.385439 l 0.132016,7.685891 c -1.786888,0.882645 -3.465681,2.186954 -4.9836177,3.364639 L 2.5230581,29.377557 c -0.9806746,1.110846 -1.85872276,2.31484 -2.64032722,3.562559 -0.33750258,1.112272 -0.59823626,2.253698 -0.85810635,3.397626 l 4.85160127,4.618132 c -0.478963,1.812114 -0.7946571,3.526337 -1.0231268,5.277865 -1.6883687,0.669055 -3.36234973,1.372858 -5.0496258,2.045172 0.053867,2.92396 0.3519859,5.798424 0.8911104,8.576531 2.09729951,-0.04994 4.2062605,-0.08739 6.3037813,-0.131947 0.9089084,1.683352 1.8976645,3.030426 2.9703682,4.453199 l -3.0033723,7.026158 c 1.8889599,1.730984 4.047363,3.05205 6.3037812,4.156319 l 5.280655,-5.475785 c 1.967508,0.659343 3.885947,0.922793 5.874728,1.121546 l 2.90436,7.125118 c 2.369215,-0.230567 4.714411,-0.648934 6.897855,-1.38544 l -0.132017,-7.685891 c 1.978822,-1.002327 3.425377,-2.067275 4.983618,-3.364639 l 7.029871,3.001786 c 1.816533,-1.915544 3.033301,-4.00468 4.158516,-6.300451 L 42.755045,54.11755 c 0.500974,-1.741095 0.791443,-3.491584 0.990122,-5.277865 2.358791,-0.934713 4.733788,-1.91301 7.09588,-2.836853 -0.07328,-2.672828 -0.592785,-5.378911 -1.584197,-7.817837 -2.535626,0.06604 -5.087093,0.111048 -7.623944,0.164933 -0.880538,-1.573032 -1.941376,-3.108437 -3.003373,-4.453199 L 41.66591,26.870572 C 39.63136,25.140326 37.545547,23.79787 35.329124,22.714253 l -5.280654,5.475785 c -1.928167,-0.590488 -3.902502,-0.93015 -5.874728,-1.121546 l -2.90436,-7.125118 z"
         style="color:#000000;display:inline;overflow:visible;visibility:visible;fill:#ffffff;fill-opacity:1;fill-rule:nonzero;stroke:none;stroke-width:1.16573465;marker:none;enable-background:new"
         inkscape:connector-curvature="0" />
      <path
         id="path3243-2-0"
         d="m 69.950415,19.580521 c -2.664528,0.191183 -5.085136,0.671611 -7.42592,1.451412 l 0.06601,7.586931 c -1.789363,0.92959 -3.442704,2.086545 -4.983618,3.331653 L 50.54401,28.915744 c -1.462408,1.797669 -2.912241,3.818942 -3.927487,5.805652 l 5.478679,5.409811 c -0.655516,1.881332 -0.964368,3.968266 -1.221151,5.871625 l -7.09588,2.770879 c 0.136657,2.541352 0.681258,5.071432 1.45218,7.421998 l 7.623945,-0.09896 c 0.929178,1.628024 1.938016,3.076855 3.003373,4.486185 -1.026896,2.319095 -2.032521,4.64652 -3.069381,6.960185 1.977715,1.971968 4.175175,3.295429 6.600818,4.453198 1.762224,-1.823381 3.542051,-3.627216 5.313659,-5.442798 1.828783,0.563923 3.517786,0.825238 5.280654,1.08856 l 2.772344,7.125117 c 2.561207,-0.08867 5.042128,-0.658323 7.42592,-1.451412 l -0.09901,-7.619918 c 1.865712,-0.908039 3.458743,-2.080195 5.016622,-3.331652 l 7.029871,3.067759 c 0.969893,-1.157775 1.876912,-2.375956 2.673332,-3.628532 0.277334,-0.911793 0.50079,-1.837529 0.72609,-2.77088 l -4.91761,-4.816051 c 0.708483,-2.101155 0.986545,-3.854672 1.188147,-5.871625 l 5.08263,-2.012186 c -0.05683,-2.786713 -0.326641,-5.49254 -0.825102,-8.147704 l -6.237773,0.06597 c -0.863673,-1.592789 -1.859393,-3.072936 -2.970368,-4.486185 1.026914,-2.319108 2.03249,-4.646515 3.06938,-6.960185 -1.926665,-1.855058 -4.216329,-3.44114 -6.633822,-4.486185 -1.762224,1.823411 -3.542036,3.660188 -5.313659,5.475785 -1.731179,-0.505115 -3.580131,-0.873379 -5.280654,-1.08856 l -2.73934,-7.125117 z"
         style="color:#000000;display:inline;overflow:visible;visibility:visible;fill:#000000;fill-opacity:1;fill-rule:nonzero;stroke:none;stroke-width:1.16573465;marker:none;enable-background:new"
         inkscape:connector-curvature="0" />
      <path
         d="m 78.853696,49.778475 0,-5.760277 -14.904978,0 0,5.760277 14.904978,0 z"
         id="rect3139"
         inkscape:connector-curvature="0"
         style="display:inline;fill:#ffffff;fill-opacity:1;enable-background:new" />
      <path
         id="path3938"
         style="display:inline;fill:#000000;fill-opacity:1;stroke:none;enable-background:new"
         d="m 14.793334,49.763676 5.786321,0 0,5.95355 5.569711,0 0,-5.95355 5.786321,0 0,-5.730279 -5.786321,0 0,-5.95395 -5.569711,0 0,5.954149 -5.786321,0 0,5.73008 z"
         inkscape:connector-curvature="0" />
      <path
         inkscape:connector-curvature="0"
         id="path9351"
         d="m -2.6573828,47.361627 c 0,27.61171 22.3764618,49.999999 49.9735848,49.999999 27.597125,0 50.026413,-22.388289 50.026413,-49.999999 0,-27.611709 -22.429288,-49.9999968 -50.026413,-49.9999968 -27.597123,0 -49.9735848,22.3882878 -49.9735848,49.9999968 z m 2.37717896,0 c 0,-26.332379 21.27793784,-47.6744158 47.59640584,-47.6744158 26.31847,0 47.649234,21.3420368 47.649234,47.6744158 0,26.33238 -21.330764,47.674417 -47.649234,47.674417 -26.318468,0 -47.59640584,-21.342037 -47.59640584,-47.674417 z"
         style="color:#000000;font-family:Sans;-inkscape-font-specification:Sans;display:inline;visibility:visible;fill:#ffffff;fill-opacity:1;stroke:none;stroke-width:1.39960635;marker:none" />
    </g>
  </g>
</svg>
