<?xml version="1.0" encoding="UTF-8" standalone="no"?>
<!-- Created with Inkscape (http://www.inkscape.org/) -->

<svg
   xmlns:dc="http://purl.org/dc/elements/1.1/"
   xmlns:cc="http://creativecommons.org/ns#"
   xmlns:rdf="http://www.w3.org/1999/02/22-rdf-syntax-ns#"
   xmlns:svg="http://www.w3.org/2000/svg"
   xmlns="http://www.w3.org/2000/svg"
   xmlns:sodipodi="http://sodipodi.sourceforge.net/DTD/sodipodi-0.dtd"
   xmlns:inkscape="http://www.inkscape.org/namespaces/inkscape"
   width="100.00001"
   height="100"
   id="svg53383"
   sodipodi:version="0.32"
   inkscape:version="0.48.1 r9760"
   sodipodi:docname="comotion-sjn-transparent-1.svg"
   inkscape:output_extension="org.inkscape.output.svg.inkscape"
   version="1.1"
   inkscape:export-filename="/home/sjn/Dropbox/Hackeriet/Logos/comotion-sjn-reclaim-5-179x179.png"
   inkscape:export-xdpi="161.10001"
   inkscape:export-ydpi="161.10001"
   style="enable-background:new">
  <defs
     id="defs3" />
  <sodipodi:namedview
     inkscape:showpageshadow="false"
     id="base"
     pagecolor="#ffffff"
     bordercolor="#666666"
     borderopacity="0.11764706"
     inkscape:pageopacity="0.0"
     inkscape:pageshadow="2"
     inkscape:zoom="4.6897857"
     inkscape:cx="60.086268"
     inkscape:cy="43.232181"
     inkscape:current-layer="layer4"
     showgrid="false"
     inkscape:grid-bbox="true"
     inkscape:document-units="px"
     inkscape:window-width="1280"
     inkscape:window-height="776"
     inkscape:window-x="0"
     inkscape:window-y="24"
     showguides="false"
     inkscape:guide-bbox="true"
     inkscape:window-maximized="1"
     fit-margin-top="0"
     fit-margin-left="0"
     fit-margin-right="0"
     fit-margin-bottom="0"
     inkscape:snap-global="true"
     borderlayer="true" />
  <metadata
     id="metadata4">
    <rdf:RDF>
      <cc:Work
         rdf:about="">
        <dc:format>image/svg+xml</dc:format>
        <dc:type
           rdf:resource="http://purl.org/dc/dcmitype/StillImage" />
        <dc:title></dc:title>
        <dc:creator>
          <cc:Agent>
            <dc:title>Jakub Steiner</dc:title>
          </cc:Agent>
        </dc:creator>
        <dc:source>http://jimmac.musichall.cz/</dc:source>
        <dc:subject>
          <rdf:Bag>
            <rdf:li>system</rdf:li>
            <rdf:li>applications</rdf:li>
            <rdf:li>group</rdf:li>
            <rdf:li>category</rdf:li>
            <rdf:li>admin</rdf:li>
            <rdf:li>root</rdf:li>
          </rdf:Bag>
        </dc:subject>
        <cc:license
           rdf:resource="http://creativecommons.org/licenses/publicdomain/" />
      </cc:Work>
      <cc:License
         rdf:about="http://creativecommons.org/licenses/publicdomain/">
        <cc:permits
           rdf:resource="http://creativecommons.org/ns#Reproduction" />
        <cc:permits
           rdf:resource="http://creativecommons.org/ns#Distribution" />
        <cc:permits
           rdf:resource="http://creativecommons.org/ns#DerivativeWorks" />
      </cc:License>
    </rdf:RDF>
  </metadata>
  <g
     inkscape:groupmode="layer"
     id="layer2"
     inkscape:label="YingYang"
     style="display:inline"
     transform="translate(34.417291,2.4305521)" />
  <g
     inkscape:groupmode="layer"
     id="layer1"
     inkscape:label="Tannhjul"
     style="display:inline"
     transform="translate(5e-6,-5.0000001e-7)" />
  <g
     inkscape:groupmode="layer"
     id="layer3"
     inkscape:label="Plus/minus"
     style="display:inline"
     transform="translate(34.417291,2.4305521)" />
  <g
     inkscape:groupmode="layer"
     id="layer4"
     inkscape:label="Topp-sirkel"
     style="opacity:1;display:inline"
     transform="translate(2.657388,2.638372)">
    <g
       id="g4129"
       transform="matrix(1.0561309,0,0,1.055573,-2.6573822,-2.6383707)">
      <path
         inkscape:connector-curvature="0"
         id="path1366"
         transform="translate(-2.657383,-2.6383725)"
         d="M 50,3.6875 C 24.419071,3.6875 3.6875,24.419069 3.6875,50 3.6875,75.580928 24.419071,96.3125 50,96.3125 75.58093,96.3125 96.3125,75.580928 96.3125,50 96.3125,24.419069 75.58093,3.6875 50,3.6875 z"
         style="fill:#ffffff;fill-opacity:1;stroke:none;display:inline;enable-background:new" />
      <path
         inkscape:connector-curvature="0"
         id="path1351"
         d="m 45.71875,1.0625 c -16.853001,0.4403743 -32.954907,10.94151 -40.125,26.21875 -1.4179009,2.920824 -2.4905419,6.003689 -3.25,9.15625 l 1.125,0 c 2.4881368,-1.468168 6.1596799,-0.293063 8.90625,0.09375 7.475605,1.613368 14.902073,4.580566 22.6875,3.53125 3.739417,-0.74852 7.080436,0.889105 9.96875,3.09375 5.947322,4.28684 10.645792,10.369519 17.625,13.15625 3.816281,2.098748 7.979626,2.595651 12.25,2.25 4.026537,0.368702 8.38685,0.623539 12.03125,-1.28125 2.731128,-0.906763 4.419656,4.621535 4.75,3.4375 5.012702,-16.142355 0.244665,-34.819651 -12,-46.5 C 71.158005,5.8213183 59.317122,1.0009984 47.34375,1.0625 c -0.544959,-0.00692 -1.081355,-0.014206 -1.625,0 z"
         style="fill:#000000;display:inline;enable-background:new" />
      <path
         transform="translate(-2.657388,-2.638372)"
         id="path3243-2"
         d="m 25.3125,24.03125 c -2.181295,0.244146 -4.526418,0.643856 -6.53125,1.3125 l 0.125,7.28125 c -1.691919,0.836176 -3.281488,2.071817 -4.71875,3.1875 l -6.625,-2.84375 c -0.9285541,1.052363 -1.759936,2.19297 -2.5,3.375 C 4.7429349,37.397464 4.4960586,38.478797 4.25,39.5625 l 4.59375,4.375 c -0.4535073,1.716711 -0.752423,3.340685 -0.96875,5 -1.5986359,0.633831 -3.1836487,1.300581 -4.78125,1.9375 0.051004,2.770021 0.3332787,5.493153 0.84375,8.125 1.9858329,-0.04731 3.9827075,-0.08279 5.96875,-0.125 0.860602,1.594728 1.796808,2.870882 2.8125,4.21875 L 9.875,69.75 c 1.788566,1.639853 3.832255,2.891368 5.96875,3.9375 l 5,-5.1875 c 1.86294,0.624631 3.679418,0.874211 5.5625,1.0625 l 2.75,6.75 C 31.399547,76.094072 33.620101,75.697731 35.6875,75 l -0.125,-7.28125 c 1.873652,-0.949557 3.243326,-1.958439 4.71875,-3.1875 L 46.9375,67.375 c 1.719988,-1.814696 2.872088,-3.793845 3.9375,-5.96875 l -5.21875,-5 c 0.474349,-1.649431 0.74938,-3.307761 0.9375,-5 2.233426,-0.885503 4.482198,-1.812295 6.71875,-2.6875 -0.06938,-2.532111 -0.56128,-5.095726 -1.5,-7.40625 -2.400864,0.06256 -4.816726,0.105202 -7.21875,0.15625 C 43.760011,39.978534 42.755554,38.523964 41.75,37.25 l 2.875,-6.65625 c -1.926418,-1.639153 -3.901375,-2.910932 -6,-3.9375 l -5,5.1875 c -1.825689,-0.5594 -3.695093,-0.88118 -5.5625,-1.0625 l -2.75,-6.75 z"
         style="color:#000000;fill:#ffffff;fill-opacity:1;fill-rule:nonzero;stroke:none;stroke-width:1.16573465;marker:none;visibility:visible;display:inline;overflow:visible;enable-background:new"
         inkscape:connector-curvature="0" />
      <path
         transform="translate(-2.657388,-2.638372)"
         id="path3243-2-0"
         d="m 71.40625,23.6875 c -2.522915,0.181118 -4.814873,0.636253 -7.03125,1.375 l 0.0625,7.1875 c -1.694263,0.880649 -3.259732,1.976694 -4.71875,3.15625 l -6.6875,-2.875 c -1.384684,1.703026 -2.757462,3.617885 -3.71875,5.5 l 5.1875,5.125 c -0.620677,1.782285 -0.913114,3.759347 -1.15625,5.5625 l -6.71875,2.625 c 0.129394,2.407557 0.64505,4.804435 1.375,7.03125 l 7.21875,-0.09375 c 0.879794,1.542313 1.835015,2.914867 2.84375,4.25 -0.972318,2.197001 -1.924497,4.401893 -2.90625,6.59375 1.872604,1.86815 3.953274,3.121934 6.25,4.21875 1.668566,-1.727385 3.353799,-3.436253 5.03125,-5.15625 1.731588,0.534234 3.330824,0.781791 5,1.03125 l 2.625,6.75 c 2.425085,-0.084 4.774151,-0.623665 7.03125,-1.375 L 81,67.375 c 1.766554,-0.860233 3.274919,-1.970678 4.75,-3.15625 l 6.65625,2.90625 c 0.918345,-1.096821 1.777158,-2.250868 2.53125,-3.4375 0.262595,-0.863789 0.474175,-1.740788 0.6875,-2.625 L 90.96875,56.5 c 0.670829,-1.990535 0.934112,-3.651734 1.125,-5.5625 l 4.8125,-1.90625 c -0.05381,-2.64 -0.309281,-5.203373 -0.78125,-7.71875 l -5.90625,0.0625 c -0.817771,-1.508933 -1.76057,-2.911154 -2.8125,-4.25 0.972336,-2.197013 1.924468,-4.401889 2.90625,-6.59375 -1.824267,-1.757395 -3.992241,-3.259974 -6.28125,-4.25 C 82.362684,28.008663 80.677465,29.748739 79,31.46875 77.360829,30.990228 75.610144,30.641352 74,30.4375 l -2.59375,-6.75 z"
         style="color:#000000;fill:#000000;fill-opacity:1;fill-rule:nonzero;stroke:none;stroke-width:1.16573465;marker:none;visibility:visible;display:inline;overflow:visible;enable-background:new"
         inkscape:connector-curvature="0" />
      <path
         d="m 45.419051,49.865064 0,-5.457015 -14.112813,0 0,5.457015 14.112813,0 z"
         id="rect3139"
         inkscape:connector-curvature="0"
         style="fill:#ffffff;fill-opacity:1;display:inline;enable-background:new"
         transform="translate(31.759903,-0.2078199)" />
      <path
         id="path3938"
         style="fill:#000000;fill-opacity:1;stroke:none;display:inline;enable-background:new"
         d="m -15.236652,49.851044 5.4787914,0 0,5.640112 5.273694,0 0,-5.640112 5.47879095,0 0,-5.428596 -5.47879095,0 0,-5.640491 -5.273694,0 0,5.64068 -5.4787914,0 0,5.428407 z"
         inkscape:connector-curvature="0"
         transform="translate(31.759903,-0.2078199)" />
      <path
         inkscape:connector-curvature="0"
         id="path9351"
         d="m 33.409828,1.9840869 c -26.1442117,0 -47.342615,21.1984031 -47.342615,47.3426141 0,26.144212 21.1984033,47.39266 47.342615,47.39266 26.144211,0 47.342614,-21.248448 47.342614,-47.39266 0,-26.144211 -21.198403,-47.3426141 -47.342614,-47.3426141 z m 0,2.2520271 c 24.932875,0 45.140632,20.157713 45.140632,45.090587 0,24.932875 -20.207757,45.140633 -45.140632,45.140633 -24.9328749,0 -45.140632,-20.207758 -45.140632,-45.140633 0,-24.932874 20.2077571,-45.090587 45.140632,-45.090587 z"
         style="color:#000000;fill:#000000;fill-opacity:1;stroke:none;stroke-width:1.39960635;marker:none;visibility:visible;display:inline;font-family:Sans;-inkscape-font-specification:Sans"
         transform="translate(13.932787,-1.9840869)" />
    </g>
  </g>
</svg>
