999
DXF created by Inkscape
  0
SECTION
  2
HEADER
  9
$ACADVER
  1
AC1014
  9
$HANDSEED
  5
FFFF
  9
$MEASUREMENT
 70
     1
  0
ENDSEC
  0
SECTION
  2
TABLES
  0
TABLE
  2
VPORT
  5
8
330
0
100
AcDbSymbolTable
 70
     4
  0
VPORT
  5
2E
330
8
100
AcDbSymbolTableRecord
100
AcDbViewportTableRecord
  2
*ACTIVE
 70
     0
 10
0.0
 20
0.0
 11
1.0
 21
1.0
 12
210.0
 22
148.5
 13
0.0
 23
0.0
 14
10.0
 24
10.0
 15
10.0
 25
10.0
 16
0.0
 26
0.0
 36
1.0
 17
0.0
 27
0.0
 37
0.0
 40
341.0
 41
1.24
 42
50.0
 43
0.0
 44
0.0
 50
0.0
 51
0.0
 71
     0
 72
   100
 73
     1
 74
     3
 75
     0
 76
     0
 77
     0
 78
     0
  0
ENDTAB
  0
TABLE
  2
LTYPE
  5
5
330
0
100
AcDbSymbolTable
 70
     1
  0
LTYPE
  5
14
330
5
100
AcDbSymbolTableRecord
100
AcDbLinetypeTableRecord
  2
BYBLOCK
 70
     0
  3

 72
    65
 73
     0
 40
0.0
  0
LTYPE
  5
15
330
5
100
AcDbSymbolTableRecord
100
AcDbLinetypeTableRecord
  2
BYLAYER
 70
     0
  3

 72
    65
 73
     0
 40
0.0
  0
LTYPE
  5
16
330
5
100
AcDbSymbolTableRecord
100
AcDbLinetypeTableRecord
  2
CONTINUOUS
 70
     0
  3
Solid line
 72
    65
 73
     0
 40
0.0
  0
ENDTAB
  0
TABLE
  2
LAYER
  5
2
330
0
100
AcDbSymbolTable
 70
1
  0
LAYER
  5
10
330
2
100
AcDbSymbolTableRecord
100
AcDbLayerTableRecord
  2
0
 70
     0
 62
     7
  6
CONTINUOUS
  0
ENDTAB
  0
TABLE
  2
STYLE
  5
3
330
0
100
AcDbSymbolTable
 70
     1
  0
STYLE
  5
11
330
3
100
AcDbSymbolTableRecord
100
AcDbTextStyleTableRecord
  2
STANDARD
 70
     0
 40
0.0
 41
1.0
 50
0.0
 71
     0
 42
2.5
  3
txt
  4

  0
ENDTAB
  0
TABLE
  2
VIEW
  5
6
330
0
100
AcDbSymbolTable
 70
     0
  0
ENDTAB
  0
TABLE
  2
UCS
  5
7
330
0
100
AcDbSymbolTable
 70
     0
  0
ENDTAB
  0
TABLE
  2
APPID
  5
9
330
0
100
AcDbSymbolTable
 70
     2
  0
APPID
  5
12
330
9
100
AcDbSymbolTableRecord
100
AcDbRegAppTableRecord
  2
ACAD
 70
     0
  0
ENDTAB
  0
TABLE
  2
DIMSTYLE
  5
A
330
0
100
AcDbSymbolTable
 70
     1
  0
DIMSTYLE
105
27
330
A
100
AcDbSymbolTableRecord
100
AcDbDimStyleTableRecord
  2
ISO-25
 70
     0
  3

  4

  5

  6

  7

 40
1.0
 41
2.5
 42
0.625
 43
3.75
 44
1.25
 45
0.0
 46
0.0
 47
0.0
 48
0.0
140
2.5
141
2.5
142
0.0
143
0.03937007874016
144
1.0
145
0.0
146
1.0
147
0.625
 71
     0
 72
     0
 73
     0
 74
     0
 75
     0
 76
     0
 77
     1
 78
     8
170
     0
171
     3
172
     1
173
     0
174
     0
175
     0
176
     0
177
     0
178
     0
270
     2
271
     2
272
     2
273
     2
274
     3
340
11
275
     0
280
     0
281
     0
282
     0
283
     0
284
     8
285
     0
286
     0
287
     3
288
     0
  0
ENDTAB
  0
TABLE
  2
BLOCK_RECORD
  5
1
330
0
100
AcDbSymbolTable
 70
     1
  0
BLOCK_RECORD
  5
1F
330
1
100
AcDbSymbolTableRecord
100
AcDbBlockTableRecord
  2
*MODEL_SPACE
  0
BLOCK_RECORD
  5
1B
330
1
100
AcDbSymbolTableRecord
100
AcDbBlockTableRecord
  2
*PAPER_SPACE
  0
ENDTAB
  0
ENDSEC
  0
SECTION
  2
BLOCKS
  0
BLOCK
  5
20
330
1F
100
AcDbEntity
  8
0
100
AcDbBlockBegin
  2
*MODEL_SPACE
 70
     0
 10
0.0
 20
0.0
 30
0.0
  3
*MODEL_SPACE
  1

  0
ENDBLK
  5
21
330
1F
100
AcDbEntity
  8
0
100
AcDbBlockEnd
  0
BLOCK
  5
1C
330
1B
100
AcDbEntity
 67
     1
  8
0
100
AcDbBlockBegin
  2
*PAPER_SPACE
  1

  0
ENDBLK
  5
1D
330
1B
100
AcDbEntity
 67
     1
  8
0
100
AcDbBlockEnd
  0
ENDSEC
  0
SECTION
  2
ENTITIES
  0
SPLINE
  5
100
100
AcDbEntity
  8
0
 62
7
100
AcDbSpline
 70
8
 71
3
 72
8
 73
4
 74
0
 40
0
 40
0
 40
0
 40
0
 40
1
 40
1
 40
1
 40
1
 10
132.946394
 20
135.343790
 30
0.0
 10
132.946394
 20
125.532899
 30
0.0
 10
127.795426
 20
116.467261
 30
0.0
 10
119.433810
 20
111.561816
 30
0.0
  0
SPLINE
  5
101
100
AcDbEntity
  8
0
 62
7
100
AcDbSpline
 70
8
 71
3
 72
8
 73
4
 74
0
 40
0
 40
0
 40
0
 40
0
 40
1
 40
1
 40
1
 40
1
 10
119.433810
 20
111.561816
 30
0.0
 10
111.072194
 20
106.656370
 30
0.0
 10
100.770258
 20
106.656370
 30
0.0
 10
92.408642
 20
111.561816
 30
0.0
  0
SPLINE
  5
102
100
AcDbEntity
  8
0
 62
7
100
AcDbSpline
 70
8
 71
3
 72
8
 73
4
 74
0
 40
0
 40
0
 40
0
 40
0
 40
1
 40
1
 40
1
 40
1
 10
92.408642
 20
111.561816
 30
0.0
 10
84.047026
 20
116.467261
 30
0.0
 10
78.896058
 20
125.532899
 30
0.0
 10
78.896058
 20
135.343790
 30
0.0
  0
SPLINE
  5
103
100
AcDbEntity
  8
0
 62
7
100
AcDbSpline
 70
8
 71
3
 72
8
 73
4
 74
0
 40
0
 40
0
 40
0
 40
0
 40
1
 40
1
 40
1
 40
1
 10
78.896058
 20
135.343790
 30
0.0
 10
78.896058
 20
145.154681
 30
0.0
 10
84.047026
 20
154.220319
 30
0.0
 10
92.408642
 20
159.125764
 30
0.0
  0
SPLINE
  5
104
100
AcDbEntity
  8
0
 62
7
100
AcDbSpline
 70
8
 71
3
 72
8
 73
4
 74
0
 40
0
 40
0
 40
0
 40
0
 40
1
 40
1
 40
1
 40
1
 10
92.408642
 20
159.125764
 30
0.0
 10
100.770258
 20
164.031210
 30
0.0
 10
111.072194
 20
164.031210
 30
0.0
 10
119.433810
 20
159.125764
 30
0.0
  0
SPLINE
  5
105
100
AcDbEntity
  8
0
 62
7
100
AcDbSpline
 70
8
 71
3
 72
8
 73
4
 74
0
 40
0
 40
0
 40
0
 40
0
 40
1
 40
1
 40
1
 40
1
 10
119.433810
 20
159.125764
 30
0.0
 10
127.795426
 20
154.220319
 30
0.0
 10
132.946394
 20
145.154681
 30
0.0
 10
132.946394
 20
135.343790
 30
0.0
  0
SPLINE
  5
106
100
AcDbEntity
  8
0
 62
7
100
AcDbSpline
 70
8
 71
3
 72
8
 73
4
 74
0
 40
0
 40
0
 40
0
 40
0
 40
1
 40
1
 40
1
 40
1
 10
14.111111
 20
204.699306
 30
0.0
 10
6.891604
 20
204.699306
 30
0.0
 10
1.040694
 20
198.848396
 30
0.0
 10
1.040694
 20
191.628889
 30
0.0
  0
SPLINE
  5
107
100
AcDbEntity
  8
0
 62
7
100
AcDbSpline
 70
8
 71
3
 72
8
 73
4
 74
0
 40
0
 40
0
 40
0
 40
0
 40
1
 40
1
 40
1
 40
1
 10
1.040694
 20
191.628889
 30
0.0
 10
1.040694
 20
184.409383
 30
0.0
 10
6.891604
 20
178.558472
 30
0.0
 10
14.111111
 20
178.558472
 30
0.0
  0
SPLINE
  5
108
100
AcDbEntity
  8
0
 62
7
100
AcDbSpline
 70
8
 71
3
 72
8
 73
4
 74
0
 40
0
 40
0
 40
0
 40
0
 40
1
 40
1
 40
1
 40
1
 10
14.111111
 20
178.558472
 30
0.0
 10
21.330618
 20
178.558472
 30
0.0
 10
27.181528
 20
184.409383
 30
0.0
 10
27.181528
 20
191.628889
 30
0.0
  0
SPLINE
  5
109
100
AcDbEntity
  8
0
 62
7
100
AcDbSpline
 70
8
 71
3
 72
8
 73
4
 74
0
 40
0
 40
0
 40
0
 40
0
 40
1
 40
1
 40
1
 40
1
 10
27.181528
 20
191.628889
 30
0.0
 10
27.181528
 20
198.848396
 30
0.0
 10
21.330618
 20
204.699306
 30
0.0
 10
14.111111
 20
204.699306
 30
0.0
  0
LWPOLYLINE
  5
10a
100
AcDbEntity
  8
0
 62
7
100
AcDbPolyline
 90
2
 70
0
 10
132.946394
 20
135.343790
 30
0.0
 10
132.946394
 20
135.343790
 30
0.0
  0
SPLINE
  5
10b
100
AcDbEntity
  8
0
 62
7
100
AcDbSpline
 70
8
 71
3
 72
8
 73
4
 74
0
 40
0
 40
0
 40
0
 40
0
 40
1
 40
1
 40
1
 40
1
 10
12.902847
 20
205.440139
 30
0.0
 10
8.146556
 20
205.315855
 30
0.0
 10
3.602240
 20
202.352202
 30
0.0
 10
1.578681
 20
198.040625
 30
0.0
  0
SPLINE
  5
10c
100
AcDbEntity
  8
0
 62
7
100
AcDbSpline
 70
8
 71
3
 72
8
 73
4
 74
0
 40
0
 40
0
 40
0
 40
0
 40
1
 40
1
 40
1
 40
1
 10
1.578681
 20
198.040625
 30
0.0
 10
1.178517
 20
197.216304
 30
0.0
 10
0.875794
 20
196.346251
 30
0.0
 10
0.661458
 20
195.456528
 30
0.0
  0
LWPOLYLINE
  5
10d
100
AcDbEntity
  8
0
 62
7
100
AcDbPolyline
 90
2
 70
0
 10
14.111111
 20
204.699306
 30
0.0
 10
14.111111
 20
204.699306
 30
0.0
  0
SPLINE
  5
10e
100
AcDbEntity
  8
0
 62
7
100
AcDbSpline
 70
8
 71
3
 72
8
 73
4
 74
0
 40
0
 40
0
 40
0
 40
0
 40
1
 40
1
 40
1
 40
1
 10
0.978958
 20
195.456528
 30
0.0
 10
1.681166
 20
195.870877
 30
0.0
 10
2.717357
 20
195.539237
 30
0.0
 10
3.492500
 20
195.430069
 30
0.0
  0
SPLINE
  5
10f
100
AcDbEntity
  8
0
 62
7
100
AcDbSpline
 70
8
 71
3
 72
8
 73
4
 74
0
 40
0
 40
0
 40
0
 40
0
 40
1
 40
1
 40
1
 40
1
 10
3.492500
 20
195.430069
 30
0.0
 10
5.602282
 20
194.974741
 30
0.0
 10
7.698196
 20
194.137332
 30
0.0
 10
9.895417
 20
194.433472
 30
0.0
  0
SPLINE
  5
110
100
AcDbEntity
  8
0
 62
7
100
AcDbSpline
 70
8
 71
3
 72
8
 73
4
 74
0
 40
0
 40
0
 40
0
 40
0
 40
1
 40
1
 40
1
 40
1
 10
9.895417
 20
194.433472
 30
0.0
 10
10.950763
 20
194.644721
 30
0.0
 10
11.893673
 20
194.182547
 30
0.0
 10
12.708819
 20
193.560347
 30
0.0
  0
SPLINE
  5
111
100
AcDbEntity
  8
0
 62
7
100
AcDbSpline
 70
8
 71
3
 72
8
 73
4
 74
0
 40
0
 40
0
 40
0
 40
0
 40
1
 40
1
 40
1
 40
1
 10
12.708819
 20
193.560347
 30
0.0
 10
14.387286
 20
192.350506
 30
0.0
 10
15.713299
 20
190.633839
 30
0.0
 10
17.682986
 20
189.847361
 30
0.0
  0
SPLINE
  5
112
100
AcDbEntity
  8
0
 62
7
100
AcDbSpline
 70
8
 71
3
 72
8
 73
4
 74
0
 40
0
 40
0
 40
0
 40
0
 40
1
 40
1
 40
1
 40
1
 10
17.682986
 20
189.847361
 30
0.0
 10
18.760025
 20
189.255048
 30
0.0
 10
19.935014
 20
189.114811
 30
0.0
 10
21.140208
 20
189.212361
 30
0.0
  0
SPLINE
  5
113
100
AcDbEntity
  8
0
 62
7
100
AcDbSpline
 70
8
 71
3
 72
8
 73
4
 74
0
 40
0
 40
0
 40
0
 40
0
 40
1
 40
1
 40
1
 40
1
 10
21.140208
 20
189.212361
 30
0.0
 10
22.276587
 20
189.108305
 30
0.0
 10
23.507164
 20
189.036385
 30
0.0
 10
24.535694
 20
189.573958
 30
0.0
  0
SPLINE
  5
114
100
AcDbEntity
  8
0
 62
7
100
AcDbSpline
 70
8
 71
3
 72
8
 73
4
 74
0
 40
0
 40
0
 40
0
 40
0
 40
1
 40
1
 40
1
 40
1
 10
24.535694
 20
189.573958
 30
0.0
 10
25.306479
 20
189.829867
 30
0.0
 10
25.783020
 20
188.269658
 30
0.0
 10
25.876250
 20
188.603819
 30
0.0
  0
SPLINE
  5
115
100
AcDbEntity
  8
0
 62
7
100
AcDbSpline
 70
8
 71
3
 72
8
 73
4
 74
0
 40
0
 40
0
 40
0
 40
0
 40
1
 40
1
 40
1
 40
1
 10
25.876250
 20
188.603819
 30
0.0
 10
27.290946
 20
193.159551
 30
0.0
 10
25.945300
 20
198.430699
 30
0.0
 10
22.489583
 20
201.727153
 30
0.0
  0
SPLINE
  5
116
100
AcDbEntity
  8
0
 62
7
100
AcDbSpline
 70
8
 71
3
 72
8
 73
4
 74
0
 40
0
 40
0
 40
0
 40
0
 40
1
 40
1
 40
1
 40
1
 10
22.489583
 20
201.727153
 30
0.0
 10
20.082370
 20
204.097095
 30
0.0
 10
16.740610
 20
205.457496
 30
0.0
 10
13.361458
 20
205.440139
 30
0.0
  0
SPLINE
  5
117
100
AcDbEntity
  8
0
 62
7
100
AcDbSpline
 70
8
 71
3
 72
8
 73
4
 74
0
 40
0
 40
0
 40
0
 40
0
 40
1
 40
1
 40
1
 40
1
 10
13.361458
 20
205.440139
 30
0.0
 10
13.207659
 20
205.442092
 30
0.0
 10
13.056276
 20
205.444148
 30
0.0
 10
12.902847
 20
205.440139
 30
0.0
  0
LWPOLYLINE
  5
118
100
AcDbEntity
  8
0
 62
7
100
AcDbPolyline
 90
2
 70
0
 10
0.661458
 20
195.456528
 30
0.0
 10
0.978958
 20
195.456528
 30
0.0
  0
SPLINE
  5
119
100
AcDbEntity
  8
0
 62
7
100
AcDbSpline
 70
8
 71
3
 72
8
 73
4
 74
0
 40
0
 40
0
 40
0
 40
0
 40
1
 40
1
 40
1
 40
1
 10
7.143750
 20
198.957847
 30
0.0
 10
6.528140
 20
198.888944
 30
0.0
 10
5.866294
 20
198.776137
 30
0.0
 10
5.300486
 20
198.587431
 30
0.0
  0
LWPOLYLINE
  5
11a
100
AcDbEntity
  8
0
 62
7
100
AcDbPolyline
 90
2
 70
0
 10
12.902847
 20
205.440139
 30
0.0
 10
12.902847
 20
205.440139
 30
0.0
  0
SPLINE
  5
11b
100
AcDbEntity
  8
0
 62
7
100
AcDbSpline
 70
8
 71
3
 72
8
 73
4
 74
0
 40
0
 40
0
 40
0
 40
0
 40
1
 40
1
 40
1
 40
1
 10
5.335764
 20
196.532500
 30
0.0
 10
4.858267
 20
196.296513
 30
0.0
 10
4.409655
 20
195.947787
 30
0.0
 10
4.004028
 20
195.632917
 30
0.0
  0
LWPOLYLINE
  5
11c
100
AcDbEntity
  8
0
 62
7
100
AcDbPolyline
 90
2
 70
0
 10
5.300486
 20
198.587431
 30
0.0
 10
5.335764
 20
196.532500
 30
0.0
  0
SPLINE
  5
11d
100
AcDbEntity
  8
0
 62
7
100
AcDbSpline
 70
8
 71
3
 72
8
 73
4
 74
0
 40
0
 40
0
 40
0
 40
0
 40
1
 40
1
 40
1
 40
1
 10
2.134306
 20
196.435486
 30
0.0
 10
1.872247
 20
196.138486
 30
0.0
 10
1.637613
 20
195.816581
 30
0.0
 10
1.428750
 20
195.482986
 30
0.0
  0
SPLINE
  5
11e
100
AcDbEntity
  8
0
 62
7
100
AcDbSpline
 70
8
 71
3
 72
8
 73
4
 74
0
 40
0
 40
0
 40
0
 40
0
 40
1
 40
1
 40
1
 40
1
 10
1.428750
 20
195.482986
 30
0.0
 10
1.338562
 20
195.185605
 30
0.0
 10
1.268888
 20
194.880428
 30
0.0
 10
1.199444
 20
194.574583
 30
0.0
  0
LWPOLYLINE
  5
11f
100
AcDbEntity
  8
0
 62
7
100
AcDbPolyline
 90
2
 70
0
 10
4.004028
 20
195.632917
 30
0.0
 10
2.134306
 20
196.435486
 30
0.0
  0
SPLINE
  5
120
100
AcDbEntity
  8
0
 62
7
100
AcDbSpline
 70
8
 71
3
 72
8
 73
4
 74
0
 40
0
 40
0
 40
0
 40
0
 40
1
 40
1
 40
1
 40
1
 10
2.495903
 20
193.339861
 30
0.0
 10
2.367913
 20
192.855367
 30
0.0
 10
2.283552
 20
192.397046
 30
0.0
 10
2.222500
 20
191.928750
 30
0.0
  0
SPLINE
  5
121
100
AcDbEntity
  8
0
 62
7
100
AcDbSpline
 70
8
 71
3
 72
8
 73
4
 74
0
 40
0
 40
0
 40
0
 40
0
 40
1
 40
1
 40
1
 40
1
 10
2.222500
 20
191.928750
 30
0.0
 10
1.771329
 20
191.749869
 30
0.0
 10
1.324004
 20
191.561697
 30
0.0
 10
0.873125
 20
191.381944
 30
0.0
  0
SPLINE
  5
122
100
AcDbEntity
  8
0
 62
7
100
AcDbSpline
 70
8
 71
3
 72
8
 73
4
 74
0
 40
0
 40
0
 40
0
 40
0
 40
1
 40
1
 40
1
 40
1
 10
0.873125
 20
191.381944
 30
0.0
 10
0.887519
 20
190.600183
 30
0.0
 10
0.967184
 20
189.831655
 30
0.0
 10
1.111250
 20
189.088889
 30
0.0
  0
SPLINE
  5
123
100
AcDbEntity
  8
0
 62
7
100
AcDbSpline
 70
8
 71
3
 72
8
 73
4
 74
0
 40
0
 40
0
 40
0
 40
0
 40
1
 40
1
 40
1
 40
1
 10
1.111250
 20
189.088889
 30
0.0
 10
1.671696
 20
189.102241
 30
0.0
 10
2.235259
 20
189.112254
 30
0.0
 10
2.795764
 20
189.124167
 30
0.0
  0
SPLINE
  5
124
100
AcDbEntity
  8
0
 62
7
100
AcDbSpline
 70
8
 71
3
 72
8
 73
4
 74
0
 40
0
 40
0
 40
0
 40
0
 40
1
 40
1
 40
1
 40
1
 10
2.795764
 20
189.124167
 30
0.0
 10
3.038645
 20
188.674099
 30
0.0
 10
3.302863
 20
188.313940
 30
0.0
 10
3.589514
 20
187.933542
 30
0.0
  0
LWPOLYLINE
  5
125
100
AcDbEntity
  8
0
 62
7
100
AcDbPolyline
 90
2
 70
0
 10
1.199444
 20
194.574583
 30
0.0
 10
2.495903
 20
193.339861
 30
0.0
  0
SPLINE
  5
126
100
AcDbEntity
  8
0
 62
7
100
AcDbSpline
 70
8
 71
3
 72
8
 73
4
 74
0
 40
0
 40
0
 40
0
 40
0
 40
1
 40
1
 40
1
 40
1
 10
2.786944
 20
186.055000
 30
0.0
 10
3.291718
 20
185.592197
 30
0.0
 10
3.868492
 20
185.238992
 30
0.0
 10
4.471458
 20
184.943750
 30
0.0
  0
LWPOLYLINE
  5
127
100
AcDbEntity
  8
0
 62
7
100
AcDbPolyline
 90
2
 70
0
 10
3.589514
 20
187.933542
 30
0.0
 10
2.786944
 20
186.055000
 30
0.0
  0
SPLINE
  5
128
100
AcDbEntity
  8
0
 62
7
100
AcDbSpline
 70
8
 71
3
 72
8
 73
4
 74
0
 40
0
 40
0
 40
0
 40
0
 40
1
 40
1
 40
1
 40
1
 10
5.882569
 20
186.407778
 30
0.0
 10
6.408333
 20
186.231493
 30
0.0
 10
6.920983
 20
186.161056
 30
0.0
 10
7.452431
 20
186.107917
 30
0.0
  0
LWPOLYLINE
  5
129
100
AcDbEntity
  8
0
 62
7
100
AcDbPolyline
 90
2
 70
0
 10
4.471458
 20
184.943750
 30
0.0
 10
5.882569
 20
186.407778
 30
0.0
  0
SPLINE
  5
12a
100
AcDbEntity
  8
0
 62
7
100
AcDbSpline
 70
8
 71
3
 72
8
 73
4
 74
0
 40
0
 40
0
 40
0
 40
0
 40
1
 40
1
 40
1
 40
1
 10
8.228542
 20
184.202917
 30
0.0
 10
8.861650
 20
184.264562
 30
0.0
 10
9.488340
 20
184.376418
 30
0.0
 10
10.071806
 20
184.573333
 30
0.0
  0
LWPOLYLINE
  5
12b
100
AcDbEntity
  8
0
 62
7
100
AcDbPolyline
 90
2
 70
0
 10
7.452431
 20
186.107917
 30
0.0
 10
8.228542
 20
184.202917
 30
0.0
  0
SPLINE
  5
12c
100
AcDbEntity
  8
0
 62
7
100
AcDbSpline
 70
8
 71
3
 72
8
 73
4
 74
0
 40
0
 40
0
 40
0
 40
0
 40
1
 40
1
 40
1
 40
1
 10
10.036528
 20
186.628264
 30
0.0
 10
10.565314
 20
186.896250
 30
0.0
 10
10.951866
 20
187.180979
 30
0.0
 10
11.368264
 20
187.527847
 30
0.0
  0
LWPOLYLINE
  5
12d
100
AcDbEntity
  8
0
 62
7
100
AcDbPolyline
 90
2
 70
0
 10
10.071806
 20
184.573333
 30
0.0
 10
10.036528
 20
186.628264
 30
0.0
  0
SPLINE
  5
12e
100
AcDbEntity
  8
0
 62
7
100
AcDbSpline
 70
8
 71
3
 72
8
 73
4
 74
0
 40
0
 40
0
 40
0
 40
0
 40
1
 40
1
 40
1
 40
1
 10
13.246806
 20
186.725278
 30
0.0
 10
13.732224
 20
187.237425
 30
0.0
 10
14.057373
 20
187.795985
 30
0.0
 10
14.358056
 20
188.409792
 30
0.0
  0
LWPOLYLINE
  5
12f
100
AcDbEntity
  8
0
 62
7
100
AcDbPolyline
 90
2
 70
0
 10
11.368264
 20
187.527847
 30
0.0
 10
13.246806
 20
186.725278
 30
0.0
  0
SPLINE
  5
130
100
AcDbEntity
  8
0
 62
7
100
AcDbSpline
 70
8
 71
3
 72
8
 73
4
 74
0
 40
0
 40
0
 40
0
 40
0
 40
1
 40
1
 40
1
 40
1
 10
12.885208
 20
189.820903
 30
0.0
 10
13.019080
 20
190.286409
 30
0.0
 10
13.096700
 20
190.754426
 30
0.0
 10
13.149792
 20
191.232014
 30
0.0
  0
SPLINE
  5
131
100
AcDbEntity
  8
0
 62
7
100
AcDbSpline
 70
8
 71
3
 72
8
 73
4
 74
0
 40
0
 40
0
 40
0
 40
0
 40
1
 40
1
 40
1
 40
1
 10
13.149792
 20
191.232014
 30
0.0
 10
13.780114
 20
191.481923
 30
0.0
 10
14.414768
 20
191.743484
 30
0.0
 10
15.045972
 20
191.990486
 30
0.0
  0
SPLINE
  5
132
100
AcDbEntity
  8
0
 62
7
100
AcDbSpline
 70
8
 71
3
 72
8
 73
4
 74
0
 40
0
 40
0
 40
0
 40
0
 40
1
 40
1
 40
1
 40
1
 10
15.045972
 20
191.990486
 30
0.0
 10
15.026392
 20
192.705104
 30
0.0
 10
14.887567
 20
193.428613
 30
0.0
 10
14.622639
 20
194.080694
 30
0.0
  0
SPLINE
  5
133
100
AcDbEntity
  8
0
 62
7
100
AcDbSpline
 70
8
 71
3
 72
8
 73
4
 74
0
 40
0
 40
0
 40
0
 40
0
 40
1
 40
1
 40
1
 40
1
 10
14.622639
 20
194.080694
 30
0.0
 10
13.945062
 20
194.063039
 30
0.0
 10
13.263252
 20
194.051004
 30
0.0
 10
12.585347
 20
194.036597
 30
0.0
  0
SPLINE
  5
134
100
AcDbEntity
  8
0
 62
7
100
AcDbSpline
 70
8
 71
3
 72
8
 73
4
 74
0
 40
0
 40
0
 40
0
 40
0
 40
1
 40
1
 40
1
 40
1
 10
12.585347
 20
194.036597
 30
0.0
 10
12.350048
 20
194.457169
 30
0.0
 10
12.066567
 20
194.867681
 30
0.0
 10
11.782778
 20
195.227222
 30
0.0
  0
LWPOLYLINE
  5
135
100
AcDbEntity
  8
0
 62
7
100
AcDbPolyline
 90
2
 70
0
 10
14.358056
 20
188.409792
 30
0.0
 10
12.885208
 20
189.820903
 30
0.0
  0
SPLINE
  5
136
100
AcDbEntity
  8
0
 62
7
100
AcDbSpline
 70
8
 71
3
 72
8
 73
4
 74
0
 40
0
 40
0
 40
0
 40
0
 40
1
 40
1
 40
1
 40
1
 10
12.594167
 20
197.105764
 30
0.0
 10
12.050489
 20
197.568369
 30
0.0
 10
11.493112
 20
197.927294
 30
0.0
 10
10.900833
 20
198.217014
 30
0.0
  0
LWPOLYLINE
  5
137
100
AcDbEntity
  8
0
 62
7
100
AcDbPolyline
 90
2
 70
0
 10
11.782778
 20
195.227222
 30
0.0
 10
12.594167
 20
197.105764
 30
0.0
  0
SPLINE
  5
138
100
AcDbEntity
  8
0
 62
7
100
AcDbSpline
 70
8
 71
3
 72
8
 73
4
 74
0
 40
0
 40
0
 40
0
 40
0
 40
1
 40
1
 40
1
 40
1
 10
9.489722
 20
196.752986
 30
0.0
 10
8.974472
 20
196.910861
 30
0.0
 10
8.446885
 20
197.001675
 30
0.0
 10
7.919861
 20
197.052847
 30
0.0
  0
LWPOLYLINE
  5
139
100
AcDbEntity
  8
0
 62
7
100
AcDbPolyline
 90
2
 70
0
 10
10.900833
 20
198.217014
 30
0.0
 10
9.489722
 20
196.752986
 30
0.0
  0
SPLINE
  5
13a
100
AcDbEntity
  8
0
 62
7
100
AcDbSpline
 70
8
 71
3
 72
8
 73
4
 74
0
 40
0
 40
0
 40
0
 40
0
 40
1
 40
1
 40
1
 40
1
 10
20.152431
 20
199.054861
 30
0.0
 10
19.440408
 20
199.003746
 30
0.0
 10
18.793566
 20
198.875296
 30
0.0
 10
18.168056
 20
198.666806
 30
0.0
  0
LWPOLYLINE
  5
13b
100
AcDbEntity
  8
0
 62
7
100
AcDbPolyline
 90
3
 70
0
 10
7.919861
 20
197.052847
 30
0.0
 10
7.143750
 20
198.957847
 30
0.0
 10
7.143750
 20
198.957847
 30
0.0
  0
SPLINE
  5
13c
100
AcDbEntity
  8
0
 62
7
100
AcDbSpline
 70
8
 71
3
 72
8
 73
4
 74
0
 40
0
 40
0
 40
0
 40
0
 40
1
 40
1
 40
1
 40
1
 10
18.185694
 20
196.638333
 30
0.0
 10
17.707536
 20
196.389795
 30
0.0
 10
17.265726
 20
196.080466
 30
0.0
 10
16.853958
 20
195.747569
 30
0.0
  0
LWPOLYLINE
  5
13d
100
AcDbEntity
  8
0
 62
7
100
AcDbPolyline
 90
2
 70
0
 10
18.168056
 20
198.666806
 30
0.0
 10
18.185694
 20
196.638333
 30
0.0
  0
SPLINE
  5
13e
100
AcDbEntity
  8
0
 62
7
100
AcDbSpline
 70
8
 71
3
 72
8
 73
4
 74
0
 40
0
 40
0
 40
0
 40
0
 40
1
 40
1
 40
1
 40
1
 10
14.966597
 20
196.558958
 30
0.0
 10
14.575809
 20
196.078327
 30
0.0
 10
14.188380
 20
195.537911
 30
0.0
 10
13.917083
 20
195.006736
 30
0.0
  0
LWPOLYLINE
  5
13f
100
AcDbEntity
  8
0
 62
7
100
AcDbPolyline
 90
2
 70
0
 10
16.853958
 20
195.747569
 30
0.0
 10
14.966597
 20
196.558958
 30
0.0
  0
SPLINE
  5
140
100
AcDbEntity
  8
0
 62
7
100
AcDbSpline
 70
8
 71
3
 72
8
 73
4
 74
0
 40
0
 40
0
 40
0
 40
0
 40
1
 40
1
 40
1
 40
1
 10
15.381111
 20
193.560347
 30
0.0
 10
15.205942
 20
193.057347
 30
0.0
 10
15.123410
 20
192.499376
 30
0.0
 10
15.054792
 20
191.990486
 30
0.0
  0
LWPOLYLINE
  5
141
100
AcDbEntity
  8
0
 62
7
100
AcDbPolyline
 90
2
 70
0
 10
13.917083
 20
195.006736
 30
0.0
 10
15.381111
 20
193.560347
 30
0.0
  0
SPLINE
  5
142
100
AcDbEntity
  8
0
 62
7
100
AcDbSpline
 70
8
 71
3
 72
8
 73
4
 74
0
 40
0
 40
0
 40
0
 40
0
 40
1
 40
1
 40
1
 40
1
 10
13.158611
 20
191.249653
 30
0.0
 10
13.195129
 20
190.570187
 30
0.0
 10
13.340659
 20
189.893734
 30
0.0
 10
13.546667
 20
189.265278
 30
0.0
  0
LWPOLYLINE
  5
143
100
AcDbEntity
  8
0
 62
7
100
AcDbPolyline
 90
2
 70
0
 10
15.054792
 20
191.990486
 30
0.0
 10
13.158611
 20
191.249653
 30
0.0
  0
SPLINE
  5
144
100
AcDbEntity
  8
0
 62
7
100
AcDbSpline
 70
8
 71
3
 72
8
 73
4
 74
0
 40
0
 40
0
 40
0
 40
0
 40
1
 40
1
 40
1
 40
1
 10
15.583958
 20
189.291736
 30
0.0
 10
15.832256
 20
188.856461
 30
0.0
 10
16.101840
 20
188.469096
 30
0.0
 10
16.386528
 20
188.092292
 30
0.0
  0
SPLINE
  5
145
100
AcDbEntity
  8
0
 62
7
100
AcDbSpline
 70
8
 71
3
 72
8
 73
4
 74
0
 40
0
 40
0
 40
0
 40
0
 40
1
 40
1
 40
1
 40
1
 10
16.386528
 20
188.092292
 30
0.0
 10
16.112118
 20
187.472249
 30
0.0
 10
15.843392
 20
186.849980
 30
0.0
 10
15.566319
 20
186.231389
 30
0.0
  0
SPLINE
  5
146
100
AcDbEntity
  8
0
 62
7
100
AcDbSpline
 70
8
 71
3
 72
8
 73
4
 74
0
 40
0
 40
0
 40
0
 40
0
 40
1
 40
1
 40
1
 40
1
 10
15.566319
 20
186.231389
 30
0.0
 10
16.094810
 20
185.704155
 30
0.0
 10
16.682021
 20
185.350310
 30
0.0
 10
17.330208
 20
185.040764
 30
0.0
  0
SPLINE
  5
147
100
AcDbEntity
  8
0
 62
7
100
AcDbSpline
 70
8
 71
3
 72
8
 73
4
 74
0
 40
0
 40
0
 40
0
 40
0
 40
1
 40
1
 40
1
 40
1
 10
17.330208
 20
185.040764
 30
0.0
 10
17.801115
 20
185.528270
 30
0.0
 10
18.276725
 20
186.010551
 30
0.0
 10
18.750139
 20
186.495972
 30
0.0
  0
SPLINE
  5
148
100
AcDbEntity
  8
0
 62
7
100
AcDbSpline
 70
8
 71
3
 72
8
 73
4
 74
0
 40
0
 40
0
 40
0
 40
0
 40
1
 40
1
 40
1
 40
1
 10
18.750139
 20
186.495972
 30
0.0
 10
19.238832
 20
186.345200
 30
0.0
 10
19.690171
 20
186.275333
 30
0.0
 10
20.161250
 20
186.204931
 30
0.0
  0
LWPOLYLINE
  5
149
100
AcDbEntity
  8
0
 62
7
100
AcDbPolyline
 90
2
 70
0
 10
13.546667
 20
189.265278
 30
0.0
 10
15.583958
 20
189.291736
 30
0.0
  0
SPLINE
  5
14a
100
AcDbEntity
  8
0
 62
7
100
AcDbSpline
 70
8
 71
3
 72
8
 73
4
 74
0
 40
0
 40
0
 40
0
 40
0
 40
1
 40
1
 40
1
 40
1
 10
20.902083
 20
184.299931
 30
0.0
 10
21.586496
 20
184.323637
 30
0.0
 10
22.249455
 20
184.475943
 30
0.0
 10
22.886458
 20
184.687986
 30
0.0
  0
LWPOLYLINE
  5
14b
100
AcDbEntity
  8
0
 62
7
100
AcDbPolyline
 90
2
 70
0
 10
20.161250
 20
186.204931
 30
0.0
 10
20.902083
 20
184.299931
 30
0.0
  0
SPLINE
  5
14c
100
AcDbEntity
  8
0
 62
7
100
AcDbSpline
 70
8
 71
3
 72
8
 73
4
 74
0
 40
0
 40
0
 40
0
 40
0
 40
1
 40
1
 40
1
 40
1
 10
22.860000
 20
186.725278
 30
0.0
 10
23.358561
 20
186.968055
 30
0.0
 10
23.784255
 20
187.281447
 30
0.0
 10
24.200556
 20
187.616042
 30
0.0
  0
LWPOLYLINE
  5
14d
100
AcDbEntity
  8
0
 62
7
100
AcDbPolyline
 90
2
 70
0
 10
22.886458
 20
184.687986
 30
0.0
 10
22.860000
 20
186.725278
 30
0.0
  0
SPLINE
  5
14e
100
AcDbEntity
  8
0
 62
7
100
AcDbSpline
 70
8
 71
3
 72
8
 73
4
 74
0
 40
0
 40
0
 40
0
 40
0
 40
1
 40
1
 40
1
 40
1
 10
26.079097
 20
186.795833
 30
0.0
 10
26.338275
 20
187.105381
 30
0.0
 10
26.580651
 20
187.431078
 30
0.0
 10
26.793472
 20
187.765972
 30
0.0
  0
SPLINE
  5
14f
100
AcDbEntity
  8
0
 62
7
100
AcDbSpline
 70
8
 71
3
 72
8
 73
4
 74
0
 40
0
 40
0
 40
0
 40
0
 40
1
 40
1
 40
1
 40
1
 10
26.793472
 20
187.765972
 30
0.0
 10
26.867582
 20
188.009753
 30
0.0
 10
26.927295
 20
188.257261
 30
0.0
 10
26.987500
 20
188.506806
 30
0.0
  0
LWPOLYLINE
  5
150
100
AcDbEntity
  8
0
 62
7
100
AcDbPolyline
 90
2
 70
0
 10
24.200556
 20
187.616042
 30
0.0
 10
26.079097
 20
186.795833
 30
0.0
  0
SPLINE
  5
151
100
AcDbEntity
  8
0
 62
7
100
AcDbSpline
 70
8
 71
3
 72
8
 73
4
 74
0
 40
0
 40
0
 40
0
 40
0
 40
1
 40
1
 40
1
 40
1
 10
25.673403
 20
189.794444
 30
0.0
 10
25.862726
 20
190.356218
 30
0.0
 10
25.937030
 20
190.825045
 30
0.0
 10
25.990903
 20
191.364306
 30
0.0
  0
LWPOLYLINE
  5
152
100
AcDbEntity
  8
0
 62
7
100
AcDbPolyline
 90
2
 70
0
 10
26.987500
 20
188.506806
 30
0.0
 10
25.673403
 20
189.794444
 30
0.0
  0
SPLINE
  5
153
100
AcDbEntity
  8
0
 62
7
100
AcDbSpline
 70
8
 71
3
 72
8
 73
4
 74
0
 40
0
 40
0
 40
0
 40
0
 40
1
 40
1
 40
1
 40
1
 10
27.349097
 20
191.902292
 30
0.0
 10
27.333911
 20
192.647358
 30
0.0
 10
27.261811
 20
193.370799
 30
0.0
 10
27.128611
 20
194.080694
 30
0.0
  0
LWPOLYLINE
  5
154
100
AcDbEntity
  8
0
 62
7
100
AcDbPolyline
 90
2
 70
0
 10
25.990903
 20
191.364306
 30
0.0
 10
27.349097
 20
191.902292
 30
0.0
  0
SPLINE
  5
155
100
AcDbEntity
  8
0
 62
7
100
AcDbSpline
 70
8
 71
3
 72
8
 73
4
 74
0
 40
0
 40
0
 40
0
 40
0
 40
1
 40
1
 40
1
 40
1
 10
25.461736
 20
194.063056
 30
0.0
 10
25.230943
 20
194.488910
 30
0.0
 10
24.964864
 20
194.884648
 30
0.0
 10
24.667986
 20
195.262500
 30
0.0
  0
SPLINE
  5
156
100
AcDbEntity
  8
0
 62
7
100
AcDbSpline
 70
8
 71
3
 72
8
 73
4
 74
0
 40
0
 40
0
 40
0
 40
0
 40
1
 40
1
 40
1
 40
1
 10
24.667986
 20
195.262500
 30
0.0
 10
24.942401
 20
195.882546
 30
0.0
 10
25.211114
 20
196.504811
 30
0.0
 10
25.488194
 20
197.123403
 30
0.0
  0
SPLINE
  5
157
100
AcDbEntity
  8
0
 62
7
100
AcDbSpline
 70
8
 71
3
 72
8
 73
4
 74
0
 40
0
 40
0
 40
0
 40
0
 40
1
 40
1
 40
1
 40
1
 10
25.488194
 20
197.123403
 30
0.0
 10
24.973346
 20
197.619379
 30
0.0
 10
24.361495
 20
198.043440
 30
0.0
 10
23.715486
 20
198.322847
 30
0.0
  0
SPLINE
  5
158
100
AcDbEntity
  8
0
 62
7
100
AcDbSpline
 70
8
 71
3
 72
8
 73
4
 74
0
 40
0
 40
0
 40
0
 40
0
 40
1
 40
1
 40
1
 40
1
 10
23.715486
 20
198.322847
 30
0.0
 10
23.244580
 20
197.835333
 30
0.0
 10
22.768973
 20
197.344245
 30
0.0
 10
22.295556
 20
196.858819
 30
0.0
  0
SPLINE
  5
159
100
AcDbEntity
  8
0
 62
7
100
AcDbSpline
 70
8
 71
3
 72
8
 73
4
 74
0
 40
0
 40
0
 40
0
 40
0
 40
1
 40
1
 40
1
 40
1
 10
22.295556
 20
196.858819
 30
0.0
 10
21.832945
 20
196.993869
 30
0.0
 10
21.338863
 20
197.092330
 30
0.0
 10
20.884444
 20
197.149861
 30
0.0
  0
LWPOLYLINE
  5
15a
100
AcDbEntity
  8
0
 62
7
100
AcDbPolyline
 90
2
 70
0
 10
27.128611
 20
194.080694
 30
0.0
 10
25.461736
 20
194.063056
 30
0.0
  0
LWPOLYLINE
  5
15b
100
AcDbEntity
  8
0
 62
7
100
AcDbPolyline
 90
3
 70
0
 10
20.884444
 20
197.149861
 30
0.0
 10
20.152431
 20
199.054861
 30
0.0
 10
20.152431
 20
199.054861
 30
0.0
  0
LWPOLYLINE
  5
15c
100
AcDbEntity
  8
0
 62
7
100
AcDbPolyline
 90
6
 70
0
 10
12.818266
 20
191.666971
 30
0.0
 10
12.818266
 20
193.207062
 30
0.0
 10
8.835316
 20
193.207062
 30
0.0
 10
8.835316
 20
191.666971
 30
0.0
 10
12.818266
 20
191.666971
 30
0.0
 10
12.818266
 20
191.666971
 30
0.0
  0
SPLINE
  5
15d
100
AcDbEntity
  8
0
 62
7
100
AcDbSpline
 70
8
 71
3
 72
8
 73
4
 74
0
 40
0
 40
0
 40
0
 40
0
 40
1
 40
1
 40
1
 40
1
 10
9.428996
 20
205.180047
 30
0.0
 10
2.050518
 20
205.180047
 30
0.0
 10
-3.932142
 20
199.197386
 30
0.0
 10
-3.932142
 20
191.818909
 30
0.0
  0
SPLINE
  5
15e
100
AcDbEntity
  8
0
 62
7
100
AcDbSpline
 70
8
 71
3
 72
8
 73
4
 74
0
 40
0
 40
0
 40
0
 40
0
 40
1
 40
1
 40
1
 40
1
 10
-3.932142
 20
191.818909
 30
0.0
 10
-3.932142
 20
184.440431
 30
0.0
 10
2.050518
 20
178.443647
 30
0.0
 10
9.428996
 20
178.443647
 30
0.0
  0
SPLINE
  5
15f
100
AcDbEntity
  8
0
 62
7
100
AcDbSpline
 70
8
 71
3
 72
8
 73
4
 74
0
 40
0
 40
0
 40
0
 40
0
 40
1
 40
1
 40
1
 40
1
 10
9.428996
 20
178.443647
 30
0.0
 10
16.807473
 20
178.443647
 30
0.0
 10
22.790134
 20
184.440431
 30
0.0
 10
22.790134
 20
191.818909
 30
0.0
  0
SPLINE
  5
160
100
AcDbEntity
  8
0
 62
7
100
AcDbSpline
 70
8
 71
3
 72
8
 73
4
 74
0
 40
0
 40
0
 40
0
 40
0
 40
1
 40
1
 40
1
 40
1
 10
22.790134
 20
191.818909
 30
0.0
 10
22.790134
 20
199.197386
 30
0.0
 10
16.807473
 20
205.180047
 30
0.0
 10
9.428996
 20
205.180047
 30
0.0
  0
LWPOLYLINE
  5
161
100
AcDbEntity
  8
0
 62
7
100
AcDbPolyline
 90
14
 70
0
 10
-4.300122
 20
191.670928
 30
0.0
 10
-2.753885
 20
191.670928
 30
0.0
 10
-2.753885
 20
190.079163
 30
0.0
 10
-1.265531
 20
190.079163
 30
0.0
 10
-1.265531
 20
191.670928
 30
0.0
 10
0.280705
 20
191.670928
 30
0.0
 10
0.280705
 20
193.202998
 30
0.0
 10
-1.265531
 20
193.202998
 30
0.0
 10
-1.265531
 20
194.794870
 30
0.0
 10
-2.753885
 20
194.794870
 30
0.0
 10
-2.753885
 20
193.202945
 30
0.0
 10
-4.300122
 20
193.202945
 30
0.0
 10
-4.300122
 20
191.670928
 30
0.0
 10
-4.300122
 20
191.670928
 30
0.0
  0
SPLINE
  5
162
100
AcDbEntity
  8
0
 62
7
100
AcDbSpline
 70
8
 71
3
 72
8
 73
4
 74
0
 40
0
 40
0
 40
0
 40
0
 40
1
 40
1
 40
1
 40
1
 10
9.428996
 20
204.544474
 30
0.0
 10
16.465607
 20
204.544474
 30
0.0
 10
22.168685
 20
198.855520
 30
0.0
 10
22.168685
 20
191.818909
 30
0.0
  0
SPLINE
  5
163
100
AcDbEntity
  8
0
 62
7
100
AcDbSpline
 70
8
 71
3
 72
8
 73
4
 74
0
 40
0
 40
0
 40
0
 40
0
 40
1
 40
1
 40
1
 40
1
 10
22.168685
 20
191.818909
 30
0.0
 10
22.168685
 20
184.782297
 30
0.0
 10
16.465607
 20
179.079219
 30
0.0
 10
9.428996
 20
179.079219
 30
0.0
  0
SPLINE
  5
164
100
AcDbEntity
  8
0
 62
7
100
AcDbSpline
 70
8
 71
3
 72
8
 73
4
 74
0
 40
0
 40
0
 40
0
 40
0
 40
1
 40
1
 40
1
 40
1
 10
9.428996
 20
179.079219
 30
0.0
 10
2.392385
 20
179.079219
 30
0.0
 10
-3.310694
 20
184.782297
 30
0.0
 10
-3.310694
 20
191.818909
 30
0.0
  0
SPLINE
  5
165
100
AcDbEntity
  8
0
 62
7
100
AcDbSpline
 70
8
 71
3
 72
8
 73
4
 74
0
 40
0
 40
0
 40
0
 40
0
 40
1
 40
1
 40
1
 40
1
 10
-3.310694
 20
191.818909
 30
0.0
 10
-3.310694
 20
198.855520
 30
0.0
 10
2.392385
 20
204.544474
 30
0.0
 10
9.428996
 20
204.544474
 30
0.0
  0
LWPOLYLINE
  5
166
100
AcDbEntity
  8
0
 62
7
100
AcDbPolyline
 90
2
 70
0
 10
9.428996
 20
205.180047
 30
0.0
 10
9.428996
 20
205.180047
 30
0.0
  0
LWPOLYLINE
  5
167
100
AcDbEntity
  8
0
 62
7
100
AcDbPolyline
 90
2
 70
0
 10
9.428996
 20
204.544474
 30
0.0
 10
9.428996
 20
204.544474
 30
0.0
  0
ENDSEC
  0
SECTION
  2
OBJECTS
  0
DICTIONARY
  5
C
330
0
100
AcDbDictionary
  3
ACAD_GROUP
350
D
  3
ACAD_MLINESTYLE
350
17
  0
DICTIONARY
  5
D
330
C
100
AcDbDictionary
  0
DICTIONARY
  5
1A
330
C
100
AcDbDictionary
  0
DICTIONARY
  5
17
330
C
100
AcDbDictionary
  3
STANDARD
350
18
  0
DICTIONARY
  5
19
330
C
100
AcDbDictionary
  0
ENDSEC
  0
EOF
