<?xml version="1.0" encoding="UTF-8" standalone="no"?>
<!-- Created with Inkscape (http://www.inkscape.org/) -->

<svg
   xmlns:dc="http://purl.org/dc/elements/1.1/"
   xmlns:cc="http://creativecommons.org/ns#"
   xmlns:rdf="http://www.w3.org/1999/02/22-rdf-syntax-ns#"
   xmlns:svg="http://www.w3.org/2000/svg"
   xmlns="http://www.w3.org/2000/svg"
   xmlns:sodipodi="http://sodipodi.sourceforge.net/DTD/sodipodi-0.dtd"
   xmlns:inkscape="http://www.inkscape.org/namespaces/inkscape"
   width="150mm"
   height="100mm"
   viewBox="0 0 150 100"
   version="1.1"
   id="svg8"
   inkscape:version="0.92.4 (5da689c313, 2019-01-14)"
   sodipodi:docname="Hackeriet-flagg-2.2-sjn.svg">
  <defs
     id="defs2" />
  <sodipodi:namedview
     id="base"
     pagecolor="#ffffff"
     bordercolor="#666666"
     borderopacity="1.0"
     inkscape:pageopacity="0.0"
     inkscape:pageshadow="2"
     inkscape:zoom="1.979899"
     inkscape:cx="182.264"
     inkscape:cy="237.42297"
     inkscape:document-units="mm"
     inkscape:current-layer="layer1"
     showgrid="false"
     units="mm"
     showguides="true"
     inkscape:guide-bbox="true"
     inkscape:window-width="2013"
     inkscape:window-height="1084"
     inkscape:window-x="80"
     inkscape:window-y="169"
     inkscape:window-maximized="0">
    <sodipodi:guide
       position="74.999999,0"
       orientation="1,0"
       id="guide955"
       inkscape:locked="false"
       inkscape:label=""
       inkscape:color="rgb(0,0,255)" />
    <sodipodi:guide
       position="50,169.33333"
       orientation="1,0"
       id="guide959"
       inkscape:locked="false"
       inkscape:label=""
       inkscape:color="rgb(0,0,255)" />
    <sodipodi:guide
       position="99.999999,101.67559"
       orientation="1,0"
       id="guide961"
       inkscape:locked="false"
       inkscape:label=""
       inkscape:color="rgb(0,0,255)" />
    <sodipodi:guide
       position="-13.631,66.666599"
       orientation="0,1"
       id="guide6564"
       inkscape:locked="false"
       inkscape:label=""
       inkscape:color="rgb(0,0,255)" />
    <sodipodi:guide
       position="-8.6862596,33.3333"
       orientation="0,1"
       id="guide6566"
       inkscape:locked="false"
       inkscape:label=""
       inkscape:color="rgb(0,0,255)" />
    <sodipodi:guide
       position="-11.358955,50"
       orientation="0,1"
       id="guide6577"
       inkscape:locked="false"
       inkscape:label=""
       inkscape:color="rgb(0,0,255)" />
  </sodipodi:namedview>
  <metadata
     id="metadata5">
    <rdf:RDF>
      <cc:Work
         rdf:about="">
        <dc:format>image/svg+xml</dc:format>
        <dc:type
           rdf:resource="http://purl.org/dc/dcmitype/StillImage" />
        <dc:title></dc:title>
      </cc:Work>
    </rdf:RDF>
  </metadata>
  <g
     inkscape:label="Layer 1"
     inkscape:groupmode="layer"
     id="layer1"
     transform="translate(0,-197.00001)">
    <rect
       style="opacity:1;fill:#000000;fill-opacity:1;stroke:none;stroke-width:0.13229166;stroke-miterlimit:4;stroke-dasharray:none"
       id="rect963"
       width="150.40091"
       height="50.133644"
       x="0"
       y="247.00002" />
    <g
       style="enable-background:new"
       id="g6562"
       transform="matrix(0.48077922,0,0,0.48077922,49.998969,221.99832)">
      <g
         transform="translate(36.417288,4.4305543)"
         style="display:inline"
         inkscape:label="YingYang"
         id="layer2" />
      <g
         transform="translate(2.000002,2.0000043)"
         style="display:inline"
         inkscape:label="Tannhjul"
         id="layer1-0" />
      <g
         transform="translate(36.417288,4.4305543)"
         style="display:inline"
         inkscape:label="Plus/minus"
         id="layer3" />
      <g
         transform="translate(4.657385,4.6383743)"
         style="display:inline"
         inkscape:label="Topp-sirkel"
         id="layer4">
        <g
           id="g4515">
          <path
             style="display:inline;fill:#ffffff;fill-opacity:1;stroke:none;enable-background:new"
             d="m 47.342619,-1.5309401 c -27.01681,0 -48.9120628,21.8836841 -48.9120628,48.8862251 0,27.002536 21.8952528,48.886224 48.9120628,48.886224 27.01681,0 48.912062,-21.883688 48.912062,-48.886224 0,-27.002541 -21.895252,-48.8862251 -48.912062,-48.8862251 z"
             id="path1366"
             inkscape:connector-curvature="0" />
          <path
             style="display:inline;fill:#000000;enable-background:new"
             d="M 45.627602,-1.5168244 C 27.828627,-1.0519772 10.822907,10.032738 3.25035,26.15898 1.7528611,29.242123 0.62001176,32.496312 -0.1820754,35.82407 h 1.1881473 c 2.6277981,-1.549758 6.5054282,-0.309349 9.4061661,0.09896 7.895217,1.703028 15.738539,4.835122 23.960969,3.727493 3.949314,-0.790118 7.477868,0.938515 10.528305,3.265679 6.281151,4.525072 11.24335,10.945784 18.614308,13.887382 4.030492,2.215382 8.427529,2.739899 12.937603,2.375039 4.25255,0.389192 8.857611,0.658191 12.706575,-1.352453 2.884429,-0.957154 4.667735,4.878368 5.016622,3.628532 C 99.470689,44.415268 94.435018,24.700019 81.503049,12.370558 72.494786,3.5064557 59.989263,-1.5817438 47.343815,-1.5168244 c -0.575548,-0.0073 -1.142052,-0.014995 -1.716213,0 z"
             id="path1351"
             inkscape:connector-curvature="0" />
          <path
             inkscape:connector-curvature="0"
             style="color:#000000;display:inline;overflow:visible;visibility:visible;fill:#ffffff;fill-opacity:1;fill-rule:nonzero;stroke:none;stroke-width:1.16573465;marker:none;enable-background:new"
             d="m 21.269382,19.943374 c -2.303733,0.257714 -4.78049,0.679637 -6.897855,1.385439 l 0.132016,7.685891 c -1.786888,0.882645 -3.465681,2.186954 -4.9836177,3.364639 L 2.5230581,29.377557 c -0.9806746,1.110846 -1.85872276,2.31484 -2.64032722,3.562559 -0.33750258,1.112272 -0.59823626,2.253698 -0.85810635,3.397626 l 4.85160127,4.618132 c -0.478963,1.812114 -0.7946571,3.526337 -1.0231268,5.277865 -1.6883687,0.669055 -3.36234973,1.372858 -5.0496258,2.045172 0.053867,2.92396 0.3519859,5.798424 0.8911104,8.576531 2.09729951,-0.04994 4.2062605,-0.08739 6.3037813,-0.131947 0.9089084,1.683352 1.8976645,3.030426 2.9703682,4.453199 l -3.0033723,7.026158 c 1.8889599,1.730984 4.047363,3.05205 6.3037812,4.156319 l 5.280655,-5.475785 c 1.967508,0.659343 3.885947,0.922793 5.874728,1.121546 l 2.90436,7.125118 c 2.369215,-0.230567 4.714411,-0.648934 6.897855,-1.38544 l -0.132017,-7.685891 c 1.978822,-1.002327 3.425377,-2.067275 4.983618,-3.364639 l 7.029871,3.001786 c 1.816533,-1.915544 3.033301,-4.00468 4.158516,-6.300451 L 42.755045,54.11755 c 0.500974,-1.741095 0.791443,-3.491584 0.990122,-5.277865 2.358791,-0.934713 4.733788,-1.91301 7.09588,-2.836853 -0.07328,-2.672828 -0.592785,-5.378911 -1.584197,-7.817837 -2.535626,0.06604 -5.087093,0.111048 -7.623944,0.164933 -0.880538,-1.573032 -1.941376,-3.108437 -3.003373,-4.453199 L 41.66591,26.870572 C 39.63136,25.140326 37.545547,23.79787 35.329124,22.714253 l -5.280654,5.475785 c -1.928167,-0.590488 -3.902502,-0.93015 -5.874728,-1.121546 z"
             id="path3243-2" />
          <path
             inkscape:connector-curvature="0"
             style="color:#000000;display:inline;overflow:visible;visibility:visible;fill:#000000;fill-opacity:1;fill-rule:nonzero;stroke:none;stroke-width:1.16573465;marker:none;enable-background:new"
             d="m 69.950415,19.580521 c -2.664528,0.191183 -5.085136,0.671611 -7.42592,1.451412 l 0.06601,7.586931 c -1.789363,0.92959 -3.442704,2.086545 -4.983618,3.331653 L 50.54401,28.915744 c -1.462408,1.797669 -2.912241,3.818942 -3.927487,5.805652 l 5.478679,5.409811 c -0.655516,1.881332 -0.964368,3.968266 -1.221151,5.871625 l -7.09588,2.770879 c 0.136657,2.541352 0.681258,5.071432 1.45218,7.421998 l 7.623945,-0.09896 c 0.929178,1.628024 1.938016,3.076855 3.003373,4.486185 -1.026896,2.319095 -2.032521,4.64652 -3.069381,6.960185 1.977715,1.971968 4.175175,3.295429 6.600818,4.453198 1.762224,-1.823381 3.542051,-3.627216 5.313659,-5.442798 1.828783,0.563923 3.517786,0.825238 5.280654,1.08856 l 2.772344,7.125117 c 2.561207,-0.08867 5.042128,-0.658323 7.42592,-1.451412 l -0.09901,-7.619918 c 1.865712,-0.908039 3.458743,-2.080195 5.016622,-3.331652 l 7.029871,3.067759 c 0.969893,-1.157775 1.876912,-2.375956 2.673332,-3.628532 0.277334,-0.911793 0.50079,-1.837529 0.72609,-2.77088 l -4.91761,-4.816051 c 0.708483,-2.101155 0.986545,-3.854672 1.188147,-5.871625 l 5.08263,-2.012186 c -0.05683,-2.786713 -0.326641,-5.49254 -0.825102,-8.147704 l -6.237773,0.06597 c -0.863673,-1.592789 -1.859393,-3.072936 -2.970368,-4.486185 1.026914,-2.319108 2.03249,-4.646515 3.06938,-6.960185 -1.926665,-1.855058 -4.216329,-3.44114 -6.633822,-4.486185 -1.762224,1.823411 -3.542036,3.660188 -5.313659,5.475785 -1.731179,-0.505115 -3.580131,-0.873379 -5.280654,-1.08856 l -2.73934,-7.125117 z"
             id="path3243-2-0" />
          <path
             style="display:inline;fill:#ffffff;fill-opacity:1;enable-background:new"
             inkscape:connector-curvature="0"
             id="rect3139"
             d="M 78.853696,49.778475 V 44.018198 H 63.948718 v 5.760277 z" />
          <path
             inkscape:connector-curvature="0"
             d="m 14.793334,49.763676 h 5.786321 v 5.95355 h 5.569711 v -5.95355 h 5.786321 v -5.730279 h -5.786321 v -5.95395 h -5.569711 v 5.954149 h -5.786321 z"
             style="display:inline;fill:#000000;fill-opacity:1;stroke:none;enable-background:new"
             id="path3938" />
          <path
             style="color:#000000;font-family:Sans;-inkscape-font-specification:Sans;display:inline;visibility:visible;fill:#000000;fill-opacity:1;stroke:none;stroke-width:1.39960635;marker:none"
             d="m 47.342617,-2.6383707 c -27.61171,0 -49.9999989,22.3764617 -49.9999989,49.9735847 0,27.597125 22.3882889,50.026413 49.9999989,50.026413 27.611709,0 49.999997,-22.429288 49.999997,-50.026413 0,-27.597123 -22.388288,-49.9735847 -49.999997,-49.9735847 z m 0,2.37717896 c 26.332379,0 47.674416,21.27793774 47.674416,47.59640574 0,26.31847 -21.342037,47.649234 -47.674416,47.649234 -26.33238,0 -47.67441659,-21.330764 -47.67441659,-47.649234 0,-26.318468 21.34203659,-47.59640574 47.67441659,-47.59640574 z"
             id="path9351"
             inkscape:connector-curvature="0" />
        </g>
      </g>
    </g>
  </g>
</svg>
