<?xml version="1.0" encoding="UTF-8" standalone="no"?>
<!-- Created with Inkscape (http://www.inkscape.org/) -->

<svg
   xmlns:dc="http://purl.org/dc/elements/1.1/"
   xmlns:cc="http://creativecommons.org/ns#"
   xmlns:rdf="http://www.w3.org/1999/02/22-rdf-syntax-ns#"
   xmlns:svg="http://www.w3.org/2000/svg"
   xmlns="http://www.w3.org/2000/svg"
   xmlns:sodipodi="http://sodipodi.sourceforge.net/DTD/sodipodi-0.dtd"
   xmlns:inkscape="http://www.inkscape.org/namespaces/inkscape"
   width="150mm"
   height="100mm"
   viewBox="0 0 150 100"
   version="1.1"
   id="svg8"
   inkscape:version="0.92.4 (5da689c313, 2019-01-14)"
   sodipodi:docname="Hackeriet-flagg-1.2-sjn.svg">
  <defs
     id="defs2" />
  <sodipodi:namedview
     id="base"
     pagecolor="#ffffff"
     bordercolor="#666666"
     borderopacity="1.0"
     inkscape:pageopacity="0.0"
     inkscape:pageshadow="2"
     inkscape:zoom="1.4142136"
     inkscape:cx="466.42506"
     inkscape:cy="221.59186"
     inkscape:document-units="mm"
     inkscape:current-layer="layer1"
     showgrid="false"
     units="mm"
     showguides="true"
     inkscape:guide-bbox="true"
     inkscape:window-width="2013"
     inkscape:window-height="1084"
     inkscape:window-x="80"
     inkscape:window-y="169"
     inkscape:window-maximized="0">
    <sodipodi:guide
       position="74.999999,0"
       orientation="-0.99999895,0.001450742"
       id="guide955"
       inkscape:locked="false"
       inkscape:label=""
       inkscape:color="rgb(0,0,255)" />
    <sodipodi:guide
       position="50,169.33333"
       orientation="1,0"
       id="guide959"
       inkscape:locked="false"
       inkscape:label=""
       inkscape:color="rgb(0,0,255)" />
    <sodipodi:guide
       position="99.999999,101.67559"
       orientation="1,0"
       id="guide961"
       inkscape:locked="false"
       inkscape:label=""
       inkscape:color="rgb(0,0,255)" />
    <sodipodi:guide
       position="-13.631,66.666599"
       orientation="0,1"
       id="guide6564"
       inkscape:locked="false"
       inkscape:label=""
       inkscape:color="rgb(0,0,255)" />
    <sodipodi:guide
       position="-8.6862596,33.3333"
       orientation="0,1"
       id="guide6566"
       inkscape:locked="false"
       inkscape:label=""
       inkscape:color="rgb(0,0,255)" />
    <sodipodi:guide
       position="-11.358955,50"
       orientation="0,1"
       id="guide6577"
       inkscape:locked="false"
       inkscape:label=""
       inkscape:color="rgb(0,0,255)" />
  </sodipodi:namedview>
  <metadata
     id="metadata5">
    <rdf:RDF>
      <cc:Work
         rdf:about="">
        <dc:format>image/svg+xml</dc:format>
        <dc:type
           rdf:resource="http://purl.org/dc/dcmitype/StillImage" />
        <dc:title></dc:title>
      </cc:Work>
    </rdf:RDF>
  </metadata>
  <g
     inkscape:label="Layer 1"
     inkscape:groupmode="layer"
     id="layer1"
     transform="translate(0,-197.00001)">
    <rect
       style="opacity:1;fill:#000000;fill-opacity:1;stroke:none;stroke-width:0.13193902;stroke-miterlimit:4;stroke-dasharray:none"
       id="rect963"
       width="150"
       height="50"
       x="0"
       y="247.00002" />
    <g
       id="g6698"
       transform="translate(0,2.6e-4)">
      <path
         style="display:inline;fill:#ffffff;fill-opacity:1;stroke:none;stroke-width:0.50016779;enable-background:new"
         d="m 50.000551,222.54526 c -13.512939,0 -24.464239,10.94552 -24.464239,24.45132 0,13.5058 10.9513,24.45131 24.464239,24.45131 13.512939,0 24.464239,-10.94551 24.464239,-24.45131 0,-13.5058 -10.9513,-24.45132 -24.464239,-24.45132 z"
         id="path1366"
         inkscape:connector-curvature="0" />
      <path
         style="display:inline;fill:#000000;stroke-width:0.50016779;enable-background:new"
         d="m 49.142755,222.55232 c -8.902475,0.2325 -17.408188,5.77672 -21.195738,13.84255 -0.748995,1.54209 -1.31561,3.16973 -1.716788,4.83417 h 0.594273 c 1.31434,-0.77514 3.253806,-0.15473 4.704661,0.0495 3.948934,0.8518 7.871911,2.41838 11.984506,1.86438 1.975319,-0.3952 3.740189,0.46941 5.265919,1.63338 3.141629,2.2633 5.623562,5.47473 9.310278,6.94602 2.015922,1.10807 4.215178,1.37041 6.470972,1.18792 2.126989,0.19466 4.430292,0.32921 6.35542,-0.67645 1.442698,-0.47874 2.334651,2.44 2.509153,1.81487 2.647923,-8.52257 0.129242,-18.38351 -6.338912,-24.55031 -4.505644,-4.43353 -10.760504,-6.97849 -17.08535,-6.94602 -0.28787,-0.004 -0.571217,-0.008 -0.858394,0 z"
         id="path1351"
         inkscape:connector-curvature="0" />
      <path
         inkscape:connector-curvature="0"
         style="color:#000000;display:inline;overflow:visible;visibility:visible;fill:#ffffff;fill-opacity:1;fill-rule:nonzero;stroke:none;stroke-width:0.58306295;marker:none;enable-background:new"
         d="m 36.959557,233.28602 c -1.152253,0.1289 -2.391047,0.33994 -3.450085,0.69296 l 0.06603,3.84423 c -0.893744,0.44147 -1.733422,1.09384 -2.492645,1.68289 l -3.499608,-1.5014 c -0.490501,0.55561 -0.929673,1.15781 -1.320606,1.78188 -0.168808,0.55632 -0.299219,1.12722 -0.429197,1.69938 l 2.426614,2.30984 c -0.239562,0.90636 -0.397462,1.76376 -0.511735,2.63982 -0.844467,0.33464 -1.681739,0.68666 -2.52566,1.02293 0.02694,1.46247 0.176052,2.90018 0.445705,4.2897 1.049001,-0.025 2.103836,-0.0437 3.152948,-0.066 0.454607,0.84195 0.949151,1.51572 1.485683,2.22734 l -1.50219,3.51426 c 0.944797,0.86578 2.02436,1.52654 3.152948,2.07886 l 2.641214,-2.73881 c 0.984084,0.32978 1.943625,0.46155 2.93835,0.56096 l 1.452667,3.56375 c 1.185005,-0.11532 2.357997,-0.32457 3.450085,-0.69295 l -0.06603,-3.84424 c 0.989743,-0.50133 1.713264,-1.03398 2.492646,-1.68288 l 3.516115,1.5014 c 0.908571,-0.9581 1.517159,-2.00301 2.079956,-3.15129 l -2.756767,-2.63981 c 0.250571,-0.87084 0.395855,-1.74638 0.495227,-2.63982 1.179792,-0.46752 2.367689,-0.95683 3.549131,-1.4189 -0.03665,-1.33687 -0.296492,-2.69036 -0.792364,-3.91023 -1.268239,0.033 -2.5444,0.0555 -3.813252,0.0825 -0.440416,-0.78678 -0.971013,-1.55474 -1.50219,-2.22735 l 1.518698,-3.51425 c -1.017616,-0.86542 -2.060873,-1.53687 -3.169456,-2.07886 l -2.641214,2.73881 c -0.964407,-0.29534 -1.951905,-0.46523 -2.938349,-0.56096 z"
         id="path3243-2" />
      <path
         inkscape:connector-curvature="0"
         style="color:#000000;display:inline;overflow:visible;visibility:visible;fill:#000000;fill-opacity:1;fill-rule:nonzero;stroke:none;stroke-width:0.58306295;marker:none;enable-background:new"
         d="m 61.308243,233.10454 c -1.332711,0.0956 -2.543421,0.33591 -3.714206,0.72595 l 0.03302,3.79473 c -0.894982,0.46496 -1.72193,1.04363 -2.492645,1.66639 l -3.532624,-1.5179 c -0.73145,0.89914 -1.456609,1.91012 -1.964403,2.9038 l 2.740259,2.70582 c -0.327868,0.94098 -0.482346,1.9848 -0.61078,2.9368 l -3.549131,1.3859 c 0.06835,1.2711 0.340743,2.53657 0.726334,3.71224 l 3.813251,-0.0495 c 0.464745,0.81428 0.969334,1.53894 1.502191,2.24384 -0.51362,1.15994 -1.016602,2.32404 -1.535206,3.48126 0.98919,0.98632 2.088289,1.64827 3.301517,2.22735 0.881408,-0.912 1.77162,-1.81422 2.657721,-2.72231 0.914699,0.28205 1.759484,0.41276 2.641213,0.54446 l 1.386638,3.56375 c 1.281033,-0.0444 2.52191,-0.32927 3.714206,-0.72594 l -0.04952,-3.81124 c 0.933169,-0.45417 1.729952,-1.04045 2.509153,-1.66639 l 3.516115,1.5344 c 0.485109,-0.57909 0.938771,-1.18838 1.337115,-1.81488 0.138713,-0.45605 0.250479,-0.91907 0.363167,-1.3859 l -2.459631,-2.40884 c 0.354361,-1.05093 0.493438,-1.92798 0.594273,-2.93679 l 2.542168,-1.00644 c -0.02842,-1.39382 -0.163375,-2.74719 -0.412689,-4.07521 l -3.119933,0.033 c -0.431982,-0.79666 -0.930009,-1.53698 -1.485683,-2.24384 0.513629,-1.15995 1.016586,-2.32404 1.535205,-3.48126 -0.963656,-0.92784 -2.108872,-1.72115 -3.318024,-2.24385 -0.881408,0.91201 -1.771612,1.83071 -2.657721,2.73881 -0.86588,-0.25264 -1.790667,-0.43683 -2.641213,-0.54446 l -1.37013,-3.56376 z"
         id="path3243-2-0" />
      <path
         style="display:inline;fill:#ffffff;fill-opacity:1;stroke-width:0.50016779;enable-background:new"
         inkscape:connector-curvature="0"
         id="rect3139"
         d="m 65.761377,248.20858 v -2.8811 h -7.45499 v 2.8811 z" />
      <path
         inkscape:connector-curvature="0"
         d="m 33.720446,248.20118 h 2.894132 v 2.97777 h 2.78579 v -2.97777 H 42.2945 v -2.8661 h -2.894132 v -2.97798 h -2.78579 v 2.97808 h -2.894132 z"
         style="display:inline;fill:#000000;fill-opacity:1;stroke:none;stroke-width:0.50016779;enable-background:new"
         id="path3938" />
      <path
         style="color:#000000;font-family:Sans;-inkscape-font-specification:Sans;display:inline;visibility:visible;fill:#000000;fill-opacity:1;stroke:none;stroke-width:0.70003802;marker:none"
         d="m 50.00055,221.99136 c -13.810488,0 -25.00839,11.19199 -25.00839,24.99518 0,13.80319 11.197902,25.0216 25.00839,25.0216 13.810488,0 25.008389,-11.21841 25.008389,-25.0216 0,-13.80319 -11.197901,-24.99518 -25.008389,-24.99518 z m 0,1.18899 c 13.170608,0 23.845208,10.64254 23.845208,23.80619 0,13.16365 -10.6746,23.83261 -23.845208,23.83261 -13.170609,0 -23.845208,-10.66896 -23.845208,-23.83261 0,-13.16365 10.674599,-23.80619 23.845208,-23.80619 z"
         id="path9351"
         inkscape:connector-curvature="0" />
    </g>
    <path
       style="color:#000000;font-family:Sans;-inkscape-font-specification:Sans;display:inline;visibility:visible;fill:#ffffff;fill-opacity:1;stroke:none;stroke-width:0.70003802;marker:none;enable-background:new"
       d="m 50,216.63042 c -13.81048,0 -30.366192,16.55301 -30.366192,30.3562 0,0.005 5.18e-4,0.0134 5.18e-4,0.0134 h 6.584442 c -3e-6,-0.005 -5.16e-4,-0.009 -5.16e-4,-0.0134 0,-13.16365 10.611137,-23.75953 23.781748,-23.75953 13.170609,0 23.798282,10.59632 23.798282,23.75997 0,0.005 -5.13e-4,0.009 -5.16e-4,0.0134 h 6.574965 c 2e-6,-0.005 -0.0015,-0.009 -0.0015,-0.0134 0,-13.80319 -16.560694,-30.35664 -30.371182,-30.35664 z"
       id="path9351-0"
       inkscape:connector-curvature="0"
       sodipodi:nodetypes="ssccsssccsss" />
  </g>
</svg>
