<?xml version="1.0" encoding="UTF-8" standalone="no"?>
<!-- Created with Inkscape (http://www.inkscape.org/) -->

<svg
   xmlns:dc="http://purl.org/dc/elements/1.1/"
   xmlns:cc="http://creativecommons.org/ns#"
   xmlns:rdf="http://www.w3.org/1999/02/22-rdf-syntax-ns#"
   xmlns:svg="http://www.w3.org/2000/svg"
   xmlns="http://www.w3.org/2000/svg"
   xmlns:sodipodi="http://sodipodi.sourceforge.net/DTD/sodipodi-0.dtd"
   xmlns:inkscape="http://www.inkscape.org/namespaces/inkscape"
   width="100.00001"
   height="100"
   id="svg53383"
   sodipodi:version="0.32"
   inkscape:version="0.91 r13725"
   sodipodi:docname="hackeriet_sticker_smalltext.svg"
   inkscape:output_extension="org.inkscape.output.svg.inkscape"
   version="1.1"
   inkscape:export-filename="/home/sjn/Dropbox/Hackeriet/Logos/comotion-sjn-reclaim-5-179x179.png"
   inkscape:export-xdpi="161.10001"
   inkscape:export-ydpi="161.10001"
   style="enable-background:new">
  <defs
     id="defs3" />
  <sodipodi:namedview
     inkscape:showpageshadow="false"
     id="base"
     pagecolor="#ffffff"
     bordercolor="#666666"
     borderopacity="0.11764706"
     inkscape:pageopacity="0.0"
     inkscape:pageshadow="2"
     inkscape:zoom="4.6897857"
     inkscape:cx="6.6723135"
     inkscape:cy="43.232181"
     inkscape:current-layer="layer4"
     showgrid="false"
     inkscape:grid-bbox="true"
     inkscape:document-units="px"
     inkscape:window-width="1918"
     inkscape:window-height="1156"
     inkscape:window-x="2"
     inkscape:window-y="24"
     showguides="false"
     inkscape:guide-bbox="true"
     inkscape:window-maximized="1"
     fit-margin-top="0"
     fit-margin-left="0"
     fit-margin-right="0"
     fit-margin-bottom="0"
     inkscape:snap-global="true"
     borderlayer="true" />
  <metadata
     id="metadata4">
    <rdf:RDF>
      <cc:Work
         rdf:about="">
        <dc:format>image/svg+xml</dc:format>
        <dc:type
           rdf:resource="http://purl.org/dc/dcmitype/StillImage" />
        <dc:title></dc:title>
        <dc:creator>
          <cc:Agent>
            <dc:title>Jakub Steiner</dc:title>
          </cc:Agent>
        </dc:creator>
        <dc:source>http://jimmac.musichall.cz/</dc:source>
        <dc:subject>
          <rdf:Bag>
            <rdf:li>system</rdf:li>
            <rdf:li>applications</rdf:li>
            <rdf:li>group</rdf:li>
            <rdf:li>category</rdf:li>
            <rdf:li>admin</rdf:li>
            <rdf:li>root</rdf:li>
          </rdf:Bag>
        </dc:subject>
        <cc:license
           rdf:resource="http://creativecommons.org/licenses/publicdomain/" />
      </cc:Work>
      <cc:License
         rdf:about="http://creativecommons.org/licenses/publicdomain/">
        <cc:permits
           rdf:resource="http://creativecommons.org/ns#Reproduction" />
        <cc:permits
           rdf:resource="http://creativecommons.org/ns#Distribution" />
        <cc:permits
           rdf:resource="http://creativecommons.org/ns#DerivativeWorks" />
      </cc:License>
    </rdf:RDF>
  </metadata>
  <g
     inkscape:groupmode="layer"
     id="layer2"
     inkscape:label="YingYang"
     style="display:inline"
     transform="translate(34.417291,2.4305521)" />
  <g
     inkscape:groupmode="layer"
     id="layer1"
     inkscape:label="Tannhjul"
     style="display:inline"
     transform="translate(5e-6,-5.0000001e-7)" />
  <g
     inkscape:groupmode="layer"
     id="layer3"
     inkscape:label="Plus/minus"
     style="display:inline"
     transform="translate(34.417291,2.4305521)" />
  <g
     inkscape:groupmode="layer"
     id="layer4"
     inkscape:label="Topp-sirkel"
     style="opacity:1;display:inline"
     transform="translate(2.657388,2.638372)">
    <g
       id="g4129"
       transform="matrix(1.0561309,0,0,1.055573,-2.6573822,-2.6383707)">
      <path
         inkscape:connector-curvature="0"
         id="path1366"
         transform="translate(-2.657383,-2.6383725)"
         d="M 50,3.6875 C 24.419071,3.6875 3.6875,24.419069 3.6875,50 3.6875,75.580928 24.419071,96.3125 50,96.3125 75.58093,96.3125 96.3125,75.580928 96.3125,50 96.3125,24.419069 75.58093,3.6875 50,3.6875 z"
         style="fill:#ffffff;fill-opacity:1;stroke:none;display:inline;enable-background:new" />
      <path
         inkscape:connector-curvature="0"
         id="path1351"
         d="m 45.71875,1.0625 c -16.853001,0.4403743 -32.954907,10.94151 -40.125,26.21875 -1.4179009,2.920824 -2.4905419,6.003689 -3.25,9.15625 l 1.125,0 c 2.4881368,-1.468168 6.1596799,-0.293063 8.90625,0.09375 7.475605,1.613368 14.902073,4.580566 22.6875,3.53125 3.739417,-0.74852 7.080436,0.889105 9.96875,3.09375 5.947322,4.28684 10.645792,10.369519 17.625,13.15625 3.816281,2.098748 7.979626,2.595651 12.25,2.25 4.026537,0.368702 8.38685,0.623539 12.03125,-1.28125 2.731128,-0.906763 4.419656,4.621535 4.75,3.4375 5.012702,-16.142355 0.244665,-34.819651 -12,-46.5 C 71.158005,5.8213183 59.317122,1.0009984 47.34375,1.0625 c -0.544959,-0.00692 -1.081355,-0.014206 -1.625,0 z"
         style="fill:#000000;display:inline;enable-background:new" />
      <path
         transform="translate(-2.657388,-2.638372)"
         id="path3243-2"
         d="m 25.3125,24.03125 c -2.181295,0.244146 -4.526418,0.643856 -6.53125,1.3125 l 0.125,7.28125 c -1.691919,0.836176 -3.281488,2.071817 -4.71875,3.1875 l -6.625,-2.84375 c -0.9285541,1.052363 -1.759936,2.19297 -2.5,3.375 C 4.7429349,37.397464 4.4960586,38.478797 4.25,39.5625 l 4.59375,4.375 c -0.4535073,1.716711 -0.752423,3.340685 -0.96875,5 -1.5986359,0.633831 -3.1836487,1.300581 -4.78125,1.9375 0.051004,2.770021 0.3332787,5.493153 0.84375,8.125 1.9858329,-0.04731 3.9827075,-0.08279 5.96875,-0.125 0.860602,1.594728 1.796808,2.870882 2.8125,4.21875 L 9.875,69.75 c 1.788566,1.639853 3.832255,2.891368 5.96875,3.9375 l 5,-5.1875 c 1.86294,0.624631 3.679418,0.874211 5.5625,1.0625 l 2.75,6.75 C 31.399547,76.094072 33.620101,75.697731 35.6875,75 l -0.125,-7.28125 c 1.873652,-0.949557 3.243326,-1.958439 4.71875,-3.1875 L 46.9375,67.375 c 1.719988,-1.814696 2.872088,-3.793845 3.9375,-5.96875 l -5.21875,-5 c 0.474349,-1.649431 0.74938,-3.307761 0.9375,-5 2.233426,-0.885503 4.482198,-1.812295 6.71875,-2.6875 -0.06938,-2.532111 -0.56128,-5.095726 -1.5,-7.40625 -2.400864,0.06256 -4.816726,0.105202 -7.21875,0.15625 C 43.760011,39.978534 42.755554,38.523964 41.75,37.25 l 2.875,-6.65625 c -1.926418,-1.639153 -3.901375,-2.910932 -6,-3.9375 l -5,5.1875 c -1.825689,-0.5594 -3.695093,-0.88118 -5.5625,-1.0625 l -2.75,-6.75 z"
         style="color:#000000;fill:#ffffff;fill-opacity:1;fill-rule:nonzero;stroke:none;stroke-width:1.16573465;marker:none;visibility:visible;display:inline;overflow:visible;enable-background:new"
         inkscape:connector-curvature="0" />
      <path
         transform="translate(-2.657388,-2.638372)"
         id="path3243-2-0"
         d="m 71.40625,23.6875 c -2.522915,0.181118 -4.814873,0.636253 -7.03125,1.375 l 0.0625,7.1875 c -1.694263,0.880649 -3.259732,1.976694 -4.71875,3.15625 l -6.6875,-2.875 c -1.384684,1.703026 -2.757462,3.617885 -3.71875,5.5 l 5.1875,5.125 c -0.620677,1.782285 -0.913114,3.759347 -1.15625,5.5625 l -6.71875,2.625 c 0.129394,2.407557 0.64505,4.804435 1.375,7.03125 l 7.21875,-0.09375 c 0.879794,1.542313 1.835015,2.914867 2.84375,4.25 -0.972318,2.197001 -1.924497,4.401893 -2.90625,6.59375 1.872604,1.86815 3.953274,3.121934 6.25,4.21875 1.668566,-1.727385 3.353799,-3.436253 5.03125,-5.15625 1.731588,0.534234 3.330824,0.781791 5,1.03125 l 2.625,6.75 c 2.425085,-0.084 4.774151,-0.623665 7.03125,-1.375 L 81,67.375 c 1.766554,-0.860233 3.274919,-1.970678 4.75,-3.15625 l 6.65625,2.90625 c 0.918345,-1.096821 1.777158,-2.250868 2.53125,-3.4375 0.262595,-0.863789 0.474175,-1.740788 0.6875,-2.625 L 90.96875,56.5 c 0.670829,-1.990535 0.934112,-3.651734 1.125,-5.5625 l 4.8125,-1.90625 c -0.05381,-2.64 -0.309281,-5.203373 -0.78125,-7.71875 l -5.90625,0.0625 c -0.817771,-1.508933 -1.76057,-2.911154 -2.8125,-4.25 0.972336,-2.197013 1.924468,-4.401889 2.90625,-6.59375 -1.824267,-1.757395 -3.992241,-3.259974 -6.28125,-4.25 C 82.362684,28.008663 80.677465,29.748739 79,31.46875 77.360829,30.990228 75.610144,30.641352 74,30.4375 l -2.59375,-6.75 z"
         style="color:#000000;fill:#000000;fill-opacity:1;fill-rule:nonzero;stroke:none;stroke-width:1.16573465;marker:none;visibility:visible;display:inline;overflow:visible;enable-background:new"
         inkscape:connector-curvature="0" />
      <path
         d="m 45.419051,49.865064 0,-5.457015 -14.112813,0 0,5.457015 14.112813,0 z"
         id="rect3139"
         inkscape:connector-curvature="0"
         style="fill:#ffffff;fill-opacity:1;display:inline;enable-background:new"
         transform="translate(31.759903,-0.2078199)" />
      <path
         id="path3938"
         style="fill:#000000;fill-opacity:1;stroke:none;display:inline;enable-background:new"
         d="m -15.236652,49.851044 5.4787914,0 0,5.640112 5.273694,0 0,-5.640112 5.47879095,0 0,-5.428596 -5.47879095,0 0,-5.640491 -5.273694,0 0,5.64068 -5.4787914,0 0,5.428407 z"
         inkscape:connector-curvature="0"
         transform="translate(31.759903,-0.2078199)" />
      <path
         inkscape:connector-curvature="0"
         id="path9351"
         d="m 33.409828,1.9840869 c -26.1442117,0 -47.342615,21.1984031 -47.342615,47.3426141 0,26.144212 21.1984033,47.39266 47.342615,47.39266 26.144211,0 47.342614,-21.248448 47.342614,-47.39266 0,-26.144211 -21.198403,-47.3426141 -47.342614,-47.3426141 z m 0,2.2520271 c 24.932875,0 45.140632,20.157713 45.140632,45.090587 0,24.932875 -20.207757,45.140633 -45.140632,45.140633 -24.9328749,0 -45.140632,-20.207758 -45.140632,-45.140633 0,-24.932874 20.2077571,-45.090587 45.140632,-45.090587 z"
         style="color:#000000;fill:#000000;fill-opacity:1;stroke:none;stroke-width:1.39960635;marker:none;visibility:visible;display:inline;font-family:Sans;-inkscape-font-specification:Sans"
         transform="translate(13.932787,-1.9840869)" />
    </g>
    <g
       style="font-style:normal;font-variant:normal;font-weight:normal;font-stretch:normal;font-size:3.75px;line-height:125%;font-family:'0xA000';-inkscape-font-specification:'0xA000, Normal';text-align:start;letter-spacing:0px;word-spacing:0px;writing-mode:lr-tb;text-anchor:start;fill:#ffffff;fill-opacity:1;stroke:none;stroke-width:1px;stroke-linecap:butt;stroke-linejoin:miter;stroke-opacity:1"
       id="text4230"
       transform="translate(0.42645872,-0.42645872)">
      <path
         d="m 36.72152,95.065437 q 0.160701,-0.105537 0.326334,-0.146009 0.165633,-0.04047 0.376257,0.0057 0.164836,0.03614 0.294545,0.115756 0.345807,0.261359 0.426622,0.666179 -0.0021,0.316251 -0.06973,0.624556 l -0.13383,0.610503 -0.277779,-0.06089 0.13383,-0.610503 q 0.01941,-0.08852 0.02869,-0.16007 0.01301,-0.07393 0.01694,-0.121055 0.0039,-0.04713 4.5e-5,-0.102365 -0.0039,-0.05524 -0.0084,-0.07861 -0.0014,-0.02271 -0.01618,-0.08673 -0.01171,-0.06335 -0.01551,-0.08978 l -0.0031,-6.69e-4 q -0.01,-0.05658 -0.06004,-0.134732 -0.05005,-0.07816 -0.09726,-0.110899 -0.119003,-0.128461 -0.286891,-0.165265 -0.164836,-0.03613 -0.323612,0.03144 -0.05963,0.0093 -0.137785,0.05937 -0.07749,0.047 -0.110898,0.09726 l -0.0031,-6.69e-4 q -0.01451,0.02241 -0.0547,0.07439 -0.03713,0.05264 -0.05098,0.07201 -0.01079,0.02003 -0.03743,0.06858 -0.02664,0.04855 -0.04278,0.093 -0.01614,0.04445 -0.03831,0.116372 -0.01844,0.06954 -0.03785,0.158061 l -0.133831,0.610504 -0.274726,-0.06022 0.535323,-2.442014 0.274726,0.06022 -0.198739,0.906598 z"
         style="font-style:normal;font-variant:normal;font-weight:normal;font-stretch:normal;font-size:3.75px;line-height:125%;font-family:'0xA000';-inkscape-font-specification:'0xA000, Normal';text-align:start;writing-mode:lr-tb;text-anchor:start;fill:#ffffff"
         id="path4307"
         inkscape:connector-curvature="0" />
      <path
         d="m 40.011299,97.014888 q -0.180951,0.119288 -0.372921,0.170284 -0.315402,0.01185 -0.626906,-0.03898 -0.255989,-0.04178 -0.408764,-0.250357 -0.149187,-0.21116 -0.10741,-0.467149 0.04178,-0.255988 0.249853,-0.405679 0.211664,-0.152271 0.467653,-0.110495 l 0.953017,0.155529 q 0.01856,-0.133124 -0.06403,-0.247925 -0.079,-0.117381 -0.217789,-0.140031 l 5.03e-4,-0.0031 q -0.08944,-0.0146 -0.164469,-0.02051 -0.07452,-0.009 -0.118709,-0.0099 -0.04419,-8.79e-4 -0.102218,0.0055 -0.05803,0.0064 -0.08113,0.01209 -0.01951,0.0031 -0.08572,0.02084 -0.06263,0.01511 -0.08573,0.02084 l 0.05637,-0.34543 q 0.217275,-0.01204 0.326732,-0.0037 0.112541,0.0089 0.300677,0.03957 0.255989,0.04178 0.405176,0.252938 0.152271,0.211664 0.110998,0.464568 l -0.201332,1.23368 -0.280662,-0.0458 0.04681,-0.286831 z m -0.316548,-0.175146 q 0.03027,-0.01089 0.09649,-0.02858 0.06672,-0.02078 0.103664,-0.03374 0.04003,-0.01247 0.08824,-0.03626 0.04821,-0.0238 0.08201,-0.05628 l 0.05486,-0.336178 -0.953017,-0.155529 q -0.136208,-0.01906 -0.254094,0.06302 -0.114297,0.0795 -0.136947,0.218292 l -0.0031,-5.03e-4 q -0.01906,0.136208 0.05994,0.25359 0.08259,0.114801 0.224461,0.137954 l -5.04e-4,0.0031 q 0.08944,0.0146 0.160882,0.02309 0.07503,0.0059 0.122297,0.0073 0.04727,0.0014 0.102218,-0.0055 0.05495,-0.0069 0.07754,-0.0095 0.0231,-0.0057 0.08573,-0.02084 0.06313,-0.01819 0.08931,-0.02342 z"
         style="font-style:normal;font-variant:normal;font-weight:normal;font-stretch:normal;font-size:3.75px;line-height:125%;font-family:'0xA000';-inkscape-font-specification:'0xA000, Normal';text-align:start;writing-mode:lr-tb;text-anchor:start;fill:#ffffff"
         id="path4309"
         inkscape:connector-curvature="0" />
      <path
         d="m 41.899074,97.493822 q -0.148052,0.03069 -0.318872,0.01168 -0.167715,-0.01866 -0.302294,-0.0808 -0.36853,-0.220231 -0.496844,-0.621256 -0.03104,-0.144946 -0.01237,-0.312661 0.01901,-0.170821 0.08149,-0.308505 0.223683,-0.371291 0.620911,-0.493738 0.145292,-0.03414 0.313006,-0.01548 0.170821,0.01901 0.30816,0.0846 0.371291,0.223682 0.494083,0.617804 l -0.350959,-0.03905 q -0.01586,-0.05522 -0.07383,-0.127699 -0.05797,-0.07248 -0.108346,-0.100095 -0.131809,-0.115284 -0.30263,-0.134291 -0.167715,-0.01866 -0.318536,0.06517 -0.05832,0.01552 -0.130804,0.07349 -0.07213,0.05486 -0.100096,0.108345 -0.112178,0.132155 -0.131185,0.302976 -0.01866,0.167715 0.06207,0.318191 0.01518,0.06143 0.07003,0.133564 0.05831,0.06937 0.114903,0.09768 0.129049,0.111832 0.296764,0.130494 0.170821,0.01901 0.324402,-0.06138 0.05832,-0.01552 0.127698,-0.07383 0.07248,-0.05797 0.100441,-0.111451 l 0.35096,0.03905 q -0.220232,0.36853 -0.618151,0.497189 z"
         style="font-style:normal;font-variant:normal;font-weight:normal;font-stretch:normal;font-size:3.75px;line-height:125%;font-family:'0xA000';-inkscape-font-specification:'0xA000, Normal';text-align:start;writing-mode:lr-tb;text-anchor:start;fill:#ffffff"
         id="path4311"
         inkscape:connector-curvature="0" />
      <path
         d="m 44.385117,97.132228 -0.0031,-1.84e-4 q -0.01871,-0.05432 -0.08036,-0.123695 -0.06165,-0.06937 -0.113394,-0.09434 l 1.84e-4,-0.0031 q -0.0244,-0.01083 -0.0822,-0.03928 -0.05762,-0.03157 -0.07908,-0.0391 -0.02129,-0.01065 -0.0734,-0.02937 -0.05211,-0.01873 -0.09854,-0.02772 -0.04642,-0.009 -0.121111,-0.01653 -0.07138,-0.01047 -0.161851,-0.01581 l -0.343154,-0.02023 -0.05684,0.96395 -0.280762,-0.01656 0.147165,-2.495664 0.280762,0.01656 -0.07358,1.247832 0.343154,0.02023 0.660708,-0.587125 0.280762,0.01656 q -0.26777,0.240906 -0.660707,0.587125 l -0.280763,-0.01656 q 0.315078,0.01858 0.620053,0.102303 0.382398,0.204114 0.525477,0.591333 0.0473,0.312701 0.02872,0.627779 l -0.283882,-0.01674 q 0.0053,-0.09047 0.0033,-0.162586 0.0013,-0.07505 -0.0022,-0.122216 -0.0035,-0.04716 -0.01595,-0.101114 -0.01247,-0.05395 -0.02054,-0.07634 -0.005,-0.0222 -0.02953,-0.08313 -0.02146,-0.06074 -0.02935,-0.08625 z"
         style="font-style:normal;font-variant:normal;font-weight:normal;font-stretch:normal;font-size:3.75px;line-height:125%;font-family:'0xA000';-inkscape-font-specification:'0xA000, Normal';text-align:start;writing-mode:lr-tb;text-anchor:start;fill:#ffffff"
         id="path4313"
         inkscape:connector-curvature="0" />
      <path
         d="m 46.02897,97.49731 q 0.134123,0.03535 0.374741,0.03709 l 0.624984,0.0045 -0.002,0.281243 -0.624984,-0.0045 q -0.318741,-0.0023 -0.624531,-0.06702 -0.389327,-0.180946 -0.558417,-0.566554 -0.04586,-0.14096 -0.04464,-0.309706 0.0012,-0.17187 0.04916,-0.315278 0.184093,-0.392428 0.566531,-0.555292 0.140983,-0.04898 0.309728,-0.04776 0.171871,0.0012 0.315256,0.05228 0.392428,0.184093 0.555314,0.563406 -0.04721,0.04653 -0.277004,0.276128 -0.226644,0.226492 -0.3525,0.344335 L 46.02897,97.49731 Z M 45.7797,97.395505 q 0.11331,-0.111684 0.629504,-0.620463 l 0.207759,-0.207878 q -0.02149,-0.05328 -0.08664,-0.11938 -0.06515,-0.0661 -0.118114,-0.08836 -0.143023,-0.101037 -0.314894,-0.10228 -0.168745,-0.0012 -0.31009,0.09776 -0.05641,0.02147 -0.122505,0.08662 -0.06607,0.06202 -0.08836,0.118114 -0.09791,0.143046 -0.09916,0.314916 -0.0012,0.168746 0.09463,0.310068 0.02144,0.05953 0.08347,0.125607 0.06517,0.06297 0.124387,0.08528 z"
         style="font-style:normal;font-variant:normal;font-weight:normal;font-stretch:normal;font-size:3.75px;line-height:125%;font-family:'0xA000';-inkscape-font-specification:'0xA000, Normal';text-align:start;writing-mode:lr-tb;text-anchor:start;fill:#ffffff"
         id="path4315"
         inkscape:connector-curvature="0" />
      <path
         d="m 48.034824,95.920179 q 0.315425,-0.01124 0.62694,0.04333 l 0.01246,0.349778 q -0.02532,-0.0085 -0.08555,-0.03135 -0.06034,-0.02599 -0.08242,-0.03146 -0.02219,-0.0086 -0.07584,-0.02231 -0.05365,-0.01372 -0.100716,-0.0183 -0.04707,-0.0046 -0.122131,-0.005 -0.07205,-0.0037 -0.16262,-4.61e-4 -0.137301,0.008 -0.236801,0.111626 -0.09649,0.100374 -0.09148,0.24091 l -0.0031,1.11e-4 0.0445,1.249208 -0.281072,0.01001 -0.06675,-1.873811 0.281071,-0.01001 0.0037,0.10306 q 0.152479,-0.108622 0.33986,-0.115297 z"
         style="font-style:normal;font-variant:normal;font-weight:normal;font-stretch:normal;font-size:3.75px;line-height:125%;font-family:'0xA000';-inkscape-font-specification:'0xA000, Normal';text-align:start;writing-mode:lr-tb;text-anchor:start;fill:#ffffff"
         id="path4317"
         inkscape:connector-curvature="0" />
      <path
         d="m 48.952091,94.7944 q 0.06127,-0.06971 0.148591,-0.07533 0.08732,-0.0056 0.153907,0.05585 0.06951,0.05815 0.07513,0.145472 0.0056,0.08732 -0.05565,0.157026 -0.05815,0.06951 -0.145472,0.07513 -0.08732,0.0056 -0.157026,-0.05565 -0.06971,-0.06127 -0.07533,-0.148591 -0.0056,-0.08732 0.05585,-0.153907 z m 0.361223,1.038308 0.122302,1.899191 -0.283787,0.01828 -0.122303,-1.899191 0.283788,-0.01828 z"
         style="font-style:normal;font-variant:normal;font-weight:normal;font-stretch:normal;font-size:3.75px;line-height:125%;font-family:'0xA000';-inkscape-font-specification:'0xA000, Normal';text-align:start;writing-mode:lr-tb;text-anchor:start;fill:#ffffff"
         id="path4319"
         inkscape:connector-curvature="0" />
      <path
         d="m 50.772908,97.314799 q 0.137076,0.02117 0.376566,-0.0022 l 0.62205,-0.06065 0.02729,0.279922 -0.62205,0.06065 q -0.317246,0.03093 -0.628115,-0.0016 -0.406067,-0.139379 -0.61443,-0.505261 -0.0603,-0.135412 -0.07668,-0.303366 -0.01668,-0.171064 0.01603,-0.318684 0.142185,-0.40948 0.505564,-0.61132 0.135109,-0.06341 0.303063,-0.07979 0.171064,-0.01668 0.318987,0.01914 0.40948,0.142186 0.611017,0.502454 -0.04211,0.0512 -0.246713,0.303498 -0.201801,0.248883 -0.314688,0.379202 l -0.277893,0.337937 z m -0.258524,-0.07527 q 0.101052,-0.122886 0.5614,-0.6827 l 0.184959,-0.228401 q -0.02693,-0.05075 -0.09861,-0.109699 -0.07168,-0.05895 -0.126681,-0.07556 -0.152775,-0.08558 -0.323839,-0.0689 -0.167954,0.01637 -0.298211,0.12955 -0.05386,0.02723 -0.112809,0.09891 -0.05925,0.06857 -0.07556,0.126681 -0.08247,0.152472 -0.06579,0.323536 0.01638,0.167954 0.126439,0.298514 0.02753,0.05697 0.09611,0.116222 0.07138,0.05584 0.132598,0.07185 z"
         style="font-style:normal;font-variant:normal;font-weight:normal;font-stretch:normal;font-size:3.75px;line-height:125%;font-family:'0xA000';-inkscape-font-specification:'0xA000, Normal';text-align:start;writing-mode:lr-tb;text-anchor:start;fill:#ffffff"
         id="path4321"
         inkscape:connector-curvature="0" />
      <path
         d="m 52.815935,97.403308 q -0.256899,0.03576 -0.4645,-0.118346 -0.204937,-0.157629 -0.240693,-0.414527 l -0.258479,-1.857099 0.278565,-0.03877 0.08616,0.619032 0.959501,-0.133547 0.0392,0.28166 -0.959501,0.133547 0.133117,0.956406 q 0.02205,0.135756 0.132217,0.224542 0.11283,0.08526 0.255208,0.06544 l 4.31e-4,0.0031 0.619032,-0.08616 0.03877,0.278565 -0.619032,0.08616 z"
         style="font-style:normal;font-variant:normal;font-weight:normal;font-stretch:normal;font-size:3.75px;line-height:125%;font-family:'0xA000';-inkscape-font-specification:'0xA000, Normal';text-align:start;writing-mode:lr-tb;text-anchor:start;fill:#ffffff"
         id="path4323"
         inkscape:connector-curvature="0" />
      <path
         d="m 53.95504,96.771076 q 0.05389,-0.07556 0.140187,-0.09001 0.0863,-0.01445 0.158777,0.03996 0.07504,0.05081 0.08949,0.137105 0.01445,0.0863 -0.03944,0.161859 -0.05081,0.07504 -0.137105,0.08949 -0.0863,0.01445 -0.161859,-0.03944 -0.07248,-0.0544 -0.08693,-0.140702 -0.01445,-0.0863 0.03687,-0.158262 z"
         style="font-style:normal;font-variant:normal;font-weight:normal;font-stretch:normal;font-size:3.75px;line-height:125%;font-family:'0xA000';-inkscape-font-specification:'0xA000, Normal';text-align:start;writing-mode:lr-tb;text-anchor:start;fill:#ffffff"
         id="path4325"
         inkscape:connector-curvature="0" />
      <path
         d="m 54.903266,95.491192 q 0.104675,-0.161264 0.240038,-0.264942 0.135363,-0.103679 0.346768,-0.146129 0.165447,-0.03322 0.316228,-0.0125 0.421727,0.100184 0.658553,0.438302 0.125248,0.2904 0.187386,0.599848 l 0.123046,0.612768 -0.27881,0.05599 -0.123045,-0.612768 q -0.01784,-0.08885 -0.03812,-0.158089 -0.01783,-0.07292 -0.03319,-0.117644 -0.01536,-0.04473 -0.04113,-0.09374 -0.02578,-0.04901 -0.03928,-0.06861 -0.01043,-0.02022 -0.0497,-0.07289 -0.0362,-0.05329 -0.05031,-0.07596 l -0.0031,6.16e-4 q -0.03191,-0.04778 -0.109166,-0.0992 -0.07726,-0.05142 -0.133653,-0.06241 -0.160624,-0.06974 -0.329135,-0.0359 -0.165447,0.03322 -0.283633,0.158951 -0.05084,0.03252 -0.102263,0.109781 -0.05204,0.0742 -0.06241,0.133653 l -0.0031,6.15e-4 q -0.0043,0.02636 -0.02015,0.09011 -0.01282,0.06314 -0.01771,0.08643 -0.0018,0.02268 -0.0067,0.07784 -0.0049,0.05516 -0.0018,0.10235 0.0031,0.04719 0.01174,0.121951 0.01109,0.07108 0.02893,0.159935 l 0.123045,0.612768 -0.275745,0.05537 -0.369137,-1.838304 0.275745,-0.05537 0.05968,0.297193 z"
         style="font-style:normal;font-variant:normal;font-weight:normal;font-stretch:normal;font-size:3.75px;line-height:125%;font-family:'0xA000';-inkscape-font-specification:'0xA000, Normal';text-align:start;writing-mode:lr-tb;text-anchor:start;fill:#ffffff"
         id="path4327"
         inkscape:connector-curvature="0" />
      <path
         d="m 58.40802,96.27514 q -0.12843,0.0798 -0.295349,0.120772 -0.163884,0.04023 -0.311629,0.02824 -0.421828,-0.07986 -0.680386,-0.412174 -0.07905,-0.125395 -0.119282,-0.289279 -0.04098,-0.166919 -0.02972,-0.317699 0.08215,-0.425608 0.412919,-0.677351 0.12465,-0.08208 0.288534,-0.122317 0.166919,-0.04098 0.318444,-0.02669 0.425608,0.08215 0.676606,0.409884 0.08283,0.127684 0.123807,0.294603 0.04023,0.163884 0.0252,0.312375 -0.07986,0.421828 -0.409139,0.679641 z m -0.08419,-0.342943 q 0.04941,-0.03465 0.09446,-0.113288 0.04809,-0.07938 0.05592,-0.139221 0.06359,-0.160411 0.02336,-0.324295 -0.04098,-0.166919 -0.172364,-0.282683 -0.03391,-0.04638 -0.113289,-0.09446 -0.07938,-0.04809 -0.136186,-0.05667 -0.163446,-0.06284 -0.330365,-0.02187 -0.163884,0.04023 -0.276613,0.170875 -0.04941,0.03466 -0.0975,0.114033 -0.04883,0.07634 -0.05667,0.136187 -0.05981,0.162701 -0.01883,0.32962 0.04023,0.163884 0.16784,0.277358 0.0354,0.05245 0.111744,0.101279 0.07863,0.04505 0.141511,0.05214 0.159666,0.06055 0.32355,0.02032 0.166919,-0.04098 0.283428,-0.16933 z"
         style="font-style:normal;font-variant:normal;font-weight:normal;font-stretch:normal;font-size:3.75px;line-height:125%;font-family:'0xA000';-inkscape-font-specification:'0xA000, Normal';text-align:start;writing-mode:lr-tb;text-anchor:start;fill:#ffffff"
         id="path4329"
         inkscape:connector-curvature="0" />
    </g>
  </g>
</svg>
