<?xml version="1.0" encoding="UTF-8" standalone="no"?>
<!-- Created with Inkscape (http://www.inkscape.org/) -->

<svg
   xmlns:dc="http://purl.org/dc/elements/1.1/"
   xmlns:cc="http://creativecommons.org/ns#"
   xmlns:rdf="http://www.w3.org/1999/02/22-rdf-syntax-ns#"
   xmlns:svg="http://www.w3.org/2000/svg"
   xmlns="http://www.w3.org/2000/svg"
   xmlns:sodipodi="http://sodipodi.sourceforge.net/DTD/sodipodi-0.dtd"
   xmlns:inkscape="http://www.inkscape.org/namespaces/inkscape"
   width="100.00001"
   height="100"
   id="svg53383"
   sodipodi:version="0.32"
   inkscape:version="0.91 r13725"
   sodipodi:docname="hackeriet_sticker_monochrom.svg"
   inkscape:output_extension="org.inkscape.output.svg.inkscape"
   version="1.1"
   inkscape:export-filename="/home/sjn/Dropbox/Hackeriet/Logos/comotion-sjn-reclaim-5-179x179.png"
   inkscape:export-xdpi="161.10001"
   inkscape:export-ydpi="161.10001"
   style="enable-background:new">
  <defs
     id="defs3" />
  <sodipodi:namedview
     inkscape:showpageshadow="false"
     id="base"
     pagecolor="#ffffff"
     bordercolor="#666666"
     borderopacity="0.11764706"
     inkscape:pageopacity="0.0"
     inkscape:pageshadow="2"
     inkscape:zoom="4.6897857"
     inkscape:cx="6.6723135"
     inkscape:cy="43.232181"
     inkscape:current-layer="layer4"
     showgrid="false"
     inkscape:grid-bbox="true"
     inkscape:document-units="px"
     inkscape:window-width="1918"
     inkscape:window-height="1156"
     inkscape:window-x="2"
     inkscape:window-y="24"
     showguides="false"
     inkscape:guide-bbox="true"
     inkscape:window-maximized="1"
     fit-margin-top="0"
     fit-margin-left="0"
     fit-margin-right="0"
     fit-margin-bottom="0"
     inkscape:snap-global="true"
     borderlayer="true" />
  <metadata
     id="metadata4">
    <rdf:RDF>
      <cc:Work
         rdf:about="">
        <dc:format>image/svg+xml</dc:format>
        <dc:type
           rdf:resource="http://purl.org/dc/dcmitype/StillImage" />
        <dc:title></dc:title>
        <dc:creator>
          <cc:Agent>
            <dc:title>Jakub Steiner</dc:title>
          </cc:Agent>
        </dc:creator>
        <dc:source>http://jimmac.musichall.cz/</dc:source>
        <dc:subject>
          <rdf:Bag>
            <rdf:li>system</rdf:li>
            <rdf:li>applications</rdf:li>
            <rdf:li>group</rdf:li>
            <rdf:li>category</rdf:li>
            <rdf:li>admin</rdf:li>
            <rdf:li>root</rdf:li>
          </rdf:Bag>
        </dc:subject>
        <cc:license
           rdf:resource="http://creativecommons.org/licenses/publicdomain/" />
      </cc:Work>
      <cc:License
         rdf:about="http://creativecommons.org/licenses/publicdomain/">
        <cc:permits
           rdf:resource="http://creativecommons.org/ns#Reproduction" />
        <cc:permits
           rdf:resource="http://creativecommons.org/ns#Distribution" />
        <cc:permits
           rdf:resource="http://creativecommons.org/ns#DerivativeWorks" />
      </cc:License>
    </rdf:RDF>
  </metadata>
  <g
     inkscape:groupmode="layer"
     id="layer2"
     inkscape:label="YingYang"
     style="display:inline"
     transform="translate(34.417291,2.4305521)" />
  <g
     inkscape:groupmode="layer"
     id="layer1"
     inkscape:label="Tannhjul"
     style="display:inline"
     transform="translate(5e-6,-5.0000001e-7)" />
  <g
     inkscape:groupmode="layer"
     id="layer3"
     inkscape:label="Plus/minus"
     style="display:inline"
     transform="translate(34.417291,2.4305521)" />
  <g
     inkscape:groupmode="layer"
     id="layer4"
     inkscape:label="Topp-sirkel"
     style="opacity:1;display:inline"
     transform="translate(2.657388,2.638372)">
    <g
       id="g4129"
       transform="matrix(1.0561309,0,0,1.055573,-2.6573822,-2.6383707)">
      <path
         inkscape:connector-curvature="0"
         id="path1366"
         transform="translate(-2.657383,-2.6383725)"
         d="M 50,3.6875 C 24.419071,3.6875 3.6875,24.419069 3.6875,50 3.6875,75.580928 24.419071,96.3125 50,96.3125 75.58093,96.3125 96.3125,75.580928 96.3125,50 96.3125,24.419069 75.58093,3.6875 50,3.6875 z"
         style="fill:#ffffff;fill-opacity:1;stroke:none;display:inline;enable-background:new" />
      <path
         inkscape:connector-curvature="0"
         id="path1351"
         d="m 45.71875,1.0625 c -16.853001,0.4403743 -32.954907,10.94151 -40.125,26.21875 -1.4179009,2.920824 -2.4905419,6.003689 -3.25,9.15625 l 1.125,0 c 2.4881368,-1.468168 6.1596799,-0.293063 8.90625,0.09375 7.475605,1.613368 14.902073,4.580566 22.6875,3.53125 3.739417,-0.74852 7.080436,0.889105 9.96875,3.09375 5.947322,4.28684 10.645792,10.369519 17.625,13.15625 3.816281,2.098748 7.979626,2.595651 12.25,2.25 4.026537,0.368702 8.38685,0.623539 12.03125,-1.28125 2.731128,-0.906763 4.419656,4.621535 4.75,3.4375 5.012702,-16.142355 0.244665,-34.819651 -12,-46.5 C 71.158005,5.8213183 59.317122,1.0009984 47.34375,1.0625 c -0.544959,-0.00692 -1.081355,-0.014206 -1.625,0 z"
         style="fill:#000000;display:inline;enable-background:new" />
      <path
         transform="translate(-2.657388,-2.638372)"
         id="path3243-2"
         d="m 25.3125,24.03125 c -2.181295,0.244146 -4.526418,0.643856 -6.53125,1.3125 l 0.125,7.28125 c -1.691919,0.836176 -3.281488,2.071817 -4.71875,3.1875 l -6.625,-2.84375 c -0.9285541,1.052363 -1.759936,2.19297 -2.5,3.375 C 4.7429349,37.397464 4.4960586,38.478797 4.25,39.5625 l 4.59375,4.375 c -0.4535073,1.716711 -0.752423,3.340685 -0.96875,5 -1.5986359,0.633831 -3.1836487,1.300581 -4.78125,1.9375 0.051004,2.770021 0.3332787,5.493153 0.84375,8.125 1.9858329,-0.04731 3.9827075,-0.08279 5.96875,-0.125 0.860602,1.594728 1.796808,2.870882 2.8125,4.21875 L 9.875,69.75 c 1.788566,1.639853 3.832255,2.891368 5.96875,3.9375 l 5,-5.1875 c 1.86294,0.624631 3.679418,0.874211 5.5625,1.0625 l 2.75,6.75 C 31.399547,76.094072 33.620101,75.697731 35.6875,75 l -0.125,-7.28125 c 1.873652,-0.949557 3.243326,-1.958439 4.71875,-3.1875 L 46.9375,67.375 c 1.719988,-1.814696 2.872088,-3.793845 3.9375,-5.96875 l -5.21875,-5 c 0.474349,-1.649431 0.74938,-3.307761 0.9375,-5 2.233426,-0.885503 4.482198,-1.812295 6.71875,-2.6875 -0.06938,-2.532111 -0.56128,-5.095726 -1.5,-7.40625 -2.400864,0.06256 -4.816726,0.105202 -7.21875,0.15625 C 43.760011,39.978534 42.755554,38.523964 41.75,37.25 l 2.875,-6.65625 c -1.926418,-1.639153 -3.901375,-2.910932 -6,-3.9375 l -5,5.1875 c -1.825689,-0.5594 -3.695093,-0.88118 -5.5625,-1.0625 l -2.75,-6.75 z"
         style="color:#000000;fill:#ffffff;fill-opacity:1;fill-rule:nonzero;stroke:none;stroke-width:1.16573465;marker:none;visibility:visible;display:inline;overflow:visible;enable-background:new"
         inkscape:connector-curvature="0" />
      <path
         transform="translate(-2.657388,-2.638372)"
         id="path3243-2-0"
         d="m 71.40625,23.6875 c -2.522915,0.181118 -4.814873,0.636253 -7.03125,1.375 l 0.0625,7.1875 c -1.694263,0.880649 -3.259732,1.976694 -4.71875,3.15625 l -6.6875,-2.875 c -1.384684,1.703026 -2.757462,3.617885 -3.71875,5.5 l 5.1875,5.125 c -0.620677,1.782285 -0.913114,3.759347 -1.15625,5.5625 l -6.71875,2.625 c 0.129394,2.407557 0.64505,4.804435 1.375,7.03125 l 7.21875,-0.09375 c 0.879794,1.542313 1.835015,2.914867 2.84375,4.25 -0.972318,2.197001 -1.924497,4.401893 -2.90625,6.59375 1.872604,1.86815 3.953274,3.121934 6.25,4.21875 1.668566,-1.727385 3.353799,-3.436253 5.03125,-5.15625 1.731588,0.534234 3.330824,0.781791 5,1.03125 l 2.625,6.75 c 2.425085,-0.084 4.774151,-0.623665 7.03125,-1.375 L 81,67.375 c 1.766554,-0.860233 3.274919,-1.970678 4.75,-3.15625 l 6.65625,2.90625 c 0.918345,-1.096821 1.777158,-2.250868 2.53125,-3.4375 0.262595,-0.863789 0.474175,-1.740788 0.6875,-2.625 L 90.96875,56.5 c 0.670829,-1.990535 0.934112,-3.651734 1.125,-5.5625 l 4.8125,-1.90625 c -0.05381,-2.64 -0.309281,-5.203373 -0.78125,-7.71875 l -5.90625,0.0625 c -0.817771,-1.508933 -1.76057,-2.911154 -2.8125,-4.25 0.972336,-2.197013 1.924468,-4.401889 2.90625,-6.59375 -1.824267,-1.757395 -3.992241,-3.259974 -6.28125,-4.25 C 82.362684,28.008663 80.677465,29.748739 79,31.46875 77.360829,30.990228 75.610144,30.641352 74,30.4375 l -2.59375,-6.75 z"
         style="color:#000000;fill:#000000;fill-opacity:1;fill-rule:nonzero;stroke:none;stroke-width:1.16573465;marker:none;visibility:visible;display:inline;overflow:visible;enable-background:new"
         inkscape:connector-curvature="0" />
      <path
         d="m 45.419051,49.865064 0,-5.457015 -14.112813,0 0,5.457015 14.112813,0 z"
         id="rect3139"
         inkscape:connector-curvature="0"
         style="fill:#ffffff;fill-opacity:1;display:inline;enable-background:new"
         transform="translate(31.759903,-0.2078199)" />
      <path
         id="path3938"
         style="fill:#000000;fill-opacity:1;stroke:none;display:inline;enable-background:new"
         d="m -15.236652,49.851044 5.4787914,0 0,5.640112 5.273694,0 0,-5.640112 5.47879095,0 0,-5.428596 -5.47879095,0 0,-5.640491 -5.273694,0 0,5.64068 -5.4787914,0 0,5.428407 z"
         inkscape:connector-curvature="0"
         transform="translate(31.759903,-0.2078199)" />
      <path
         inkscape:connector-curvature="0"
         id="path9351"
         d="m 33.409828,1.9840869 c -26.1442117,0 -47.342615,21.1984031 -47.342615,47.3426141 0,26.144212 21.1984033,47.39266 47.342615,47.39266 26.144211,0 47.342614,-21.248448 47.342614,-47.39266 0,-26.144211 -21.198403,-47.3426141 -47.342614,-47.3426141 z m 0,2.2520271 c 24.932875,0 45.140632,20.157713 45.140632,45.090587 0,24.932875 -20.207757,45.140633 -45.140632,45.140633 -24.9328749,0 -45.140632,-20.207758 -45.140632,-45.140633 0,-24.932874 20.2077571,-45.090587 45.140632,-45.090587 z"
         style="color:#000000;fill:#000000;fill-opacity:1;stroke:none;stroke-width:1.39960635;marker:none;visibility:visible;display:inline;font-family:Sans;-inkscape-font-specification:Sans"
         transform="translate(13.932787,-1.9840869)" />
    </g>
    <g
       style="font-style:normal;font-variant:normal;font-weight:normal;font-stretch:normal;font-size:5px;line-height:125%;font-family:'0xA000-Monochrome';-inkscape-font-specification:'0xA000-Monochrome, Normal';text-align:start;letter-spacing:0px;word-spacing:0px;writing-mode:lr-tb;text-anchor:start;fill:#ffffff;fill-opacity:1;stroke:none;stroke-width:1px;stroke-linecap:butt;stroke-linejoin:miter;stroke-opacity:1"
       id="text4230">
      <path
         d="m 33.424521,93.368141 -0.142965,-0.299039 0.17189,0.06069 0.03177,0.06645 -0.0607,0.171891 z m -0.130062,0.368336 -0.381239,-0.797437 0.17189,0.06069 0.270044,0.564852 -0.06069,0.17189 z m -1.905016,-2.191634 0.785785,0.277465 -0.277466,0.785785 0.785785,0.277465 -0.01734,0.04911 q 0.01734,-0.04911 0.05057,-0.065 l 0.508319,1.06325 q -0.03323,0.01588 -0.08234,-0.0015 l 0.04911,0.01734 -0.554931,1.571569 -0.785785,-0.277465 0.554931,-1.571569 0.294669,0.104049 -0.190619,-0.398718 -0.10405,0.294669 -0.785784,-0.277466 -0.554931,1.571569 -0.785785,-0.277465 1.109862,-3.143138 z m 1.483198,2.291245 0.196446,0.06937 -0.428894,-0.897117 -0.06937,0.196446 0.301815,0.631305 z"
         style="font-style:normal;font-variant:normal;font-weight:normal;font-stretch:normal;font-size:5px;line-height:125%;font-family:'0xA000-Monochrome';-inkscape-font-specification:'0xA000-Monochrome, Normal';text-align:start;writing-mode:lr-tb;text-anchor:start;fill:#ffffff"
         id="path4238" />
      <path
         d="m 34.216616,96.044356 -0.601054,-1.056308 q 0.02511,0.0069 0.02511,0.0069 l 0.220728,-0.803569 0.351562,0.09657 -0.273206,-0.48014 0.04828,-0.17578 0.400703,0.704205 0.251115,0.06898 -0.58284,-1.024298 0.157567,0.01628 0.491771,0.864251 0.06898,-0.251115 -0.309634,-0.544159 0.175781,0.04829 0.182137,0.320093 0.06208,-0.226004 0.02511,0.0069 -0.01821,-0.03201 0.02511,0.0069 -0.0069,0.02511 1.582026,0.43456 -0.662186,2.410707 -0.803569,-0.220729 -0.803569,-0.220729 q 0,0 -0.0069,0.02511 z m -0.426896,-0.117263 -0.29142,-0.512148 0.04828,-0.175781 0.418917,0.736214 -0.175781,-0.04829 z m 0.686532,-0.729632 -0.0069,0.02511 -0.01821,-0.03201 0.02511,0.0069 z m 0,0 0.150669,0.04139 -0.109282,-0.192056 -0.04139,0.150669 z m 0.441458,-1.607138 0.150669,0.04139 -0.109283,-0.192056 -0.04139,0.150669 z m -0.65281,2.278252 0.06898,-0.251115 -0.29142,-0.512149 -0.251115,-0.06898 0.473557,0.832242 z m 0.117263,-0.426896 0.06208,-0.226004 0.803569,0.220729 0.220729,-0.803569 -0.803569,-0.220729 q 0,0 -0.0069,0.02511 l -0.213831,0.778457 -0.226004,-0.06208 0.163924,0.288084 z"
         style="font-style:normal;font-variant:normal;font-weight:normal;font-stretch:normal;font-size:5px;line-height:125%;font-family:'0xA000-Monochrome';-inkscape-font-specification:'0xA000-Monochrome, Normal';text-align:start;writing-mode:lr-tb;text-anchor:start;fill:#ffffff"
         id="path4240" />
      <path
         d="m 39.27165,96.349953 -0.02055,-0.03056 0.02556,0.005 -0.005,0.02555 z m -0.08513,0.434447 -0.369866,-0.550139 0.17889,0.03505 0.226029,0.336196 -0.03505,0.17889 z m -1.741241,0.0834 -0.678087,-1.008588 q 0.02556,0.005 0.02556,0.005 l 0.160243,-0.817782 0.357779,0.07011 -0.308221,-0.458449 0.03505,-0.178889 0.452058,0.672391 0.255557,0.05008 -0.657539,-0.978024 0.158341,0.0045 0.554799,0.825208 0.05008,-0.255557 -0.349318,-0.519575 0.17889,0.03505 0.205481,0.305632 0.04507,-0.230001 0.02556,0.005 -0.02055,-0.03056 0.02555,0.005 -0.005,0.02556 0.76667,0.150227 0.158341,0.0045 0.575347,0.855771 -0.0556,0.148327 -0.657539,-0.978025 -0.05008,0.255557 0.452058,0.672392 -0.17889,-0.03505 -0.308221,-0.458449 -0.07011,0.357779 -0.817782,-0.160242 q 0,0 -0.005,0.02556 l -0.150228,0.766671 0.02556,0.005 -0.005,0.02556 -0.02055,-0.03056 -0.005,0.02556 0.792226,0.155235 0.158341,0.0045 0.575347,0.855771 -0.0556,0.148327 -0.657539,-0.978024 -0.05008,0.255556 0.452058,0.672392 -0.17889,-0.03505 -0.308221,-0.458449 -0.07011,0.35778 -0.817782,-0.160243 q 0,0 -0.005,0.02556 z m -0.434446,-0.08513 -0.32877,-0.489012 0.03505,-0.17889 0.472607,0.702955 -0.17889,-0.03505 z m 2.581301,-2.068279 -0.02055,-0.03056 0.02556,0.005 -0.005,0.02556 z m -0.08513,0.434446 -0.369866,-0.550138 0.17889,0.03505 0.226029,0.336196 -0.03505,0.178889 z m -0.230349,1.175562 0.153334,0.03005 -0.123288,-0.18338 -0.03005,0.153335 z m -1.635563,-0.320486 0.153334,0.03005 -0.123289,-0.18338 -0.03005,0.153334 z m 1.956048,-1.315078 0.153334,0.03005 -0.123288,-0.18338 -0.03005,0.153334 z m -1.635563,-0.320485 0.153334,0.03005 -0.123288,-0.18338 -0.03005,0.153334 z m -0.481246,2.320559 0.05008,-0.255557 -0.328769,-0.489012 -0.255557,-0.05008 0.53425,0.794645 z m 0.08513,-0.434447 0.04507,-0.230001 -0.230001,-0.04507 0.184932,0.275069 z"
         style="font-style:normal;font-variant:normal;font-weight:normal;font-stretch:normal;font-size:5px;line-height:125%;font-family:'0xA000-Monochrome';-inkscape-font-specification:'0xA000-Monochrome, Normal';text-align:start;writing-mode:lr-tb;text-anchor:start;fill:#ffffff"
         id="path4242" />
      <path
         d="m 42.702912,95.135398 -0.02282,-0.02891 0.02586,0.003 -0.003,0.02586 z m -0.05175,0.439673 -0.41074,-0.520333 0.181042,0.02131 0.251007,0.317981 -0.02131,0.181042 z m -0.791089,-0.407773 -0.136914,-0.173444 0.155179,0.01826 -0.003,0.02586 0.106496,-0.01369 0.63893,0.809406 -0.03804,0.100408 0.02586,0.003 -0.003,0.02586 -0.02282,-0.02891 q -0.003,0.02586 -0.0061,0.05173 l -0.707386,-0.896127 -0.0091,0.07759 z m -0.06393,0.543126 -0.61611,-0.780499 0.181041,0.02131 0.410741,0.520332 0.02131,-0.181042 0.479197,0.607054 0.05173,0.0061 0.251008,0.317981 -0.02131,0.181042 -0.365103,-0.462518 -0.05173,-0.0061 -0.319465,-0.404703 -0.02131,0.181042 z m -1.504538,-1.697936 0.82762,0.09741 -0.118725,1.008662 0.570473,0.722683 0.155178,0.01827 0.158223,-0.0076 0.638929,0.809406 -0.04413,0.152134 -0.09437,0.801757 -0.82762,-0.09741 0.09741,-0.82762 0.362084,0.04262 -0.319465,-0.404703 -0.04262,0.362084 -0.82762,-0.09741 -0.09741,0.82762 -0.82762,-0.09741 0.389661,-3.31048 z m 2.316937,1.924666 0.155178,0.01827 -0.136913,-0.173444 -0.01826,0.155178 z m 0.09741,-0.82762 0.155179,0.01827 -0.136914,-0.173444 -0.01826,0.155178 z m -0.82762,-0.09741 0.02586,0.003 -0.02282,-0.02891 -0.003,0.02586 z m 0.319388,1.741988 0.258631,0.03044 -0.707386,-0.896128 -0.03044,0.258631 0.479197,0.607055 z m -0.807794,-0.934168 -0.41074,-0.520332 -0.0548,0.465536 0.465537,0.0548 z"
         style="font-style:normal;font-variant:normal;font-weight:normal;font-stretch:normal;font-size:5px;line-height:125%;font-family:'0xA000-Monochrome';-inkscape-font-specification:'0xA000-Monochrome, Normal';text-align:start;writing-mode:lr-tb;text-anchor:start;fill:#ffffff"
         id="path4244" />
      <path
         d="m 45.836546,95.317092 -0.02496,-0.02708 0.02602,0.0011 -0.0011,0.02602 z m -0.01805,0.44234 -0.449247,-0.487473 0.18214,0.0074 0.27454,0.2979 -0.0074,0.18214 z m -0.942547,2.02054 -0.07806,-0.0032 q 0.02602,0.0011 0.02496,0.02708 l -0.18214,-0.0074 q -0.02496,-0.02708 -0.02496,-0.02708 l -0.57244,-0.02336 q 0,0 -0.0011,0.02602 l -0.823619,-0.893702 q 0.02602,0.0011 0.02602,0.0011 l 0.03398,-0.83264 0.36428,0.01487 -0.374372,-0.406228 0.0074,-0.18214 0.54908,0.595801 0.2602,0.01062 -0.798661,-0.866619 0.157182,-0.01965 0.67387,0.73121 0.01062,-0.2602 -0.424288,-0.460392 0.18214,0.0074 0.249581,0.270819 0.0096,-0.23418 0.02602,0.0011 -0.02496,-0.02708 0.02602,0.0011 -0.0011,0.02602 0.7806,0.03186 0.157182,-0.01965 0.698828,0.758292 -0.03239,0.155059 -0.798661,-0.86662 -0.01062,0.2602 0.499163,0.541637 0.02602,0.0011 0.299498,0.324983 -0.0074,0.18214 -0.424289,-0.460392 -0.02602,-0.0011 -0.374372,-0.406228 -0.0138,0.33826 0.02602,0.0011 -0.0011,0.02602 -0.02496,-0.02708 -0.0011,0.02602 -0.23418,-0.0096 0.199665,0.216655 0.0064,-0.15612 0.748745,0.812455 0.07806,0.0032 -0.03398,0.83264 -0.832641,-0.03398 z m -0.226221,-0.843259 0.234181,0.0096 -0.773703,-0.839538 -0.01062,0.2602 0.499163,0.541637 0.02602,0.0011 0.02496,0.02708 z m -0.575625,0.0547 0.0032,-0.07806 0.02602,0.0011 -0.02496,-0.02708 0.02602,0.0011 -0.0011,0.02602 0.33826,0.0138 -0.349414,-0.379146 -0.01487,0.36428 -0.23418,-0.0096 0.199665,0.216655 0.0064,-0.156121 0.02496,0.02708 z m 0.03664,-0.259138 -0.0064,0.15612 0.15612,0.0064 -0.149749,-0.162491 z m -0.05044,0.597398 -0.399331,-0.433309 -0.2602,-0.01062 0.648912,0.704129 0.01062,-0.260201 z m -0.278252,0.431722 -0.18214,-0.0074 -0.399331,-0.43331 0.0074,-0.18214 0.574038,0.622883 z m 1.700322,-0.790702 -0.524121,-0.568719 -0.0064,0.15612 -0.424288,-0.460391 -0.2602,-0.01062 0.67387,0.73121 -0.03133,0.129039 0.57244,0.02336 z m -0.511379,-0.880959 0.15612,0.0064 -0.149749,-0.162491 -0.0064,0.15612 z m 0.866619,-0.798661 0.15612,0.0064 -0.149748,-0.162491 -0.0064,0.15612 z m -1.66528,-0.06796 0.15612,0.0064 -0.149749,-0.162491 -0.0064,0.15612 z"
         style="font-style:normal;font-variant:normal;font-weight:normal;font-stretch:normal;font-size:5px;line-height:125%;font-family:'0xA000-Monochrome';-inkscape-font-specification:'0xA000-Monochrome, Normal';text-align:start;writing-mode:lr-tb;text-anchor:start;fill:#ffffff"
         id="path4246" />
      <path
         d="m 46.539024,97.833549 -0.06203,-2.49923 1.666153,-0.04135 0.02068,0.833077 -0.833077,0.02068 0.04135,1.666154 -0.833077,0.02068 z"
         style="font-style:normal;font-variant:normal;font-weight:normal;font-stretch:normal;font-size:5px;line-height:125%;font-family:'0xA000-Monochrome';-inkscape-font-specification:'0xA000-Monochrome, Normal';text-align:start;writing-mode:lr-tb;text-anchor:start;fill:#ffffff"
         id="path4248" />
      <path
         d="m 49.606172,93.596863 -0.08342,-0.07244 0.07793,-0.0055 0.0055,0.07793 z m 0.02015,0.28575 -0.38932,-0.338041 0.18184,-0.01282 0.19466,0.16902 0.01282,0.181841 z m 0.02014,0.285749 -0.695215,-0.603645 0.181841,-0.01282 0.500555,0.434624 0.01282,0.181841 z m -0.03547,0.237457 -0.889875,-0.772665 0.126223,-0.06111 0.806449,0.700227 -0.0428,0.133549 z m -0.285749,0.02015 -0.583981,-0.507062 -0.01282,-0.18184 0.778641,0.676082 -0.18184,0.01282 z m -0.285749,0.02014 -0.278086,-0.241458 -0.01282,-0.18184 0.472746,0.410478 -0.18184,0.01282 z m -0.177021,0.821776 0.83127,-0.05861 0.175815,2.49381 -0.83127,0.05861 -0.175815,-2.49381 z m 0.738205,-1.748954 0.103909,-0.0073 -0.111234,-0.09658 0.0073,0.103909 z"
         style="font-style:normal;font-variant:normal;font-weight:normal;font-stretch:normal;font-size:5px;line-height:125%;font-family:'0xA000-Monochrome';-inkscape-font-specification:'0xA000-Monochrome, Normal';text-align:start;writing-mode:lr-tb;text-anchor:start;fill:#ffffff"
         id="path4250" />
      <path
         d="m 52.90724,94.874486 -0.02904,-0.02266 0.02584,-0.0032 0.0032,0.02585 z m 0.05423,0.439375 -0.522638,-0.407803 0.180919,-0.02233 0.31939,0.249213 0.02233,0.180919 z m -0.600904,2.147065 -0.07754,0.0096 q 0.02585,-0.0032 0.02904,0.02266 l -0.180919,0.02233 q -0.02904,-0.02266 -0.02904,-0.02266 l -0.568602,0.07018 q 0,0 0.0032,0.02585 l -0.95817,-0.747638 q 0.02585,-0.0032 0.02585,-0.0032 l -0.102076,-0.827058 0.361838,-0.04466 -0.435531,-0.339835 -0.02233,-0.180919 0.638779,0.498425 0.258456,-0.0319 -0.929134,-0.724982 0.151883,-0.04499 0.783957,0.611704 -0.0319,-0.258456 -0.493602,-0.385146 0.180919,-0.02233 0.290354,0.226557 -0.02871,-0.23261 0.02585,-0.0032 -0.02904,-0.02266 0.02585,-0.0032 0.0032,0.02585 0.775367,-0.0957 0.151883,-0.04498 0.812993,0.634359 -0.0067,0.158264 -0.929134,-0.724983 0.0319,0.258456 0.580709,0.453114 0.02585,-0.0032 0.348425,0.271868 0.02233,0.180919 -0.493602,-0.385147 -0.02584,0.0032 -0.435532,-0.339835 0.04147,0.335992 0.02585,-0.0032 0.0032,0.02585 -0.02904,-0.02266 0.0032,0.02585 -0.23261,0.02871 0.232284,0.181245 -0.01914,-0.155073 0.871063,0.679671 0.07754,-0.0096 0.102076,0.827058 -0.827058,0.102076 z m -0.360532,-0.79516 0.23261,-0.02871 -0.900098,-0.702327 0.0319,0.258456 0.580708,0.453114 0.02585,-0.0032 0.02904,0.02266 z M 51.441,96.81348 l -0.0096,-0.07754 0.02585,-0.0032 -0.02904,-0.02266 0.02585,-0.0032 0.0032,0.02585 0.335993,-0.04147 -0.406496,-0.317179 0.04466,0.361837 -0.23261,0.02871 0.232283,0.181246 -0.01914,-0.155074 0.02904,0.02266 z m -0.0061,-0.261645 0.01914,0.155073 0.155073,-0.01914 -0.174213,-0.135934 z m 0.04752,0.597637 -0.464567,-0.362491 -0.258456,0.0319 0.754921,0.589048 -0.0319,-0.258456 z m -0.204228,0.471274 -0.180919,0.02233 -0.464567,-0.362491 -0.02233,-0.180919 0.667815,0.521081 z m 1.54885,-1.057055 -0.609744,-0.47577 0.01914,0.155073 -0.493603,-0.385146 -0.258455,0.0319 0.783956,0.611704 -0.0099,0.132418 0.568602,-0.07018 z m -0.648022,-0.785917 0.155073,-0.01914 -0.174212,-0.135934 0.01914,0.155073 z m 0.724982,-0.929133 0.155074,-0.01914 -0.174213,-0.135934 0.01914,0.155074 z m -1.654116,0.204151 0.155074,-0.01914 -0.174213,-0.135934 0.01914,0.155073 z"
         style="font-style:normal;font-variant:normal;font-weight:normal;font-stretch:normal;font-size:5px;line-height:125%;font-family:'0xA000-Monochrome';-inkscape-font-specification:'0xA000-Monochrome, Normal';text-align:start;writing-mode:lr-tb;text-anchor:start;fill:#ffffff"
         id="path4252" />
      <path
         d="m 54.630024,97.156914 -0.757517,-0.523333 -0.03279,-0.179319 0.969623,0.669867 -0.17932,0.03279 z m -0.333021,0.06089 -0.363608,-0.2512 -0.03279,-0.179319 0.575713,0.397733 -0.179319,0.03279 z m -0.885982,-3.253074 0.819744,-0.149878 0.149878,0.819744 0.819745,-0.149878 0.149878,0.819745 -0.819745,0.149878 0.145194,0.794127 0.02562,-0.0047 0.0047,0.02562 0.794127,-0.145195 0.149878,0.819745 -0.819744,0.149878 -0.01873,-0.102468 -0.848419,-0.586133 -0.102469,0.01873 -0.449633,-2.459233 z m 1.290311,2.279055 0.07685,-0.01405 -0.0909,-0.0628 0.01405,0.07685 z m 0.07742,0.568258 -0.0281,-0.153702 -0.45451,-0.314 -0.153702,0.0281 0.636314,0.4396 z m -0.06089,-0.333022 -0.0281,-0.153702 -0.0606,-0.04187 -0.153702,0.0281 0.242405,0.167466 z"
         style="font-style:normal;font-variant:normal;font-weight:normal;font-stretch:normal;font-size:5px;line-height:125%;font-family:'0xA000-Monochrome';-inkscape-font-specification:'0xA000-Monochrome, Normal';text-align:start;writing-mode:lr-tb;text-anchor:start;fill:#ffffff"
         id="path4254" />
      <path
         d="m 57.153142,95.911943 -0.186574,-0.118398 0.152486,-0.03409 0.03409,0.152486 z m 0.05113,0.22873 -0.466435,-0.295997 0.177901,-0.03977 0.248766,0.157865 0.03977,0.177901 z m 0.05113,0.22873 -0.746296,-0.473596 0.177901,-0.03977 0.528626,0.335463 0.03977,0.177901 z m 0.05113,0.228729 -1.026157,-0.651193 0.177901,-0.03977 0.808487,0.513061 0.03977,0.177901 z m -0.197634,0.07086 -0.808487,-0.513062 -0.03977,-0.1779 1.026157,0.651193 -0.177901,0.03977 z m -0.228729,0.05113 -0.528627,-0.335463 -0.03977,-0.177901 0.746296,0.473595 -0.177901,0.03977 z m -0.22873,0.05113 -0.248765,-0.157866 -0.03977,-0.1779 0.466435,0.295997 -0.177901,0.03977 z m 0.467611,-1.011803 0.02542,-0.0057 -0.0311,-0.01973 0.0057,0.02541 z"
         style="font-style:normal;font-variant:normal;font-weight:normal;font-stretch:normal;font-size:5px;line-height:125%;font-family:'0xA000-Monochrome';-inkscape-font-specification:'0xA000-Monochrome, Normal';text-align:start;writing-mode:lr-tb;text-anchor:start;fill:#ffffff"
         id="path4256" />
      <path
         d="m 59.889484,93.365713 -0.03193,-0.01835 0.02514,-0.0068 0.0068,0.02514 z m 0.115404,0.427402 -0.574736,-0.330351 0.175989,-0.04752 0.351228,0.201881 0.04752,0.175989 z m -0.122192,-0.452543 0.150847,-0.04073 -0.191578,-0.110117 0.04073,0.150848 z m -0.171182,2.662726 -0.434462,-1.609044 0.351978,-0.09504 -0.447017,-0.25694 0.09504,0.351978 -0.804522,0.217231 0.434462,1.609043 -0.804522,0.217231 -0.434461,-1.609043 0.301695,-0.08146 -0.415087,-0.238586 -0.04752,-0.17599 0.638595,0.367057 0.201131,-0.05431 -0.894034,-0.513879 0.01634,-0.139283 0.989823,0.568937 -0.05431,-0.20113 -0.734385,-0.422115 0.175989,-0.04752 0.510876,0.293645 -0.05431,-0.201131 -0.255439,-0.146822 0.17599,-0.04752 q 0.03193,0.01835 0.03193,0.01835 l 0.779381,-0.210442 0.144059,-0.06587 0.894034,0.513879 0.01559,0.157637 0.427674,1.583902 -0.804522,0.217231 z m 0.09351,-1.751602 0.251413,-0.06788 -0.989822,-0.568938 0.06788,0.251413 0.670525,0.385409 z m -1.382771,0.373366 0.05028,-0.01358 -0.0068,-0.02514 q -0.01835,0.03193 -0.04349,0.03872 z"
         style="font-style:normal;font-variant:normal;font-weight:normal;font-stretch:normal;font-size:5px;line-height:125%;font-family:'0xA000-Monochrome';-inkscape-font-specification:'0xA000-Monochrome, Normal';text-align:start;writing-mode:lr-tb;text-anchor:start;fill:#ffffff"
         id="path4258" />
      <path
         d="m 62.116662,95.33208 -1.084685,-0.548188 q 0.02474,-0.0081 0.02474,-0.0081 l -0.260119,-0.791696 0.346367,-0.113802 -0.493039,-0.249176 -0.0569,-0.173184 0.723123,0.365459 0.247405,-0.08129 -1.051815,-0.531577 0.140314,-0.07351 0.887469,0.448518 -0.08129,-0.247405 -0.558777,-0.2824 0.173183,-0.0569 0.328693,0.166118 -0.07316,-0.222665 0.02474,-0.0081 -0.03287,-0.01661 0.02474,-0.0081 0.0081,0.02474 0.742215,-0.243862 0.140314,-0.07351 0.920338,0.465129 0.02403,0.156572 0.243862,0.742215 0.02474,-0.0081 0.0081,0.02474 -0.03287,-0.01661 0.0081,0.02474 -0.222665,0.07316 0.328692,0.166117 0.0569,0.173184 -0.558777,-0.2824 -0.247405,0.08129 0.887469,0.448518 0.02403,0.156572 -1.051816,-0.531577 0.08129,0.247405 0.723123,0.365459 -0.173184,0.0569 -0.493038,-0.249177 0.113802,0.346367 -0.791696,0.26012 q 0,0 0.0081,0.02474 z m -0.420589,0.138189 -0.525907,-0.265789 -0.0569,-0.173183 0.755992,0.382071 -0.173184,0.0569 z m 1.240234,-3.066384 -0.03287,-0.01661 0.02474,-0.0081 0.0081,0.02474 z m 0.138189,0.420588 -0.591646,-0.299012 0.173183,-0.0569 0.361562,0.18273 0.0569,0.173183 z m 0.373921,1.138063 0.148443,-0.04877 -0.197215,-0.09967 0.04877,0.148443 z m -1.583391,0.520239 0.0081,0.02474 -0.03287,-0.01661 0.02474,-0.0081 z m 0,0 0.148443,-0.04877 -0.197216,-0.09967 0.04877,0.148443 z m 1.063153,-2.103631 0.148443,-0.04877 -0.197216,-0.09967 0.04877,0.148443 z m -1.583392,0.520239 0.148443,-0.04877 -0.197215,-0.09967 0.04877,0.148443 z m 0.714974,2.259514 -0.08129,-0.247405 -0.525908,-0.265788 -0.247405,0.08129 0.8546,0.431906 z m -0.138189,-0.420589 -0.07316,-0.222664 0.766955,-0.251991 q 0.02474,-0.0081 0.02474,-0.0081 l -0.26012,-0.791696 0.346367,-0.113803 -0.460169,-0.232564 0.113802,0.346367 -0.791696,0.260119 q 0,0 0.0081,0.02474 l 0.251991,0.766956 -0.222665,0.07316 0.295823,0.149506 z m 0.977969,-1.445183 0.247405,-0.08129 -1.018946,-0.514965 0.08129,0.247405 0.690254,0.348847 z"
         style="font-style:normal;font-variant:normal;font-weight:normal;font-stretch:normal;font-size:5px;line-height:125%;font-family:'0xA000-Monochrome';-inkscape-font-specification:'0xA000-Monochrome, Normal';text-align:start;writing-mode:lr-tb;text-anchor:start;fill:#ffffff"
         id="path4260" />
    </g>
  </g>
</svg>
