<?xml version="1.0" encoding="UTF-8" standalone="no"?>
<!-- Created with Inkscape (http://www.inkscape.org/) -->

<svg
   xmlns:dc="http://purl.org/dc/elements/1.1/"
   xmlns:cc="http://creativecommons.org/ns#"
   xmlns:rdf="http://www.w3.org/1999/02/22-rdf-syntax-ns#"
   xmlns:svg="http://www.w3.org/2000/svg"
   xmlns="http://www.w3.org/2000/svg"
   xmlns:sodipodi="http://sodipodi.sourceforge.net/DTD/sodipodi-0.dtd"
   xmlns:inkscape="http://www.inkscape.org/namespaces/inkscape"
   width="100.00001"
   height="100"
   id="svg53383"
   sodipodi:version="0.32"
   inkscape:version="0.91 r13725"
   sodipodi:docname="hackeriet_sticker.svg"
   inkscape:output_extension="org.inkscape.output.svg.inkscape"
   version="1.1"
   inkscape:export-filename="/home/sjn/Dropbox/Hackeriet/Logos/comotion-sjn-reclaim-5-179x179.png"
   inkscape:export-xdpi="161.10001"
   inkscape:export-ydpi="161.10001"
   style="enable-background:new">
  <defs
     id="defs3" />
  <sodipodi:namedview
     inkscape:showpageshadow="false"
     id="base"
     pagecolor="#ffffff"
     bordercolor="#666666"
     borderopacity="0.11764706"
     inkscape:pageopacity="0.0"
     inkscape:pageshadow="2"
     inkscape:zoom="4.6897857"
     inkscape:cx="6.6723135"
     inkscape:cy="43.232181"
     inkscape:current-layer="layer4"
     showgrid="false"
     inkscape:grid-bbox="true"
     inkscape:document-units="px"
     inkscape:window-width="1918"
     inkscape:window-height="1156"
     inkscape:window-x="2"
     inkscape:window-y="24"
     showguides="false"
     inkscape:guide-bbox="true"
     inkscape:window-maximized="1"
     fit-margin-top="0"
     fit-margin-left="0"
     fit-margin-right="0"
     fit-margin-bottom="0"
     inkscape:snap-global="true"
     borderlayer="true" />
  <metadata
     id="metadata4">
    <rdf:RDF>
      <cc:Work
         rdf:about="">
        <dc:format>image/svg+xml</dc:format>
        <dc:type
           rdf:resource="http://purl.org/dc/dcmitype/StillImage" />
        <dc:title></dc:title>
        <dc:creator>
          <cc:Agent>
            <dc:title>Jakub Steiner</dc:title>
          </cc:Agent>
        </dc:creator>
        <dc:source>http://jimmac.musichall.cz/</dc:source>
        <dc:subject>
          <rdf:Bag>
            <rdf:li>system</rdf:li>
            <rdf:li>applications</rdf:li>
            <rdf:li>group</rdf:li>
            <rdf:li>category</rdf:li>
            <rdf:li>admin</rdf:li>
            <rdf:li>root</rdf:li>
          </rdf:Bag>
        </dc:subject>
        <cc:license
           rdf:resource="http://creativecommons.org/licenses/publicdomain/" />
      </cc:Work>
      <cc:License
         rdf:about="http://creativecommons.org/licenses/publicdomain/">
        <cc:permits
           rdf:resource="http://creativecommons.org/ns#Reproduction" />
        <cc:permits
           rdf:resource="http://creativecommons.org/ns#Distribution" />
        <cc:permits
           rdf:resource="http://creativecommons.org/ns#DerivativeWorks" />
      </cc:License>
    </rdf:RDF>
  </metadata>
  <g
     inkscape:groupmode="layer"
     id="layer2"
     inkscape:label="YingYang"
     style="display:inline"
     transform="translate(34.417291,2.4305521)" />
  <g
     inkscape:groupmode="layer"
     id="layer1"
     inkscape:label="Tannhjul"
     style="display:inline"
     transform="translate(5e-6,-5.0000001e-7)" />
  <g
     inkscape:groupmode="layer"
     id="layer3"
     inkscape:label="Plus/minus"
     style="display:inline"
     transform="translate(34.417291,2.4305521)" />
  <g
     inkscape:groupmode="layer"
     id="layer4"
     inkscape:label="Topp-sirkel"
     style="opacity:1;display:inline"
     transform="translate(2.657388,2.638372)">
    <g
       id="g4129"
       transform="matrix(1.0561309,0,0,1.055573,-2.6573822,-2.6383707)">
      <path
         inkscape:connector-curvature="0"
         id="path1366"
         transform="translate(-2.657383,-2.6383725)"
         d="M 50,3.6875 C 24.419071,3.6875 3.6875,24.419069 3.6875,50 3.6875,75.580928 24.419071,96.3125 50,96.3125 75.58093,96.3125 96.3125,75.580928 96.3125,50 96.3125,24.419069 75.58093,3.6875 50,3.6875 z"
         style="fill:#ffffff;fill-opacity:1;stroke:none;display:inline;enable-background:new" />
      <path
         inkscape:connector-curvature="0"
         id="path1351"
         d="m 45.71875,1.0625 c -16.853001,0.4403743 -32.954907,10.94151 -40.125,26.21875 -1.4179009,2.920824 -2.4905419,6.003689 -3.25,9.15625 l 1.125,0 c 2.4881368,-1.468168 6.1596799,-0.293063 8.90625,0.09375 7.475605,1.613368 14.902073,4.580566 22.6875,3.53125 3.739417,-0.74852 7.080436,0.889105 9.96875,3.09375 5.947322,4.28684 10.645792,10.369519 17.625,13.15625 3.816281,2.098748 7.979626,2.595651 12.25,2.25 4.026537,0.368702 8.38685,0.623539 12.03125,-1.28125 2.731128,-0.906763 4.419656,4.621535 4.75,3.4375 5.012702,-16.142355 0.244665,-34.819651 -12,-46.5 C 71.158005,5.8213183 59.317122,1.0009984 47.34375,1.0625 c -0.544959,-0.00692 -1.081355,-0.014206 -1.625,0 z"
         style="fill:#000000;display:inline;enable-background:new" />
      <path
         transform="translate(-2.657388,-2.638372)"
         id="path3243-2"
         d="m 25.3125,24.03125 c -2.181295,0.244146 -4.526418,0.643856 -6.53125,1.3125 l 0.125,7.28125 c -1.691919,0.836176 -3.281488,2.071817 -4.71875,3.1875 l -6.625,-2.84375 c -0.9285541,1.052363 -1.759936,2.19297 -2.5,3.375 C 4.7429349,37.397464 4.4960586,38.478797 4.25,39.5625 l 4.59375,4.375 c -0.4535073,1.716711 -0.752423,3.340685 -0.96875,5 -1.5986359,0.633831 -3.1836487,1.300581 -4.78125,1.9375 0.051004,2.770021 0.3332787,5.493153 0.84375,8.125 1.9858329,-0.04731 3.9827075,-0.08279 5.96875,-0.125 0.860602,1.594728 1.796808,2.870882 2.8125,4.21875 L 9.875,69.75 c 1.788566,1.639853 3.832255,2.891368 5.96875,3.9375 l 5,-5.1875 c 1.86294,0.624631 3.679418,0.874211 5.5625,1.0625 l 2.75,6.75 C 31.399547,76.094072 33.620101,75.697731 35.6875,75 l -0.125,-7.28125 c 1.873652,-0.949557 3.243326,-1.958439 4.71875,-3.1875 L 46.9375,67.375 c 1.719988,-1.814696 2.872088,-3.793845 3.9375,-5.96875 l -5.21875,-5 c 0.474349,-1.649431 0.74938,-3.307761 0.9375,-5 2.233426,-0.885503 4.482198,-1.812295 6.71875,-2.6875 -0.06938,-2.532111 -0.56128,-5.095726 -1.5,-7.40625 -2.400864,0.06256 -4.816726,0.105202 -7.21875,0.15625 C 43.760011,39.978534 42.755554,38.523964 41.75,37.25 l 2.875,-6.65625 c -1.926418,-1.639153 -3.901375,-2.910932 -6,-3.9375 l -5,5.1875 c -1.825689,-0.5594 -3.695093,-0.88118 -5.5625,-1.0625 l -2.75,-6.75 z"
         style="color:#000000;fill:#ffffff;fill-opacity:1;fill-rule:nonzero;stroke:none;stroke-width:1.16573465;marker:none;visibility:visible;display:inline;overflow:visible;enable-background:new"
         inkscape:connector-curvature="0" />
      <path
         transform="translate(-2.657388,-2.638372)"
         id="path3243-2-0"
         d="m 71.40625,23.6875 c -2.522915,0.181118 -4.814873,0.636253 -7.03125,1.375 l 0.0625,7.1875 c -1.694263,0.880649 -3.259732,1.976694 -4.71875,3.15625 l -6.6875,-2.875 c -1.384684,1.703026 -2.757462,3.617885 -3.71875,5.5 l 5.1875,5.125 c -0.620677,1.782285 -0.913114,3.759347 -1.15625,5.5625 l -6.71875,2.625 c 0.129394,2.407557 0.64505,4.804435 1.375,7.03125 l 7.21875,-0.09375 c 0.879794,1.542313 1.835015,2.914867 2.84375,4.25 -0.972318,2.197001 -1.924497,4.401893 -2.90625,6.59375 1.872604,1.86815 3.953274,3.121934 6.25,4.21875 1.668566,-1.727385 3.353799,-3.436253 5.03125,-5.15625 1.731588,0.534234 3.330824,0.781791 5,1.03125 l 2.625,6.75 c 2.425085,-0.084 4.774151,-0.623665 7.03125,-1.375 L 81,67.375 c 1.766554,-0.860233 3.274919,-1.970678 4.75,-3.15625 l 6.65625,2.90625 c 0.918345,-1.096821 1.777158,-2.250868 2.53125,-3.4375 0.262595,-0.863789 0.474175,-1.740788 0.6875,-2.625 L 90.96875,56.5 c 0.670829,-1.990535 0.934112,-3.651734 1.125,-5.5625 l 4.8125,-1.90625 c -0.05381,-2.64 -0.309281,-5.203373 -0.78125,-7.71875 l -5.90625,0.0625 c -0.817771,-1.508933 -1.76057,-2.911154 -2.8125,-4.25 0.972336,-2.197013 1.924468,-4.401889 2.90625,-6.59375 -1.824267,-1.757395 -3.992241,-3.259974 -6.28125,-4.25 C 82.362684,28.008663 80.677465,29.748739 79,31.46875 77.360829,30.990228 75.610144,30.641352 74,30.4375 l -2.59375,-6.75 z"
         style="color:#000000;fill:#000000;fill-opacity:1;fill-rule:nonzero;stroke:none;stroke-width:1.16573465;marker:none;visibility:visible;display:inline;overflow:visible;enable-background:new"
         inkscape:connector-curvature="0" />
      <path
         d="m 45.419051,49.865064 0,-5.457015 -14.112813,0 0,5.457015 14.112813,0 z"
         id="rect3139"
         inkscape:connector-curvature="0"
         style="fill:#ffffff;fill-opacity:1;display:inline;enable-background:new"
         transform="translate(31.759903,-0.2078199)" />
      <path
         id="path3938"
         style="fill:#000000;fill-opacity:1;stroke:none;display:inline;enable-background:new"
         d="m -15.236652,49.851044 5.4787914,0 0,5.640112 5.273694,0 0,-5.640112 5.47879095,0 0,-5.428596 -5.47879095,0 0,-5.640491 -5.273694,0 0,5.64068 -5.4787914,0 0,5.428407 z"
         inkscape:connector-curvature="0"
         transform="translate(31.759903,-0.2078199)" />
      <path
         inkscape:connector-curvature="0"
         id="path9351"
         d="m 33.409828,1.9840869 c -26.1442117,0 -47.342615,21.1984031 -47.342615,47.3426141 0,26.144212 21.1984033,47.39266 47.342615,47.39266 26.144211,0 47.342614,-21.248448 47.342614,-47.39266 0,-26.144211 -21.198403,-47.3426141 -47.342614,-47.3426141 z m 0,2.2520271 c 24.932875,0 45.140632,20.157713 45.140632,45.090587 0,24.932875 -20.207757,45.140633 -45.140632,45.140633 -24.9328749,0 -45.140632,-20.207758 -45.140632,-45.140633 0,-24.932874 20.2077571,-45.090587 45.140632,-45.090587 z"
         style="color:#000000;fill:#000000;fill-opacity:1;stroke:none;stroke-width:1.39960635;marker:none;visibility:visible;display:inline;font-family:Sans;-inkscape-font-specification:Sans"
         transform="translate(13.932787,-1.9840869)" />
    </g>
    <g
       style="font-style:normal;font-variant:normal;font-weight:normal;font-stretch:normal;font-size:5px;line-height:125%;font-family:'0xA000';-inkscape-font-specification:'0xA000, Normal';text-align:start;letter-spacing:0px;word-spacing:0px;writing-mode:lr-tb;text-anchor:start;fill:#ffffff;fill-opacity:1;stroke:none;stroke-width:1px;stroke-linecap:butt;stroke-linejoin:miter;stroke-opacity:1"
       id="text3352"
       transform="translate(-0.2132295,0.21322948)">
      <path
         d="m 32.397182,1.9447184 q 0.122235,-0.225323 0.291295,-0.3773189 0.16906,-0.1519959 0.445613,-0.2305766 0.216432,-0.061498 0.419022,-0.049757 0.571063,0.088969 0.921288,0.5135792 0.196914,0.3728769 0.311938,0.7776857 L 35.014109,3.3799325 34.64938,3.4835679 34.42161,2.6819663 Q 34.38858,2.565734 34.35437,2.4758275 34.32303,2.3807745 34.29793,2.3229318 q -0.0251,-0.057842 -0.0645,-0.1202843 -0.0394,-0.062442 -0.0594,-0.087081 -0.01599,-0.025778 -0.0737,-0.091681 -0.0537,-0.067041 -0.07484,-0.095689 l -0.004,0.00114 Q 33.97407,1.8691725 33.86599,1.80892 33.757906,1.748668 33.681797,1.739972 33.460986,1.664103 33.240545,1.72674 q -0.216432,0.061498 -0.360349,0.2410025 -0.06417,0.048555 -0.124425,0.1566394 -0.06139,0.104076 -0.06895,0.1841921 l -0.004,0.00114 q -0.0029,0.035481 -0.01735,0.1218824 -0.01043,0.085263 -0.01448,0.1167356 -4.4e-5,0.030334 -7.23e-4,0.1041641 -6.8e-4,0.07383 0.0084,0.1362283 0.0091,0.062398 0.02838,0.1608677 0.02219,0.093323 0.05521,0.2095553 l 0.22777,0.8016016 -0.36072,0.1024966 -0.911081,-3.20640655 0.360721,-0.1024966 0.338238,1.19037845 z"
         id="path4166"
         inkscape:connector-curvature="0" />
      <path
         d="m 37.601213,2.3811259 q -0.166671,0.2360677 -0.380221,0.3927048 -0.385826,0.1680449 -0.797288,0.2563611 -0.338132,0.072577 -0.629207,-0.1121179 -0.287876,-0.1896427 -0.360452,-0.5277748 -0.07258,-0.3381322 0.112992,-0.6251335 0.188768,-0.2919495 0.5269,-0.3645262 l 1.25883,-0.2701949 q -0.04167,-0.17430248 -0.20002,-0.27668532 -0.155146,-0.10733113 -0.33847,-0.0679823 l -8.75e-4,-0.004074 q -0.118142,0.0253581 -0.214167,0.0544919 -0.0969,0.0250599 -0.152184,0.0454495 -0.05528,0.0203896 -0.124243,0.0564985 -0.06896,0.0361089 -0.09485,0.0544515 -0.02269,0.0133943 -0.0963,0.0675476 -0.07041,0.049205 -0.0963,0.067547 l -0.09793,-0.45627476 q 0.263907,-0.12056859 0.40387,-0.16339484 0.144036,-0.0437007 0.392543,-0.0970401 0.338132,-0.0725766 0.626008,0.11706614 0.29195,0.18876835 0.363652,0.52282666 l 0.349767,1.6295524 -0.370723,0.079572 -0.08132,-0.3788709 z m -0.478156,-0.06357 q 0.03229,-0.028239 0.105901,-0.082392 0.07273,-0.058227 0.1123,-0.092289 0.04364,-0.034936 0.09193,-0.087917 0.04829,-0.052981 0.07446,-0.1097369 l -0.09531,-0.4440531 -1.25883,0.270195 q -0.178376,0.042548 -0.284833,0.2017682 -0.103257,0.1542716 -0.06391,0.3375963 l -0.0041,8.744e-4 q 0.04255,0.1783763 0.197694,0.2857075 0.158346,0.1023828 0.345744,0.06216 l 8.75e-4,0.00407 q 0.118142,-0.025358 0.210967,-0.049544 0.09602,-0.029134 0.155384,-0.050398 0.05936,-0.021264 0.124243,-0.056499 0.06488,-0.035235 0.09165,-0.049503 0.02589,-0.018342 0.0963,-0.067547 0.06953,-0.053279 0.0995,-0.072496 z"
         id="path4168"
         inkscape:connector-curvature="0" />
      <path
         d="M 40.222945,2.2259222 Q 40.042889,2.3165983 39.81634,2.3511409 39.593911,2.3850555 39.399132,2.3515317 38.848451,2.1952511 38.544653,1.7231491 38.454605,1.547212 38.42069,1.3247827 38.38615,1.0982343 38.41909,0.8993368 q 0.159772,-0.55542849 0.629011,-0.85036052 0.175309,-0.09416711 0.397738,-0.12808166 0.226549,-0.0345426 0.426074,0.0024722 0.555429,0.15977161 0.849733,0.62489155 l -0.465454,0.0709693 q -0.03951,-0.0656277 -0.1392,-0.13893901 -0.09969,-0.0733113 -0.174109,-0.0914679 -0.209575,-0.10291979 -0.436123,-0.0683772 -0.222429,0.0339145 -0.38769,0.19398664 -0.06975,0.0401383 -0.143058,0.13982757 -0.07394,0.0955702 -0.09147,0.17410966 -0.0988,0.20894637 -0.06426,0.43549467 0.03392,0.2224294 0.189868,0.3883177 0.04077,0.073866 0.136336,0.1478051 0.09906,0.069192 0.18172,0.086093 0.204827,0.099429 0.427257,0.065514 0.226548,-0.034543 0.396555,-0.1911236 0.06975,-0.040138 0.138939,-0.1391996 0.07331,-0.099689 0.09084,-0.1782287 l 0.465454,-0.070969 q -0.15628,0.5506814 -0.624263,0.8538515 z"
         id="path4170"
         inkscape:connector-curvature="0" />
      <path
         d="m 43.423212,1.095223 -0.0041,3.776e-4 Q 43.383597,1.027702 43.288527,0.94849184 43.193457,0.86928168 43.120272,0.84665438 l -3.78e-4,-0.00415 q -0.03433,-0.009428 -0.11619,-0.0354493 -0.08224,-0.0301711 -0.112042,-0.0358269 -0.03018,-0.009805 -0.102609,-0.0241336 -0.07243,-0.0143283 -0.135428,-0.0169632 -0.063,-0.002635 -0.162964,0.002278 -0.09619,3.8595e-4 -0.21653,0.0113366 l -0.456448,0.0415369 0.116681,1.28220202 -0.373456,0.033985 -0.302087,-3.3196166 0.373457,-0.033985 0.151043,1.65980829 0.456447,-0.0415369 0.754383,-0.90542587 0.373457,-0.0339848 q -0.305148,0.370847 -0.754383,0.90542587 l -0.373457,0.0339848 q 0.419102,-0.0381385 0.837834,0.0116182 0.544741,0.19309353 0.810356,0.67517231 0.124524,0.4028728 0.162662,0.8219744 l -0.377606,0.034362 q -0.01095,-0.1203361 -0.02793,-0.2150199 -0.01321,-0.099211 -0.02717,-0.1606985 -0.01396,-0.061488 -0.04113,-0.1301414 -0.02717,-0.068654 -0.04226,-0.096568 -0.01094,-0.028291 -0.05546,-0.1037338 -0.04037,-0.07582 -0.05584,-0.1078834 z"
         id="path4172"
         inkscape:connector-curvature="0" />
      <path
         d="m 45.720841,1.3668197 q 0.180475,0.040378 0.501161,0.030647 l 0.832949,-0.025276 0.01137,0.3748275 -0.83295,0.025276 Q 45.808566,1.7851852 45.397893,1.7142752 44.870096,1.4926821 44.62549,0.98736887 44.55733,0.80185086 44.55051,0.57695438 q -0.007,-0.22906122 0.04971,-0.42253542 0.225631,-0.53208855 0.727032,-0.76823876 0.185392,-0.0723231 0.410288,-0.0791477 0.229062,-0.006951 0.422662,0.0538715 0.532089,0.22563146 0.768113,0.72286796 -0.06058,0.06436696 -0.35525,0.38178424 -0.290637,0.31312616 -0.452424,0.47644188 l -0.3998,0.42482162 z M 45.383617,1.2436582 q 0.145382,-0.1544807 0.807674,-0.85822612 l 0.266406,-0.28737937 q -0.0313,-0.06991608 -0.121416,-0.15472181 -0.09011,-0.08480574 -0.161799,-0.11181051 -0.195622,-0.12745846 -0.424684,-0.1205075 -0.224896,0.006825 -0.408266,0.14578371 -0.07408,0.0314281 -0.158886,0.12154185 -0.08493,0.08594899 -0.111811,0.16179915 -0.123293,0.19549629 -0.116342,0.42455752 0.0068,0.22489648 0.141619,0.40839239 0.03155,0.0782456 0.117503,0.16317769 0.08999,0.080641 0.170002,0.107393 z"
         id="path4174"
         inkscape:connector-curvature="0" />
      <path
         d="m 48.551288,-0.74256251 q 0.420745,0.008617 0.831367,0.10454441 l -0.0096,0.46656884 q -0.03307,-0.0131799 -0.111538,-0.0481272 -0.07838,-0.0391131 -0.107372,-0.0480419 -0.02891,-0.0130946 -0.0993,-0.0353739 -0.07039,-0.0222793 -0.132708,-0.0318906 -0.06232,-0.009611 -0.16221,-0.0158246 -0.09564,-0.0102938 -0.216451,-0.0127679 -0.18338,4.1199e-4 -0.323581,0.13090201 -0.13595,0.12640955 -0.139789,0.31387024 l -0.0042,-8.531e-5 -0.03413,1.66631732 -0.374921,-0.00768 0.05119,-2.49947589 0.374922,0.007678 -0.0028,0.13747117 q 0.211105,-0.13320548 0.461053,-0.12808666 z"
         id="path4176"
         inkscape:connector-curvature="0" />
      <path
         d="m 50.106586,-2.1488969 q 0.09219,-0.082543 0.20868,-0.076111 0.116489,0.00643 0.194872,0.098393 0.08277,0.088031 0.07634,0.2045198 -0.0064,0.1164892 -0.09862,0.1990321 -0.08803,0.082773 -0.204519,0.076341 -0.11649,-0.00643 -0.199033,-0.098623 -0.08254,-0.092191 -0.07611,-0.2086801 0.0064,-0.1164893 0.09839,-0.1948719 z m 0.313198,1.43194479 -0.139895,2.53364081 -0.37859,-0.020904 0.139895,-2.53364078 0.37859,0.0209039 z"
         id="path4178"
         inkscape:connector-curvature="0" />
      <path
         d="m 52.145042,1.5228229 q 0.173952,0.062785 0.49331,0.093516 l 0.829502,0.079823 -0.03592,0.3732757 -0.829501,-0.079823 Q 52.179386,1.9489052 51.780913,1.8268419 51.285224,1.5405447 51.106202,1.00845 q -0.04425,-0.19262455 -0.0227,-0.41658996 0.02195,-0.22811292 0.102523,-0.41291156 0.290843,-0.49943735 0.817992,-0.67056335 0.193024,-0.0484 0.416989,-0.0268478 0.228113,0.0219513 0.412513,0.10667062 0.499437,0.2908438 0.670962,0.81384526 -0.0682,0.0562259 -0.400501,0.33400615 -0.327756,0.27403184 -0.508823,0.41567254 l -0.450115,0.371091 z M 51.826013,1.3581735 q 0.163678,-0.1349422 0.909324,-0.74967872 l 0.300476,-0.25154149 q -0.02225,-0.0733014 -0.100964,-0.16878048 -0.07872,-0.09547905 -0.14643,-0.13129654 -0.178014,-0.15107948 -0.406127,-0.17303075 -0.223965,-0.0215521 -0.423374,0.09320797 -0.07745,0.0218485 -0.172928,0.10056477 -0.09508,0.07456876 -0.131297,0.1464301 -0.146932,0.17841281 -0.168883,0.40652573 -0.02155,0.22396541 0.08906,0.42297581 0.02145,0.081596 0.09602,0.1766764 0.07912,0.091331 0.155125,0.1279472 z"
         id="path4180"
         inkscape:connector-curvature="0" />
      <path
         d="M 54.787206,2.2493484 Q 54.445185,2.1981441 54.237842,1.9227428 54.035237,1.6438376 54.086442,1.301816 l 0.370151,-2.4724457 0.370867,0.055523 -0.123384,0.8241486 1.277431,0.19124509 -0.05614,0.3749876 -1.27743,-0.1912451 -0.190629,1.27330951 q -0.02302,0.1819296 0.08436,0.3370386 0.112123,0.1516052 0.301677,0.1799835 l -6.17e-4,0.00412 0.824148,0.1233839 -0.05552,0.3708669 -0.824149,-0.123384 z"
         id="path4182"
         inkscape:connector-curvature="0" />
      <path
         d="m 56.518282,1.8973496 q 0.102127,-0.069877 0.216795,-0.048377 0.114669,0.0215 0.18045,0.1228579 0.07065,0.098031 0.04915,0.2126994 -0.0215,0.1146685 -0.123626,0.1845452 -0.09803,0.070645 -0.212699,0.049145 -0.114669,-0.0215 -0.184545,-0.1236258 -0.06578,-0.1013583 -0.04428,-0.2160268 0.0215,-0.1146686 0.118762,-0.1812178 z"
         id="path4184"
         inkscape:connector-curvature="0" />
      <path
         d="m 58.453396,0.75137077 q 0.216301,-0.13757174 0.437909,-0.18830302 0.221609,-0.0507313 0.501511,0.0149259 0.219054,0.0513839 0.390431,0.16006023 0.455936,0.35517602 0.555796,0.89645172 -0.009,0.4215818 -0.105123,0.8312941 l -0.190311,0.8113115 -0.369146,-0.086591 0.19031,-0.8113115 q 0.02759,-0.1176402 0.04137,-0.2128441 0.01878,-0.098309 0.02494,-0.1610604 0.0062,-0.062751 0.0021,-0.1364707 -0.0041,-0.073719 -0.0096,-0.1049698 -0.0015,-0.030299 -0.01988,-0.1159376 -0.01437,-0.084687 -0.01893,-0.1199941 l -0.0041,-9.516e-4 q -0.01222,-0.075622 -0.07742,-0.1807926 -0.0652,-0.1051703 -0.127505,-0.1497426 -0.156152,-0.1735813 -0.379263,-0.22591674 -0.219054,-0.0513839 -0.432049,0.035606 -0.07968,0.011268 -0.184849,0.076473 -0.104219,0.061149 -0.149743,0.1275057 l -0.0041,-9.516e-4 q -0.01978,0.029598 -0.07437,0.098108 -0.05053,0.069462 -0.06936,0.095003 -0.01477,0.026493 -0.05123,0.090696 -0.03646,0.064204 -0.05885,0.123149 -0.02239,0.058945 -0.05334,0.1543995 -0.02594,0.092349 -0.05354,0.2099895 l -0.190311,0.8113114 -0.36509,-0.08564 0.570932,-2.43393468 0.36509,0.0856398 -0.0923,0.39348607 z"
         id="path4186"
         inkscape:connector-curvature="0" />
      <path
         d="M 62.23973,3.8078132 Q 62.038179,3.8122339 61.818798,3.7459822 61.603406,3.6809352 61.441981,3.566898 61.012048,3.1889674 60.94083,2.6320998 60.93523,2.4345375 61.00025,2.2191451 61.0665,1.999764 61.181743,1.8343503 q 0.383124,-0.4327169 0.933594,-0.4971622 0.198767,-0.00961 0.414159,0.055433 0.219381,0.066252 0.38359,0.1854821 0.432717,0.3831239 0.498367,0.9296049 0.0084,0.2027556 -0.05784,0.4221367 -0.06505,0.2153924 -0.183073,0.3756128 -0.377931,0.4299327 -0.93081,0.5023556 z m 0.136118,-0.4507285 q 0.08023,-0.00624 0.1853,-0.065911 0.10906,-0.058468 0.158663,-0.121833 0.181846,-0.1409472 0.246893,-0.3563396 0.06625,-0.2193811 -0.006,-0.44141 -0.0074,-0.076241 -0.06591,-0.1853005 -0.05847,-0.1090598 -0.117845,-0.1574588 -0.144936,-0.1830504 -0.364317,-0.2493021 -0.215392,-0.065047 -0.433432,0.00839 -0.08023,0.00624 -0.18929,0.064707 -0.107855,0.054479 -0.157458,0.1178443 -0.179062,0.1461406 -0.245314,0.3655217 -0.06505,0.2153924 0.0044,0.4322279 0.005,0.084218 0.05951,0.1920734 0.05967,0.1050711 0.127026,0.1558792 0.142152,0.1778571 0.357544,0.2429042 0.219381,0.066252 0.440206,-0.00199 z"
         id="path4188"
         inkscape:connector-curvature="0" />
    </g>
  </g>
</svg>
